<?xml version="1.0" standalone="no"?>
<!DOCTYPE svg PUBLIC "-//W3C//DTD SVG 20010904//EN"
 "http://www.w3.org/TR/2001/REC-SVG-20010904/DTD/svg10.dtd">
<svg version="1.0" xmlns="http://www.w3.org/2000/svg"
 width="1280.000000pt" height="960.000000pt" viewBox="0 0 1280.000000 960.000000"
 preserveAspectRatio="xMidYMid meet">

<g transform="translate(0.000000,960.000000) scale(0.100000,-0.100000)"
fill="#000000" stroke="none">
<path d="M0 4800 l0 -4800 6400 0 6400 0 0 4800 0 4800 -6400 0 -6400 0 0
-4800z m10622 3313 c20 -22 25 -35 21 -61 -10 -61 -87 -85 -119 -37 -19 29
-14 102 8 116 26 17 64 9 90 -18z m-4085 -240 c13 -15 23 -38 23 -49 0 -51
-52 -104 -102 -104 -10 0 -32 10 -48 22 -26 19 -30 28 -30 69 0 37 5 52 27 74
24 23 34 26 68 22 28 -4 47 -14 62 -34z m-2574 -602 l437 -291 0 -460 0 -460
-22 -14 c-13 -8 -140 -69 -283 -136 -143 -67 -307 -145 -365 -172 -58 -28
-132 -63 -165 -78 l-61 -27 -139 79 c-77 44 -162 92 -190 107 -55 30 -327 183
-525 295 l-125 71 -3 506 c-2 398 1 509 10 516 7 6 90 39 183 73 94 34 204 75
245 90 41 15 163 60 270 99 107 40 211 78 230 86 19 8 42 13 50 11 9 -2 212
-134 453 -295z m1958 -256 c184 -135 342 -252 352 -260 16 -14 17 -46 17 -407
0 -216 -3 -402 -6 -413 -3 -13 -32 -35 -77 -58 -40 -20 -108 -57 -152 -81
-231 -125 -477 -256 -481 -256 -3 0 -61 35 -127 77 -67 42 -158 99 -202 126
-44 27 -102 64 -130 82 -27 17 -88 56 -135 85 -47 29 -106 67 -133 83 l-47 30
2 455 3 455 75 32 c160 68 499 215 585 254 50 22 97 41 106 41 8 0 166 -110
350 -245z m741 -1110 c12 -16 9 -70 -4 -83 -19 -19 -73 -14 -93 8 -24 26 -13
83 18 97 23 10 64 -1 79 -22z m-4349 -96 c23 -12 85 -45 137 -74 93 -51 342
-185 468 -252 35 -18 130 -69 213 -114 l149 -81 -2 -492 -3 -491 -235 -125
c-248 -133 -483 -259 -664 -357 l-109 -59 -146 64 c-80 35 -245 106 -366 159
-531 230 -591 256 -603 266 -9 7 -12 125 -10 551 l3 540 165 73 c91 39 181 78
200 87 77 33 522 227 630 274 63 28 119 51 123 51 4 1 27 -9 50 -20z m2557
-439 c338 -11 885 -29 1215 -40 1442 -48 1813 -60 1863 -60 31 0 52 -4 52 -11
0 -8 -49 -9 -172 -5 -266 9 -729 25 -1093 36 -181 6 -454 14 -605 20 -420 14
-1366 44 -1780 55 -238 7 -293 12 -284 27 5 7 37 8 98 4 50 -4 368 -16 706
-26z m-386 -147 c9 -44 127 -741 138 -817 11 -83 9 -86 -78 -86 -69 0 -69 0
-80 82 -11 84 -15 88 -92 87 -101 -1 -104 -3 -122 -95 l-15 -79 -72 -3 c-55
-2 -73 0 -73 10 0 7 14 92 30 188 17 96 51 294 76 440 24 146 47 273 50 283 5
15 19 17 119 17 l113 0 6 -27z m371 -70 c3 -49 5 -200 4 -338 -1 -137 -2 -273
-1 -302 l2 -52 115 6 115 6 0 -65 0 -65 -37 -7 c-21 -3 -109 -6 -195 -6 l-158
0 0 455 0 455 74 0 74 0 7 -87z m595 57 c73 -37 100 -94 100 -211 0 -79 -1
-81 -22 -75 -13 3 -42 6 -64 6 l-42 0 -4 71 c-4 82 -20 102 -78 97 -57 -5 -60
-20 -60 -305 0 -299 5 -322 73 -323 53 0 67 29 67 135 l0 96 -30 6 c-30 5 -30
6 -30 69 l0 64 95 0 95 0 0 -177 c0 -152 -3 -184 -19 -219 -64 -142 -298 -150
-367 -14 -23 44 -23 52 -24 356 0 306 0 311 23 355 37 69 113 103 207 92 25
-3 61 -14 80 -23z m494 -20 c20 -14 46 -45 59 -70 21 -43 22 -55 22 -320 0
-151 -4 -292 -8 -313 -10 -46 -58 -103 -105 -122 -19 -8 -62 -15 -96 -15 -51
0 -70 5 -108 29 -78 50 -83 74 -83 411 0 284 0 285 25 335 35 71 89 97 186 93
55 -3 79 -9 108 -28z m446 -12 c70 -36 85 -71 85 -203 0 -113 -11 -152 -50
-185 -14 -12 -13 -16 9 -39 33 -35 44 -92 47 -246 l2 -130 -60 -3 c-74 -4 -73
-6 -73 163 0 144 -9 165 -69 165 -26 0 -41 -5 -45 -16 -3 -9 -6 -83 -6 -165
l0 -149 -65 0 -65 0 0 415 0 415 123 0 c107 0 128 -3 167 -22z m282 -10 c0
-13 1 -32 1 -43 0 -11 -1 -183 -2 -382 l-1 -363 -60 0 -60 0 0 405 0 405 60 0
c55 0 60 -2 62 -22z m286 15 l122 -6 0 -59 0 -58 -60 0 -60 0 0 -335 0 -335
-60 0 -60 0 -2 338 -3 337 -57 3 -58 3 0 59 0 60 58 0 c33 0 114 -3 180 -7z
m266 -9 c14 -5 16 -29 16 -165 l0 -159 25 -1 c14 -1 32 -1 40 -1 47 0 45 -7
45 162 l0 160 60 0 60 0 -2 -382 -3 -383 -57 -3 -57 -3 -3 163 -3 163 -50 0
-50 0 -5 -165 -5 -165 -57 -3 -58 -3 0 396 0 395 44 0 c24 0 51 -3 60 -6z
m453 -12 c8 -5 19 -56 27 -118 31 -234 49 -327 58 -310 5 9 21 108 36 221 l27
205 72 0 73 0 -2 -372 -3 -373 -47 -3 -48 -3 0 165 c0 244 -13 226 -52 -72
l-12 -93 -50 3 -50 3 -22 135 c-11 74 -25 158 -29 185 l-9 50 -7 -50 c-4 -27
-8 -112 -8 -187 -1 -110 -4 -138 -15 -138 -7 0 -28 -3 -45 -6 l-31 -6 0 386 0
386 63 0 c34 0 68 -4 74 -8z m248 -833 c-44 -4 -244 -12 -445 -19 -468 -14
-858 -27 -1235 -40 -484 -16 -880 -29 -1365 -45 -250 -8 -538 -17 -640 -21
-121 -4 -182 -3 -175 3 11 11 346 25 1130 48 275 8 550 17 610 20 61 3 333 12
605 20 272 8 626 19 785 25 376 14 457 16 650 17 136 0 148 -1 80 -8z m-2225
-337 c118 -66 174 -96 412 -223 167 -90 167 -90 170 -127 2 -20 2 -208 0 -417
l-3 -380 -344 -250 c-189 -137 -351 -251 -359 -253 -8 -2 -113 39 -233 91
-120 52 -290 126 -378 164 l-160 69 0 454 0 455 201 125 c201 126 292 183 459
291 50 33 99 59 110 59 11 0 68 -26 125 -58z m-1985 -127 c110 -53 308 -147
440 -209 l240 -112 3 -462 2 -462 -444 -296 -445 -295 -43 15 c-24 8 -81 29
-128 46 -47 18 -96 36 -110 40 -109 36 -686 252 -697 261 -11 9 -13 103 -13
508 0 273 4 501 8 506 4 6 70 46 147 89 214 121 227 128 265 149 19 11 53 30
75 42 90 49 441 248 460 261 11 8 24 14 30 14 5 0 100 -43 210 -95z m7888
-602 c-7 -18 -43 -17 -43 2 0 19 33 37 41 23 4 -6 5 -17 2 -25z m-63 7 c0 -5
-4 -10 -10 -10 -5 0 -10 5 -10 10 0 6 5 10 10 10 6 0 10 -4 10 -10z"/>
<path d="M3320 7473 c-96 -36 -308 -114 -470 -173 l-295 -108 -3 -496 -2 -495
42 -22 c24 -12 104 -56 178 -99 74 -42 158 -90 185 -105 28 -15 127 -71 220
-123 303 -170 325 -182 336 -182 9 0 261 117 589 273 63 30 150 71 193 91 l77
36 0 447 -1 448 -425 283 c-233 156 -430 285 -437 287 -7 2 -91 -26 -187 -62z
m192 -629 c55 -18 117 -69 143 -118 13 -24 28 -37 47 -41 15 -3 41 -8 57 -11
46 -9 106 -58 130 -106 22 -47 28 -103 11 -113 -6 -4 -1 -18 11 -35 27 -36 20
-75 -17 -87 -24 -8 -190 0 -242 12 -12 3 -32 15 -43 26 l-21 21 7 -21 c6 -21
4 -21 -62 -16 -37 3 -102 7 -143 11 -228 17 -267 30 -308 102 -51 91 -3 172
116 197 26 5 32 12 32 31 0 40 37 100 75 124 68 42 133 50 207 24z"/>
<path d="M5265 7100 c-165 -72 -329 -143 -365 -159 l-65 -29 -2 -438 -2 -439
372 -232 372 -232 100 53 c88 46 242 129 500 268 l80 43 3 397 2 398 -86 62
c-47 35 -161 118 -253 185 -91 67 -203 150 -249 183 -46 34 -88 63 -95 65 -7
3 -147 -54 -312 -125z m215 -520 c128 -13 207 -25 212 -33 4 -7 8 -23 9 -37 1
-23 2 -22 8 5 l7 30 74 -2 c131 -4 120 12 120 -175 l0 -161 -92 7 c-96 6 -107
12 -109 56 -1 19 -2 21 -6 6 -5 -17 -13 -18 -86 -13 -45 2 -71 3 -57 0 14 -3
30 -9 35 -15 11 -11 -227 -4 -258 8 -34 12 -16 24 31 19 64 -6 29 4 -65 18
l-78 12 -2 145 c-1 128 1 146 15 151 9 3 22 5 27 3 6 -2 102 -12 215 -24z"/>
<path d="M5270 6456 l0 -105 43 -5 c23 -3 98 -11 167 -17 69 -5 135 -13 148
-16 22 -5 22 -4 22 101 0 58 -4 106 -8 106 -4 0 -59 6 -122 14 -63 8 -145 18
-182 21 l-68 7 0 -106z"/>
<path d="M5754 6508 c-9 -13 -5 -15 58 -22 38 -5 58 -4 63 4 4 6 5 13 4 14
-10 9 -121 12 -125 4z"/>
<path d="M2145 5750 c-60 -27 -126 -55 -145 -64 -88 -38 -209 -90 -245 -106
-22 -10 -93 -41 -157 -69 -65 -28 -169 -73 -230 -100 -62 -27 -132 -57 -156
-66 l-42 -17 2 -530 3 -529 65 -29 c36 -15 182 -78 325 -140 143 -62 355 -155
472 -206 117 -52 219 -94 227 -94 14 0 82 34 236 120 47 26 123 67 170 92 47
25 110 59 140 75 30 16 142 76 248 133 l192 103 0 476 0 477 -62 31 c-61 31
-119 62 -378 203 -69 37 -165 89 -215 115 -49 27 -143 77 -208 112 -65 35
-121 63 -125 62 -4 0 -56 -23 -117 -49z m558 -582 c45 -23 46 -33 47 -255 l0
-213 -495 0 -495 0 0 220 0 221 26 26 26 26 435 -6 c302 -5 441 -10 456 -19z
m47 -533 c0 -27 -34 -64 -65 -70 -45 -9 -266 -15 -553 -15 -248 0 -307 2 -331
14 -46 24 -58 81 -18 89 12 2 235 5 495 6 l472 1 0 -25z m-298 -140 c9 -21 18
-25 54 -25 23 0 49 -3 58 -6 20 -8 21 -40 2 -47 -7 -3 -147 -7 -310 -8 -307
-3 -335 1 -306 36 8 10 29 15 61 15 41 0 51 4 65 25 17 26 32 28 267 33 95 2
98 1 109 -23z"/>
<path d="M2182 5055 c-2 -20 2 -35 8 -35 6 0 8 -5 5 -10 -5 -7 17 -10 67 -8
l73 3 3 43 3 42 -78 0 -79 0 -2 -35z m98 15 c0 -5 7 -7 15 -4 23 9 31 -25 10
-44 -17 -16 -17 -16 -12 6 6 27 -13 30 -20 2 -3 -11 -9 -20 -14 -20 -10 0 -12
31 -3 54 7 17 24 22 24 6z m-42 -25 c0 -31 -12 -39 -28 -20 -10 12 -10 18 0
30 18 22 28 18 28 -10z"/>
<path d="M2060 4820 c0 -34 3 -40 20 -40 18 0 19 3 10 21 -9 15 -8 24 1 35 17
21 31 17 24 -6 -3 -11 -2 -20 4 -20 5 0 12 9 16 20 7 22 33 22 59 1 15 -12 15
-16 1 -31 -20 -22 -19 -29 5 -23 22 6 21 5 24 48 l1 30 -82 3 -83 3 0 -41z"/>
<path d="M2317 4853 c-4 -3 -7 -21 -7 -39 0 -28 4 -33 31 -39 40 -9 46 -2 14
19 -30 20 -32 32 -4 47 19 10 20 8 14 -10 -3 -12 -2 -21 3 -21 5 0 12 9 15 20
6 25 28 26 56 3 l20 -18 -26 -19 c-26 -19 -26 -19 -21 2 4 12 2 25 -3 28 -5 3
-9 -1 -9 -10 0 -8 -3 -22 -7 -32 -5 -15 -2 -16 27 -10 41 8 40 6 45 50 l5 36
-73 0 c-41 0 -77 -3 -80 -7z"/>
<path d="M2152 4805 c-7 -16 -17 -23 -27 -19 -8 3 -15 2 -15 -3 0 -4 13 -9 28
-9 25 -1 29 2 29 27 0 35 -1 35 -15 4z"/>
<path d="M4346 4984 c-9 -46 -56 -337 -56 -351 0 -9 19 -13 65 -13 l65 0 0 31
c0 41 -50 330 -60 348 -5 10 -9 6 -14 -15z"/>
<path d="M5802 5090 c-12 -5 -27 -21 -32 -35 -15 -40 -13 -514 3 -545 16 -32
70 -40 98 -14 18 16 19 34 19 288 0 149 -4 276 -8 282 -6 10 -47 35 -54 33 -2
0 -13 -4 -26 -9z"/>
<path d="M6237 5068 c-7 -21 -9 -202 -1 -221 8 -21 62 -23 90 -3 16 12 20 29
22 103 3 78 1 90 -18 111 -23 24 -84 31 -93 10z"/>
<path d="M5440 3943 c-199 -127 -271 -171 -420 -263 -74 -46 -148 -94 -163
-105 l-29 -22 -1 -434 -2 -433 75 -32 c41 -18 201 -87 355 -154 154 -67 290
-124 302 -127 23 -5 42 8 403 272 102 75 211 154 243 176 l57 40 0 399 0 398
-97 52 c-54 29 -136 73 -183 98 -47 25 -114 62 -150 82 -36 20 -108 60 -160
88 l-95 50 -135 -85z m349 -489 c13 -9 29 -31 37 -48 7 -17 13 -25 14 -18 0
18 70 16 70 -2 0 -16 -21 -26 -56 -26 -14 0 -23 -4 -19 -9 3 -5 21 -7 40 -4
28 4 35 2 35 -10 0 -19 -11 -26 -44 -29 -39 -3 -31 -18 9 -18 50 0 45 -25 -7
-37 l-43 -11 43 -1 c29 -1 42 -5 42 -15 0 -28 -56 -35 -75 -9 -12 16 -13 15
-8 -7 4 -23 8 -25 44 -22 30 3 39 1 39 -11 0 -8 -7 -18 -16 -21 -24 -9 -54 -7
-54 4 0 6 -4 10 -9 10 -4 0 -6 -12 -3 -26 3 -18 8 -22 15 -15 6 6 24 11 40 11
22 0 28 -4 25 -17 -3 -14 -13 -18 -44 -17 -38 0 -40 -1 -36 -25 3 -14 7 -20 9
-13 7 18 73 16 73 -3 0 -13 -22 -19 -67 -18 -7 0 -15 -9 -19 -21 -14 -47 -83
-91 -84 -53 0 6 -5 4 -11 -5 -5 -10 -15 -18 -21 -18 -6 0 -17 8 -24 18 -13 16
-13 16 -14 0 0 -21 -36 -25 -43 -5 -3 7 -6 5 -6 -5 -1 -27 -31 -22 -32 5 -1
20 -2 20 -6 2 -8 -33 -23 -42 -37 -22 -12 15 -14 16 -20 2 -7 -20 -33 -19 -45
3 -9 15 -10 15 -11 -5 0 -28 -39 -33 -41 -5 -1 16 -2 16 -6 0 -11 -41 -103
-10 -103 34 0 17 -5 18 -46 12 -41 -6 -46 -5 -42 12 2 14 13 20 41 22 20 2 37
7 37 13 0 5 -16 7 -36 5 -25 -3 -37 0 -41 11 -7 19 13 33 48 33 16 0 30 7 34
18 5 14 4 15 -6 5 -18 -18 -76 -16 -82 2 -4 8 -3 16 1 19 14 9 68 10 81 2 9
-6 12 -5 9 5 -3 9 -20 14 -46 14 -23 0 -42 3 -42 8 0 4 0 11 0 16 0 17 70 18
80 2 7 -11 9 0 10 35 l0 52 -45 -6 c-41 -4 -45 -3 -45 17 0 16 6 21 28 21 15
0 34 5 42 10 11 7 3 10 -28 10 -36 0 -43 3 -40 18 5 24 58 29 75 6 12 -16 13
-15 13 12 0 59 70 115 97 78 12 -16 13 -16 13 -1 0 23 40 23 41 0 1 -16 2 -16
6 -1 6 25 35 32 50 12 12 -16 13 -17 13 -1 0 25 29 21 40 -5 l9 -23 0 23 c1
26 31 31 32 5 0 -14 2 -13 9 5 11 26 40 30 40 5 1 -17 1 -17 14 0 7 9 20 17
29 17 8 0 18 -8 20 -17 4 -14 5 -12 6 5 1 26 18 28 50 6z m-479 -234 c0 -11
-4 -20 -9 -20 -5 0 -23 -3 -40 -6 -27 -6 -31 -4 -31 14 0 23 12 30 53 31 21 1
27 -4 27 -19z"/>
<path d="M3475 3916 c-17 -11 -203 -117 -715 -405 -30 -17 -90 -50 -133 -73
l-77 -43 2 -495 3 -494 185 -68 c259 -95 287 -105 539 -198 l223 -83 32 18
c17 11 211 139 432 286 293 195 403 274 407 291 8 29 9 791 1 839 l-6 36 -242
113 c-132 63 -324 153 -425 202 -101 48 -189 88 -195 88 -6 0 -20 -6 -31 -14z
m231 -655 c17 -10 37 -33 44 -51 14 -33 11 -49 -25 -132 -6 -15 -2 -18 30 -18
l36 0 69 -142 c37 -79 65 -146 61 -151 -7 -7 -162 -26 -451 -57 -58 -6 -134
-15 -170 -20 -120 -16 -230 -23 -229 -14 0 5 33 81 73 169 l72 160 54 7 c30 4
101 12 157 19 l103 11 -26 44 c-30 50 -28 94 6 137 43 55 138 73 196 38z"/>
<path d="M3571 3214 c-24 -19 -31 -34 -31 -60 0 -49 18 -42 22 8 2 31 8 44 21
46 14 3 17 -5 17 -51 0 -35 -5 -57 -12 -60 -7 -3 1 -6 17 -6 35 -1 95 32 95
53 0 12 -5 12 -30 3 -17 -7 -29 -18 -27 -26 1 -9 -6 -17 -15 -19 -15 -3 -18 4
-18 51 0 53 1 56 30 62 17 4 28 11 24 16 -11 18 -63 9 -93 -17z"/>
<path d="M3645 3180 c-3 -5 -1 -10 4 -10 6 0 11 5 11 10 0 6 -2 10 -4 10 -3 0
-8 -4 -11 -10z"/>
<path d="M3333 2980 c-34 -14 -29 -46 9 -59 19 -7 34 -8 37 -2 4 5 18 12 33
16 15 4 33 14 42 24 14 16 13 17 -19 13 -21 -3 -35 0 -35 7 0 13 -36 13 -67 1z"/>
<path d="M3460 2880 c0 -11 4 -20 9 -20 6 0 11 -16 13 -36 l3 -35 43 36 c23
20 42 42 42 49 0 8 -17 16 -37 20 -62 10 -73 8 -73 -14z"/>
</g>
</svg>
