<?xml version="1.0" standalone="no"?>
<!DOCTYPE svg PUBLIC "-//W3C//DTD SVG 20010904//EN"
 "http://www.w3.org/TR/2001/REC-SVG-20010904/DTD/svg10.dtd">
<svg version="1.0" xmlns="http://www.w3.org/2000/svg"
 width="1600.000000pt" height="1600.000000pt" viewBox="0 0 1600.000000 1600.000000"
 preserveAspectRatio="xMidYMid meet">

<g transform="translate(0.000000,1600.000000) scale(0.100000,-0.100000)"
fill="#000000" stroke="none">
<path d="M6700 12212 c11 -20 20 -42 20 -48 0 -6 10 -24 22 -39 24 -31 27 -86
8 -180 -5 -27 -12 -68 -14 -90 -2 -22 -17 -132 -34 -245 -17 -113 -35 -252
-42 -310 -6 -58 -15 -132 -20 -165 -6 -33 -17 -109 -25 -170 -8 -60 -23 -171
-34 -245 -11 -74 -22 -155 -24 -180 -3 -25 -9 -69 -13 -99 l-7 -54 88 46 c48
26 91 47 95 47 9 0 306 166 342 191 14 11 29 19 34 19 4 0 21 10 38 23 34 26
348 207 436 252 30 15 74 41 97 57 39 29 42 34 53 102 6 39 14 80 18 91 3 11
7 25 7 30 1 6 3 12 4 15 2 3 5 25 7 50 2 25 7 54 10 65 4 11 10 49 15 85 4 36
10 76 13 90 2 14 7 49 10 78 2 28 8 58 13 64 4 7 8 31 8 53 1 33 25 183 31
193 6 9 53 10 94 0 39 -9 47 -14 40 -27 -8 -15 -53 -267 -54 -303 0 -9 -4 -14
-8 -12 -4 3 -8 -6 -8 -19 0 -14 -9 -78 -21 -144 -11 -65 -24 -145 -29 -178 -5
-33 -12 -70 -16 -82 -11 -37 21 -29 130 35 79 46 99 62 102 82 1 14 12 73 23
132 11 59 23 127 26 150 5 44 31 197 66 388 10 58 19 110 19 117 0 10 -28 16
-140 28 -19 2 -96 11 -170 19 -368 43 -997 108 -1162 120 l-68 5 20 -37z"/>
<path d="M9688 12165 c-27 -14 -48 -30 -48 -35 0 -6 -7 -10 -15 -10 -9 0 -18
-7 -21 -15 -4 -8 -10 -15 -15 -15 -6 0 -20 -9 -32 -20 -12 -11 -27 -18 -35
-15 -7 2 -10 0 -7 -5 3 -6 -1 -10 -9 -10 -9 0 -16 -4 -16 -10 0 -5 -5 -10 -11
-10 -6 0 -30 -13 -54 -30 -24 -16 -46 -30 -50 -30 -3 0 -17 -8 -32 -17 -14
-10 -31 -18 -37 -19 -6 -1 -28 -12 -48 -25 -19 -13 -43 -29 -53 -34 -21 -12 5
-27 500 -285 77 -40 153 -82 168 -93 32 -22 40 -14 -65 -71 -29 -15 -60 -35
-70 -43 -9 -8 -24 -16 -33 -17 -9 -1 -24 -9 -33 -17 -9 -8 -28 -19 -41 -25
-14 -6 -21 -13 -15 -16 5 -3 36 11 69 32 61 38 104 62 275 153 130 69 135 72
155 117 24 53 16 96 -33 179 -22 36 -79 135 -128 219 -48 84 -99 160 -113 169
-42 27 -100 26 -153 -2z"/>
<path d="M11643 12073 c-9 -3 -10 -9 -1 -23 14 -22 38 -15 38 11 0 18 -12 23
-37 12z"/>
<path d="M11430 11915 c0 -8 2 -15 4 -15 2 0 11 -3 19 -6 8 -3 17 2 21 12 4
12 2 15 -9 10 -8 -3 -15 -1 -15 4 0 6 -4 10 -10 10 -5 0 -10 -7 -10 -15z"/>
<path d="M10834 11725 c4 -37 13 -73 21 -81 26 -26 39 -121 25 -194 -23 -126
-38 -205 -49 -260 -6 -30 -18 -91 -26 -135 -8 -44 -31 -156 -51 -250 -20 -93
-37 -182 -39 -197 -1 -16 -4 -29 -5 -30 -1 -2 -4 -16 -6 -32 -1 -16 -9 -43
-17 -60 -8 -17 -38 -89 -67 -161 -29 -71 -56 -135 -61 -141 -5 -6 -15 -29 -23
-51 -11 -31 -12 -44 -3 -53 9 -10 9 -12 -3 -8 -10 4 -16 0 -17 -11 0 -9 -15
-52 -33 -96 -17 -44 -40 -105 -50 -135 -51 -155 -170 -493 -188 -534 -13 -29
-28 -46 -39 -47 -50 -4 -66 -7 -72 -15 -3 -5 -17 -10 -31 -11 -14 0 -43 -6
-65 -12 -22 -6 -55 -14 -74 -17 -19 -3 -45 -10 -58 -15 -13 -5 -23 -6 -23 -3
0 4 -7 1 -15 -6 -8 -7 -15 -9 -15 -6 0 4 -8 2 -19 -3 -17 -10 -18 -8 -10 27 4
20 40 129 80 242 81 234 159 467 164 492 3 14 1 15 -23 3 -27 -14 -230 -65
-270 -68 -12 -1 -22 -5 -22 -10 0 -5 -6 -7 -12 -4 -7 2 -28 -2 -47 -9 -18 -8
-46 -14 -60 -14 -35 0 -27 19 -235 -580 -76 -219 -77 -219 -141 -220 -11 0
-33 -7 -48 -15 -15 -8 -25 -10 -21 -4 4 7 0 7 -12 0 -17 -10 -190 -52 -221
-54 -7 0 -13 -3 -13 -7 0 -4 -7 -7 -15 -7 -8 0 -15 6 -15 13 0 16 36 124 135
409 42 121 82 240 90 265 7 25 17 56 21 69 4 14 3 22 -2 18 -11 -6 -249 -67
-339 -87 -127 -27 -117 -21 -143 -86 -21 -53 -95 -265 -187 -535 -18 -52 -42
-118 -54 -145 l-22 -50 -82 -13 c-45 -7 -86 -17 -91 -22 -6 -5 -20 -9 -33 -9
-13 0 -23 -4 -23 -8 0 -4 -12 -8 -27 -9 -35 -2 -68 -8 -116 -21 -37 -10 -37
-10 -31 16 3 15 8 34 11 42 113 326 198 577 210 620 8 30 19 62 24 71 8 15 1
15 -64 -2 -40 -11 -81 -21 -92 -23 -39 -8 -80 -19 -90 -25 -11 -6 -28 -9 -68
-13 -16 -1 -31 -6 -33 -10 -3 -4 -16 -8 -28 -8 -13 0 -39 -7 -59 -15 -28 -11
-38 -24 -52 -62 -9 -26 -28 -77 -40 -113 -13 -36 -57 -162 -98 -280 -125 -359
-111 -333 -187 -347 -14 -2 -69 -15 -122 -29 -53 -13 -106 -24 -117 -24 -12 0
-21 -4 -21 -8 0 -4 -8 -8 -17 -9 -10 -1 -30 -4 -45 -7 -25 -6 -26 -5 -17 21 5
16 43 129 85 253 100 297 164 491 164 497 0 3 -6 0 -13 -6 -8 -6 -17 -8 -20
-4 -4 3 -7 1 -7 -4 0 -6 -8 -10 -17 -9 -10 2 -35 -3 -55 -10 -21 -7 -55 -15
-75 -18 -21 -2 -51 -9 -68 -16 -16 -6 -45 -13 -65 -14 -19 -2 -48 -9 -63 -15
-16 -6 -36 -11 -45 -11 -9 0 -22 -4 -29 -8 -13 -8 -55 -112 -106 -262 -47
-139 -162 -468 -175 -502 -6 -15 -19 -27 -29 -28 -53 -2 -71 -6 -66 -12 2 -5
-5 -8 -16 -8 -39 0 -120 -23 -114 -33 3 -6 1 -7 -6 -3 -6 4 -47 -2 -91 -13
-44 -12 -84 -21 -90 -21 -14 0 -7 26 62 230 129 379 179 533 175 536 -2 2 -29
-3 -61 -11 -31 -8 -68 -15 -82 -15 -14 0 -23 -4 -20 -8 3 -5 0 -9 -7 -9 -7 0
-46 -8 -86 -17 -105 -24 -151 -30 -151 -18 0 6 24 15 53 22 97 22 217 61 217
70 0 5 -16 21 -35 36 -19 14 -35 33 -35 41 0 8 -11 31 -25 51 -14 20 -25 44
-25 54 0 9 -5 20 -11 24 -6 3 -8 16 -5 28 5 19 4 19 -8 4 -7 -10 -16 -15 -19
-12 -6 6 16 34 26 34 10 0 156 92 167 105 7 8 16 15 20 15 5 0 43 20 84 45 42
25 79 45 81 45 3 0 5 -17 5 -38 0 -21 9 -88 19 -148 11 -60 23 -134 26 -164 4
-30 9 -58 11 -62 3 -4 35 1 72 11 95 26 208 52 241 56 16 2 54 11 85 20 31 9
69 18 86 20 16 2 58 13 93 24 35 10 81 22 103 25 21 4 71 17 109 30 71 23 121
37 300 80 l100 24 16 88 c9 49 26 148 38 219 29 176 69 410 89 525 l17 94 83
49 c46 27 81 51 79 53 -6 6 -57 -18 -57 -27 0 -5 -58 -34 -90 -44 -3 -1 -13
-5 -23 -10 -20 -8 -18 -10 -448 213 -270 139 -317 159 -325 137 -4 -8 -10 -12
-15 -9 -5 3 -9 0 -9 -6 0 -6 -4 -8 -10 -5 -5 3 -10 -2 -10 -11 0 -10 -3 -14
-6 -11 -7 6 -63 -21 -74 -35 -3 -3 -12 -8 -20 -10 -8 -2 -19 -8 -25 -15 -5 -6
-19 -13 -29 -15 -11 -2 -30 -13 -43 -24 -13 -12 -37 -24 -54 -28 -17 -3 -28
-10 -25 -15 4 -5 -10 -15 -29 -22 -55 -20 -81 -1 250 -176 94 -50 225 -118
293 -153 67 -35 122 -67 122 -70 0 -4 -39 -31 -87 -60 -49 -30 -99 -62 -112
-72 -13 -10 -26 -16 -30 -14 -3 3 -33 -14 -66 -36 l-60 -40 -180 91 c-99 50
-235 120 -303 155 -67 36 -153 79 -191 96 -64 30 -72 31 -100 19 -17 -8 -31
-17 -31 -21 0 -5 -4 -8 -9 -8 -6 0 -38 -17 -73 -37 -95 -56 -137 -80 -200
-110 -32 -16 -58 -34 -58 -41 0 -17 20 -28 383 -218 174 -91 317 -168 317
-170 0 -9 -82 -54 -89 -49 -5 2 -14 -2 -21 -10 -7 -9 -43 -32 -79 -52 -36 -20
-92 -52 -124 -71 l-57 -35 -213 109 c-116 60 -282 144 -369 188 l-156 78 -56
-28 c-31 -15 -52 -32 -49 -38 3 -6 3 -8 -2 -4 -4 4 -20 -1 -34 -10 -14 -10
-37 -23 -51 -30 -27 -13 -59 -31 -230 -132 -63 -38 -127 -74 -142 -81 -16 -7
-28 -16 -28 -20 0 -4 -8 -10 -17 -13 -49 -17 -117 -107 -109 -147 2 -8 6 -32
11 -54 7 -38 36 -97 60 -121 6 -7 19 -33 29 -58 10 -25 21 -46 25 -46 5 0 16
-19 27 -42 10 -24 23 -46 28 -49 4 -4 6 -11 3 -15 -3 -5 1 -18 9 -29 14 -19
14 -19 14 1 0 10 -7 41 -15 68 -43 143 4 203 189 241 43 9 89 20 103 26 13 5
32 9 40 9 14 0 14 -3 -3 -19 -10 -10 -22 -17 -25 -15 -9 5 -113 -30 -121 -41
-4 -5 -8 -7 -8 -2 0 10 -53 -18 -69 -37 -7 -8 -20 -12 -29 -9 -12 3 -13 2 -4
-4 9 -7 7 -14 -8 -31 -23 -24 -26 -94 -9 -172 5 -25 11 -54 13 -65 2 -11 16
-64 31 -119 26 -99 30 -156 9 -163 -7 -2 -17 17 -25 47 -7 27 -16 50 -21 50
-7 0 -13 -71 -8 -95 1 -5 4 -27 7 -47 3 -23 10 -35 16 -31 6 4 8 0 5 -9 -4 -8
4 -55 16 -104 13 -49 24 -118 25 -154 3 -81 15 -107 69 -143 23 -15 42 -36 42
-44 0 -16 18 -93 165 -688 67 -269 130 -530 271 -1105 25 -102 56 -228 70
-280 13 -52 44 -178 69 -280 122 -505 179 -729 197 -767 45 -95 144 -177 252
-208 79 -23 153 -16 343 30 81 20 267 66 413 101 146 36 364 89 485 119 121
30 330 81 465 114 135 33 346 85 470 115 124 30 347 85 495 121 149 36 365 89
480 117 116 28 214 55 220 60 5 5 -8 25 -32 51 -79 81 -69 119 67 243 52 48
133 124 180 168 47 45 218 205 380 356 162 151 331 308 375 350 171 164 373
348 394 359 12 7 40 11 64 10 80 -4 106 19 121 106 10 60 25 92 52 110 29 19
30 37 4 134 -26 100 -110 446 -110 453 0 3 26 -1 58 -8 31 -8 60 -14 64 -14 4
0 10 17 14 38 7 44 68 291 119 487 20 77 56 217 80 310 44 170 100 389 156
605 37 140 81 312 148 570 78 305 128 497 155 600 13 52 49 192 80 310 80 314
121 468 160 618 20 74 36 141 36 150 0 13 -27 23 -123 46 -67 16 -165 40 -217
53 -52 13 -100 23 -107 23 -6 0 -14 -15 -18 -32 -4 -18 -27 -116 -51 -218 -25
-102 -58 -241 -75 -310 -16 -69 -39 -160 -50 -202 -10 -42 -23 -96 -28 -120
-11 -56 -159 -671 -275 -1148 -25 -102 -61 -252 -81 -335 -20 -82 -59 -242
-86 -355 -28 -113 -55 -226 -62 -252 -6 -27 -13 -48 -17 -48 -3 0 -6 -8 -7
-17 -1 -10 -4 -34 -6 -53 -2 -19 -5 -42 -6 -50 -1 -12 -4 -11 -12 3 -6 10 -8
24 -5 32 3 8 0 16 -7 19 -9 5 -9 7 1 12 10 4 10 9 2 19 -8 10 -8 19 0 35 6 12
10 44 7 71 -2 28 -1 52 3 54 11 7 10 116 -1 137 -8 14 -7 28 1 49 9 20 9 33 2
42 -5 6 -15 43 -20 80 -6 37 -19 82 -30 100 -10 18 -25 51 -32 75 -7 23 -19
42 -27 42 -10 0 -12 6 -8 20 4 12 2 20 -5 20 -6 0 -9 -3 -6 -8 2 -4 -3 -16
-11 -27 -15 -19 -15 -19 -9 5 3 14 6 33 6 43 0 11 4 15 12 11 7 -4 8 -3 4 4
-11 18 -26 14 -26 -5 0 -10 -5 -25 -10 -33 -8 -11 -9 -8 -4 13 7 30 2 34 -19
12 -13 -13 -16 -13 -21 1 -3 8 -2 12 4 9 6 -3 10 -2 10 3 0 6 -7 12 -15 16
-20 7 -20 79 -1 96 28 22 47 92 38 135 -6 29 -3 61 9 115 10 41 27 120 39 175
23 107 59 277 90 415 10 47 30 139 45 205 14 66 35 158 45 205 11 47 44 200
75 340 30 140 64 293 75 340 76 337 83 370 77 370 -9 0 -408 88 -441 97 -18 5
-19 1 -12 -62z m-646 -3177 c3 -24 -2 -28 -50 -41 -46 -13 -253 -67 -313 -81
-72 -18 -1179 -292 -1257 -312 -54 -13 -144 -36 -200 -50 -57 -14 -137 -34
-178 -45 -66 -16 -1583 -392 -1635 -404 -48 -12 -385 -97 -437 -110 -75 -20
-74 -20 -86 13 l-10 29 532 131 c292 73 574 143 626 156 216 56 321 82 865
216 314 78 613 152 665 165 52 13 142 36 200 50 58 15 139 35 180 45 363 93
1077 268 1085 266 6 -1 11 -14 13 -28z m-4641 -738 c8 -25 23 -92 35 -150 11
-58 24 -109 28 -115 4 -5 11 -32 15 -60 4 -27 12 -63 19 -80 7 -16 19 -59 25
-95 19 -98 60 -276 83 -355 29 -101 46 -177 65 -285 9 -52 20 -96 24 -98 4 -2
5 -12 2 -22 -3 -11 0 -20 6 -20 6 0 11 -8 11 -18 0 -10 6 -38 14 -63 7 -24 21
-80 31 -124 10 -44 20 -84 23 -89 3 -5 6 -21 7 -35 1 -14 14 -80 30 -146 15
-66 27 -128 27 -137 0 -9 6 -22 14 -29 8 -6 14 -25 14 -42 0 -31 18 -105 31
-122 4 -5 10 -39 14 -73 4 -35 13 -76 21 -90 8 -15 14 -33 14 -41 0 -16 21
-109 46 -204 12 -45 13 -61 4 -73 -7 -7 -16 -12 -20 -9 -15 9 -49 90 -62 145
-6 30 -15 57 -19 60 -3 3 -9 29 -13 59 -4 30 -14 80 -23 110 -8 31 -15 65 -15
76 1 11 -3 22 -8 25 -5 3 -16 39 -25 80 -35 156 -54 237 -70 290 -9 30 -21 79
-27 108 -5 28 -14 52 -19 52 -5 0 -9 15 -9 33 0 19 -8 63 -19 98 -18 61 -51
193 -72 289 -6 25 -14 54 -19 65 -5 11 -15 49 -21 85 -7 36 -17 74 -22 85 -6
11 -14 36 -18 55 -33 152 -52 228 -59 245 -5 11 -11 34 -15 50 -29 142 -37
170 -50 178 -9 4 -13 13 -9 18 8 14 -5 81 -15 75 -4 -3 -6 5 -4 17 5 30 -54
259 -70 269 -9 6 -8 8 3 8 13 0 13 1 0 10 -13 9 -12 12 5 26 11 8 33 14 50 12
25 -3 31 -9 42 -48z m4846 -87 c3 -16 4 -29 2 -31 -5 -5 -103 -30 -680 -172
-313 -78 -613 -152 -665 -165 -202 -51 -324 -82 -1245 -310 -522 -130 -1086
-270 -1253 -312 -166 -41 -304 -74 -306 -72 -2 2 -6 16 -9 30 -6 22 -3 28 16
33 12 3 357 89 767 191 410 102 788 196 840 210 52 13 352 88 665 165 314 77
615 152 670 166 55 14 145 37 200 51 55 13 134 33 175 44 394 99 788 197 801
198 11 1 19 -9 22 -26z m206 -825 c5 -13 6 -27 2 -31 -6 -6 -770 -199 -1236
-313 -38 -9 -74 -20 -78 -24 -8 -7 59 -300 113 -497 11 -39 20 -78 20 -86 0
-13 -47 -33 -56 -24 -2 2 -22 77 -44 168 -23 90 -52 205 -65 254 -14 50 -25
98 -25 107 0 9 -4 28 -9 41 l-10 25 -68 -19 c-37 -10 -376 -95 -752 -188 -376
-94 -685 -172 -687 -174 -6 -6 24 -139 86 -377 49 -188 53 -212 39 -221 -23
-14 -47 -10 -53 9 -2 9 -35 139 -71 287 -37 149 -70 273 -74 278 -4 4 -117
-20 -252 -53 -134 -34 -397 -99 -583 -146 -352 -87 -360 -88 -354 -40 3 20
-70 1 2468 632 476 118 937 233 1025 256 88 22 187 47 220 54 33 8 139 34 235
58 96 25 181 45 188 45 7 1 17 -9 21 -21z"/>
<path d="M12060 11770 c0 -15 7 -20 25 -20 29 0 31 6 11 26 -20 20 -36 17 -36
-6z"/>
<path d="M8770 11621 c0 -5 -22 -20 -50 -34 -27 -13 -47 -27 -44 -30 3 -3 -8
-8 -25 -12 -17 -4 -34 -11 -37 -17 -3 -5 -27 -19 -52 -29 -26 -11 -49 -24 -52
-28 -11 -16 -103 -60 -113 -54 -6 3 -7 1 -3 -5 4 -7 2 -12 -5 -12 -31 0 63
-53 386 -220 243 -125 324 -172 304 -178 -8 -3 -21 -10 -29 -17 -21 -17 -209
-125 -223 -128 -7 -1 -14 -4 -17 -7 -31 -31 -75 -51 -98 -45 -28 7 -146 65
-372 184 -317 167 -390 196 -390 159 0 -5 -4 -6 -10 -3 -5 3 -10 1 -10 -4 0
-6 -7 -11 -15 -11 -8 0 -15 -4 -15 -10 0 -5 -5 -10 -11 -10 -7 0 -60 -28 -118
-61 -58 -34 -119 -69 -136 -77 -16 -9 -33 -20 -36 -25 -3 -5 -9 -8 -13 -8 -3
1 -7 -2 -7 -6 -2 -10 48 -38 281 -160 266 -139 404 -213 415 -225 7 -8 5 -8
-5 -3 -8 5 -12 5 -8 0 4 -4 -13 -19 -39 -31 -26 -13 -54 -31 -63 -39 -9 -8
-21 -15 -27 -15 -6 0 -17 -8 -24 -17 -9 -11 4 -7 39 12 28 15 52 33 52 38 0 6
3 8 6 4 11 -10 418 213 536 294 31 21 58 39 61 39 7 0 271 150 282 161 5 5 14
9 21 9 10 0 100 50 359 199 99 57 146 90 128 91 -6 0 -18 -6 -25 -12 -7 -7
-21 -14 -30 -16 -15 -2 -295 135 -433 213 -93 52 -287 147 -310 151 -14 2 -25
0 -25 -5z"/>
<path d="M12676 11292 c-11 -37 -30 -105 -42 -152 -13 -47 -35 -125 -49 -175
-40 -142 -292 -1056 -331 -1200 -20 -71 -42 -150 -49 -175 -7 -25 -30 -106
-50 -180 -20 -74 -43 -155 -50 -180 -7 -25 -30 -106 -50 -180 -20 -74 -42
-155 -50 -180 -15 -52 -25 -90 -184 -665 -138 -500 -134 -485 -123 -485 16 0
91 59 106 82 8 13 31 86 51 163 20 77 47 178 60 225 13 47 25 94 28 105 3 11
32 121 66 245 34 124 75 275 91 335 17 61 48 178 71 260 22 83 49 182 59 220
22 86 51 193 91 338 17 62 37 135 44 162 7 28 38 145 70 260 31 116 63 233 70
260 7 28 30 111 50 185 21 74 43 158 50 185 7 28 39 145 70 260 101 370 96
336 45 348 -24 6 -27 3 -44 -61z"/>
<path d="M6323 10923 c-28 -5 -28 -5 -3 -157 11 -66 31 -197 46 -291 15 -93
28 -171 29 -173 2 -2 67 32 84 44 3 3 -21 156 -65 405 -13 75 -24 146 -24 158
0 21 -14 24 -67 14z"/>
<path d="M5615 10793 c-38 -6 -88 -15 -110 -18 -43 -6 -73 -11 -119 -21 -16
-3 -40 -8 -55 -10 -14 -1 -54 -11 -88 -20 -75 -20 -74 -15 -39 -196 14 -68 37
-188 51 -268 14 -80 35 -188 45 -240 10 -52 27 -140 36 -195 9 -55 19 -105 23
-112 4 -8 27 0 74 27 37 22 67 36 67 32 0 -4 5 1 10 10 6 9 36 31 68 49 84 47
222 128 263 155 l36 22 -13 64 c-13 61 -29 147 -94 528 -17 96 -33 183 -36
192 -6 20 -15 20 -119 1z"/>
<path d="M4420 10549 c-284 -62 -360 -81 -360 -87 0 -15 28 -141 45 -200 13
-44 21 -59 27 -50 6 9 7 6 3 -8 -6 -24 3 -56 15 -49 4 3 7 -13 6 -35 0 -22 2
-41 6 -43 4 -1 12 -24 17 -52 5 -27 13 -59 17 -69 6 -15 4 -17 -7 -11 -10 6
-9 3 2 -11 9 -10 19 -28 21 -39 3 -11 9 -29 13 -40 5 -16 5 -17 -4 -5 -16 22
-13 4 4 -30 8 -16 13 -39 11 -52 -1 -13 3 -32 10 -43 7 -11 16 -39 20 -63 5
-30 10 -39 15 -30 6 9 8 3 7 -17 -1 -17 2 -37 6 -44 5 -8 3 -17 -5 -22 -12 -8
-12 -11 1 -19 8 -5 11 -10 5 -10 -5 0 -4 -4 4 -9 10 -6 14 -30 15 -74 1 -36 4
-60 8 -54 3 6 9 -7 13 -29 4 -21 10 -50 15 -64 5 -14 12 -49 15 -77 4 -29 10
-53 15 -53 4 0 13 -28 19 -62 30 -170 36 -198 43 -198 4 0 8 -9 8 -21 0 -13 4
-18 12 -13 8 5 9 -3 5 -30 -3 -20 -2 -34 2 -32 4 3 7 -15 6 -40 0 -24 3 -44 6
-44 7 0 25 -78 21 -92 -1 -4 3 -20 9 -35 19 -48 36 -122 27 -117 -15 9 -8 -13
8 -27 8 -7 13 -21 11 -31 -3 -10 0 -18 6 -18 7 0 5 -5 -3 -10 -12 -7 -12 -10
-1 -10 7 0 11 -6 8 -14 -3 -7 -1 -18 5 -24 5 -5 12 -29 14 -52 2 -24 8 -48 14
-55 5 -7 11 -35 12 -62 2 -28 7 -49 12 -46 4 3 5 -10 1 -28 -5 -26 -4 -31 5
-19 9 12 10 10 8 -10 -1 -14 1 -30 5 -37 11 -17 31 -123 42 -213 2 -19 4 -37
5 -40 0 -3 5 2 11 10 8 12 9 10 4 -7 -3 -13 -2 -23 3 -23 6 0 8 -8 5 -18 -2
-11 3 -36 11 -57 9 -20 13 -41 10 -46 -3 -5 4 -30 15 -55 23 -51 26 -68 11
-59 -6 4 -6 -4 0 -21 6 -15 9 -33 6 -40 -3 -7 1 -14 7 -17 7 -3 12 -22 12 -45
0 -22 2 -39 5 -37 4 2 12 -24 19 -58 7 -34 17 -78 23 -97 5 -19 15 -60 23 -90
7 -30 18 -74 24 -98 6 -24 9 -47 6 -53 -4 -5 -1 -9 4 -9 6 0 11 -15 11 -34 0
-19 5 -38 10 -41 6 -3 10 -18 10 -33 0 -15 7 -49 16 -77 8 -27 17 -59 19 -70
8 -52 25 -127 30 -135 3 -5 7 -21 10 -37 2 -15 7 -48 11 -73 4 -25 11 -51 17
-57 6 -9 6 -13 -1 -13 -5 0 -8 -9 -5 -20 3 -11 9 -17 14 -14 16 9 10 -5 -10
-23 -17 -16 -18 -24 -9 -73 25 -133 47 -242 51 -246 2 -2 51 5 108 16 285 56
365 72 370 76 4 2 -4 48 -17 101 -14 54 -33 143 -45 198 -11 55 -31 152 -44
215 -13 63 -38 180 -55 260 -17 80 -37 177 -45 215 -8 39 -28 135 -45 215 -17
80 -39 188 -50 240 -10 52 -31 149 -45 215 -14 66 -35 163 -45 215 -11 52 -33
160 -50 240 -42 199 -67 318 -90 430 -69 338 -65 323 -115 411 -89 154 -114
208 -110 236 2 16 4 33 4 40 1 7 14 27 31 46 l29 34 -30 144 c-16 79 -36 176
-44 214 -8 39 -30 147 -50 240 -20 94 -42 202 -50 240 -8 39 -26 124 -40 190
-14 66 -25 123 -25 127 0 13 -50 7 -190 -23z m27 -1631 c-3 -8 -6 -5 -6 6 -1
11 2 17 5 13 3 -3 4 -12 1 -19z"/>
<path d="M3365 10330 c-38 -10 -87 -19 -109 -19 l-39 -1 6 -37 c4 -20 14 -41
23 -46 10 -6 13 -12 6 -16 -7 -4 -8 -12 -2 -21 8 -12 10 -11 12 5 1 11 2 27 4
35 1 8 2 21 3 28 1 6 7 12 15 12 8 0 16 6 19 14 3 7 20 16 39 19 53 11 126 32
134 40 12 12 -36 6 -111 -13z"/>
<path d="M3266 10124 c4 -36 17 -54 39 -54 6 0 4 4 -3 8 -7 5 -15 22 -18 38
-8 45 -24 52 -18 8z"/>
<path d="M3280 10050 c0 -6 7 -10 15 -10 8 0 15 2 15 4 0 2 -7 6 -15 10 -8 3
-15 1 -15 -4z"/>
<path d="M3290 10015 c7 -8 9 -15 5 -15 -4 0 -2 -6 4 -13 6 -8 8 -16 6 -19 -8
-8 13 -58 24 -58 5 0 3 12 -4 27 -10 19 -11 29 -4 34 13 7 -17 59 -33 59 -6 0
-5 -6 2 -15z"/>
<path d="M3321 9885 c0 -11 3 -26 8 -33 7 -11 9 -11 14 2 4 9 2 16 -3 16 -5 0
-11 8 -13 18 -4 14 -5 14 -6 -3z"/>
<path d="M3336 9819 c5 -8 9 -20 9 -28 0 -8 6 -16 14 -19 10 -3 11 0 5 9 -5 8
-9 20 -9 28 0 8 -6 16 -14 19 -10 3 -11 0 -5 -9z"/>
<path d="M3358 9754 c-9 -8 12 -64 23 -64 5 0 9 6 9 13 -1 19 -25 58 -32 51z"/>
<path d="M3377 9655 c2 -11 6 -33 9 -49 2 -17 8 -32 12 -35 4 -3 9 -19 10 -34
1 -15 6 -36 12 -46 5 -10 6 -21 3 -25 -3 -3 -1 -6 6 -6 8 0 10 7 6 21 -4 12
-9 29 -10 38 -2 9 -4 16 -5 16 -1 0 -3 14 -5 30 -4 50 -17 95 -25 90 -5 -3
-10 0 -13 7 -2 7 -2 4 0 -7z"/>
<path d="M3426 9428 c8 -27 12 -33 19 -27 7 8 -7 49 -17 49 -5 0 -6 -10 -2
-22z"/>
<path d="M3444 9374 c1 -9 10 -20 18 -25 14 -8 15 -6 5 16 -13 28 -26 33 -23
9z"/>
<path d="M3450 9330 c0 -5 5 -10 11 -10 5 0 7 5 4 10 -3 6 -8 10 -11 10 -2 0
-4 -4 -4 -10z"/>
<path d="M3463 9294 c-3 -9 2 -29 11 -46 10 -16 15 -36 12 -44 -3 -7 -1 -14 5
-14 5 0 9 -6 7 -13 -2 -7 2 -13 7 -14 6 0 9 4 7 10 -2 7 -4 21 -5 32 0 11 -5
26 -10 32 -5 7 -6 20 -3 29 4 11 2 15 -8 11 -10 -4 -12 0 -9 14 6 23 -5 26
-14 3z"/>
<path d="M3511 9124 c0 -11 3 -14 6 -6 3 7 2 16 -1 19 -3 4 -6 -2 -5 -13z"/>
<path d="M3517 9075 c3 -16 6 -35 6 -42 0 -7 4 -13 8 -13 5 0 6 -6 3 -13 -2
-7 -1 -24 4 -37 7 -19 10 -20 15 -7 4 10 2 17 -3 17 -5 0 -9 8 -8 18 3 39 -3
69 -17 88 -14 18 -15 17 -8 -11z"/>
<path d="M3555 8937 c-4 -10 -5 -21 -1 -24 10 -10 18 4 13 24 -4 17 -4 17 -12
0z"/>
<path d="M3572 8898 c-17 -17 -15 -54 4 -72 8 -9 12 -20 9 -26 -3 -5 -1 -10 4
-10 14 0 14 27 0 36 -6 3 -9 24 -7 45 2 22 3 39 3 39 -1 0 -6 -5 -13 -12z"/>
<path d="M3595 8735 c3 -8 8 -23 11 -32 4 -10 8 -27 10 -38 10 -69 17 -101 24
-108 11 -12 -1 85 -12 100 -5 7 -7 16 -4 21 7 12 -13 72 -25 72 -4 0 -6 -7 -4
-15z"/>
<path d="M3655 8501 c-3 -6 -2 -11 3 -11 5 0 8 -15 7 -32 -1 -18 2 -42 6 -53
6 -13 8 0 5 38 -4 60 -9 76 -21 58z"/>
<path d="M3686 8353 c4 -15 9 -32 13 -38 3 -5 4 -20 3 -32 -2 -11 2 -24 9 -28
7 -5 10 -3 7 6 -3 8 -1 24 3 37 6 15 5 21 -1 17 -6 -4 -13 7 -16 25 -4 17 -11
33 -16 36 -5 3 -6 -6 -2 -23z"/>
<path d="M3720 8240 c-8 -5 -12 -12 -9 -15 4 -3 12 1 19 10 14 17 11 19 -10 5z"/>
<path d="M4591 8214 c0 -11 3 -14 6 -6 3 7 2 16 -1 19 -3 4 -6 -2 -5 -13z"/>
<path d="M3726 8205 c-3 -9 1 -28 9 -43 14 -27 14 -27 8 13 -7 48 -9 51 -17
30z"/>
<path d="M3743 8113 c3 -5 8 -25 11 -47 7 -45 14 -58 26 -51 5 3 2 18 -6 33
-7 15 -14 37 -14 50 0 12 -5 22 -11 22 -5 0 -8 -3 -6 -7z"/>
<path d="M3776 7987 c3 -10 9 -15 12 -12 3 3 0 11 -7 18 -10 9 -11 8 -5 -6z"/>
<path d="M3793 7955 c-7 -8 -9 -16 -4 -19 5 -3 12 1 15 10 8 22 4 25 -11 9z"/>
<path d="M3790 7911 c0 -6 5 -13 10 -16 6 -3 10 1 10 9 0 9 -4 16 -10 16 -5 0
-10 -4 -10 -9z"/>
<path d="M3812 7884 c-8 -9 -10 -23 -6 -37 5 -12 7 -29 6 -37 -1 -10 0 -11 4
-2 3 6 10 10 15 6 5 -3 4 7 -1 22 -6 15 -8 35 -5 45 7 23 4 23 -13 3z"/>
<path d="M3830 7769 c0 -13 7 -46 15 -73 8 -26 12 -53 8 -59 -4 -6 -1 -7 6 -2
9 5 12 0 10 -16 -1 -13 1 -41 6 -63 6 -29 10 -35 16 -23 6 9 5 25 0 39 -5 13
-15 50 -22 83 -7 33 -15 65 -18 70 -3 6 -7 21 -9 35 -4 33 -12 39 -12 9z"/>
<path d="M3890 7487 c0 -13 3 -27 7 -31 4 -4 8 -15 8 -23 0 -9 6 -18 13 -20 9
-4 10 2 2 22 -6 15 -7 31 -4 37 5 7 2 8 -6 3 -9 -5 -10 -2 -5 14 4 12 2 21 -4
21 -6 0 -11 -10 -11 -23z"/>
<path d="M3928 7374 c-9 -8 13 -98 26 -106 8 -6 7 -8 -2 -8 -10 0 -10 -5 -1
-22 7 -12 13 -31 14 -43 4 -33 5 -35 15 -35 6 0 10 7 10 15 0 8 -6 15 -12 15
-9 0 -8 4 2 10 12 7 12 10 1 10 -8 0 -11 6 -7 16 3 8 2 13 -2 10 -4 -2 -8 14
-8 37 -1 23 -7 43 -13 45 -6 2 -8 14 -5 27 5 21 -7 41 -18 29z"/>
<path d="M11501 7142 c-117 -111 -132 -129 -118 -141 21 -17 24 -15 171 123
99 94 124 122 115 133 -6 7 -17 13 -23 13 -6 -1 -71 -58 -145 -128z"/>
<path d="M11650 7177 c-25 -23 -87 -81 -138 -129 -51 -47 -88 -89 -83 -93 11
-6 281 240 281 256 0 17 -15 9 -60 -34z"/>
<path d="M11590 7050 l-135 -129 27 -27 27 -27 116 109 c64 60 128 117 141
128 l25 19 -27 28 c-15 16 -30 29 -33 29 -3 0 -67 -59 -141 -130z"/>
<path d="M3986 7119 c4 -19 8 -44 8 -56 1 -13 5 -23 9 -23 4 0 7 -6 6 -12 -3
-29 4 -41 10 -18 5 14 4 33 -1 42 -4 9 -8 30 -8 46 0 16 -7 35 -15 42 -14 12
-15 9 -9 -21z"/>
<path d="M11679 6962 c-118 -109 -135 -129 -123 -142 15 -16 12 -18 169 132
45 43 89 84 100 92 17 12 16 46 -2 46 -4 -1 -69 -58 -144 -128z"/>
<path d="M11825 6982 c-197 -182 -227 -214 -217 -224 8 -8 32 7 84 55 211 192
211 192 197 204 -11 9 -25 2 -64 -35z"/>
<path d="M4025 6980 c-3 -16 -3 -36 2 -44 5 -10 9 1 10 30 2 51 -3 57 -12 14z"/>
<path d="M11779 6865 c-128 -119 -186 -185 -103 -117 75 61 249 230 243 236
-3 3 -66 -50 -140 -119z"/>
<path d="M11890 6887 c-36 -34 -98 -93 -139 -130 -49 -47 -70 -72 -63 -79 7
-7 54 31 146 117 75 70 136 131 136 136 0 23 -22 11 -80 -44z"/>
<path d="M4030 6900 c0 -5 5 -10 10 -10 6 0 10 -5 10 -11 0 -5 -4 -8 -9 -5 -5
4 -1 -17 9 -45 11 -28 19 -54 18 -58 -3 -15 15 -60 22 -56 4 3 1 23 -6 46 -8
22 -11 45 -8 51 4 7 2 8 -4 4 -7 -4 -10 6 -8 31 1 21 -3 44 -10 51 -15 15 -24
16 -24 2z"/>
<path d="M11866 6757 c-123 -117 -137 -134 -123 -146 19 -15 23 -13 188 141
96 89 106 102 96 119 -7 11 -14 19 -17 19 -3 -1 -67 -60 -144 -133z"/>
<path d="M11958 6672 c-75 -70 -136 -129 -137 -132 0 -3 10 -18 24 -34 l24
-29 135 127 c75 71 136 134 136 140 0 7 -10 22 -22 33 l-23 21 -137 -126z"/>
<path d="M4093 6702 c-13 -8 -13 -29 0 -49 5 -7 5 -13 2 -13 -3 0 1 -10 9 -22
19 -26 21 -42 4 -32 -6 4 -9 3 -6 -2 13 -23 21 -52 25 -87 2 -22 9 -51 14 -65
6 -15 10 -28 10 -29 0 -2 5 -17 11 -35 5 -18 11 -42 13 -53 2 -11 4 -20 5 -20
1 0 3 -14 5 -31 3 -45 12 -64 30 -64 13 0 14 4 5 20 -6 11 -8 20 -5 20 3 0 -1
13 -10 30 -8 16 -15 40 -15 54 0 14 -4 28 -10 31 -5 3 -10 22 -10 41 0 19 -5
34 -11 34 -5 0 -7 5 -4 10 4 6 -1 34 -9 64 -9 29 -18 72 -20 96 -2 23 -10 46
-17 51 -12 8 -12 10 0 18 11 7 11 9 0 14 -12 4 -11 7 1 16 17 12 1 15 -17 3z"/>
<path d="M12068 6502 c7 -5 28 -40 48 -78 54 -108 66 -129 76 -132 4 -2 8 -8
8 -14 0 -14 85 -167 133 -240 10 -16 15 -28 11 -28 -4 0 0 -8 8 -17 9 -10 31
-47 50 -83 19 -36 48 -87 64 -113 16 -27 34 -56 39 -65 6 -10 22 -38 38 -64
33 -56 35 -108 6 -149 -11 -16 -24 -29 -29 -29 -9 0 -72 -39 -96 -59 -7 -6
-15 -7 -18 -4 -3 4 -6 1 -6 -5 0 -6 -9 -9 -20 -7 -13 3 -18 0 -14 -7 5 -8 1
-9 -10 -5 -9 4 -15 3 -12 -1 3 -5 -25 -24 -62 -42 -37 -19 -69 -37 -72 -40
-10 -10 -32 -10 -67 -1 -24 7 -42 7 -56 0 -14 -8 -18 -8 -13 0 11 17 -3 13
-36 -10 -16 -12 -40 -45 -53 -74 -19 -43 -33 -60 -77 -87 -30 -18 -63 -39 -74
-46 -10 -6 -30 -17 -44 -23 -14 -6 -40 -22 -58 -35 -17 -14 -37 -22 -42 -19
-6 3 -10 2 -10 -3 0 -5 -17 -18 -37 -27 -21 -10 -57 -31 -81 -46 -24 -16 -45
-29 -48 -29 -2 0 -22 -11 -43 -24 -21 -14 -42 -22 -45 -19 -3 4 -6 1 -6 -6 0
-7 -4 -10 -9 -7 -5 3 -11 -1 -15 -9 -3 -8 -10 -15 -15 -15 -6 0 -44 -20 -84
-45 -41 -25 -78 -45 -82 -45 -4 0 -20 -9 -36 -21 -16 -11 -34 -17 -40 -13 -7
4 -9 3 -6 -3 3 -5 -11 -18 -31 -28 -20 -11 -39 -22 -42 -25 -14 -14 -68 -39
-73 -33 -4 3 -9 -2 -13 -11 -3 -9 -10 -16 -16 -16 -5 0 -36 -18 -69 -40 -33
-22 -57 -34 -53 -27 7 10 -19 -6 -36 -23 -3 -3 -29 -16 -57 -30 -29 -14 -53
-29 -53 -33 0 -5 -4 -5 -10 -2 -5 3 -10 2 -10 -2 0 -5 -17 -17 -37 -28 -21
-11 -40 -22 -43 -25 -3 -3 -25 -15 -50 -28 -129 -66 -260 -152 -260 -170 0
-10 128 51 165 79 6 4 91 53 190 109 99 57 194 110 210 120 17 10 95 55 175
100 132 75 235 133 315 180 151 87 397 227 425 242 19 10 75 42 125 71 85 50
90 56 110 107 29 76 59 93 150 85 67 -6 72 -5 130 30 32 20 86 51 120 69 129
70 204 120 214 143 24 53 44 11 -279 578 -78 138 -153 271 -165 296 -31 61
-73 109 -93 109 -13 0 -14 -2 -4 -8z"/>
<path d="M11241 6407 c-17 -17 -14 -27 29 -144 45 -118 44 -118 59 -109 7 5 7
15 0 33 -9 24 -5 31 33 70 39 40 46 43 79 38 69 -12 48 12 -49 54 -53 24 -107
49 -118 56 -16 10 -24 11 -33 2z m91 -58 l61 -31 -39 -39 c-21 -21 -41 -36
-45 -31 -9 9 -49 109 -49 122 0 14 4 13 72 -21z"/>
<path d="M11111 6287 c-8 -11 -2 -39 25 -116 19 -57 33 -105 31 -108 -3 -2
-48 14 -100 36 -108 46 -110 46 -126 27 -10 -11 0 -27 49 -80 40 -43 66 -63
76 -59 12 4 4 17 -32 54 -26 27 -46 51 -43 53 3 3 38 -8 78 -24 82 -34 91 -35
114 -17 15 11 14 19 -13 102 -17 49 -30 92 -30 94 0 3 31 -29 69 -70 48 -51
72 -71 80 -64 7 7 -14 37 -70 98 -45 48 -84 87 -89 87 -4 0 -13 -6 -19 -13z"/>
<path d="M11892 6177 c-89 -51 -162 -96 -162 -102 0 -5 4 -16 9 -24 7 -11 44
6 175 80 91 52 166 99 166 105 0 6 -6 16 -13 22 -10 9 -52 -11 -175 -81z"/>
<path d="M10706 6211 c-22 -22 -35 -44 -31 -51 5 -8 11 -8 21 1 12 10 23 4 59
-31 34 -34 48 -41 57 -32 8 8 2 22 -27 57 -26 33 -34 50 -27 57 11 11 6 38 -7
38 -4 0 -24 -18 -45 -39z"/>
<path d="M12065 6191 c-6 -5 -30 -20 -55 -33 -91 -51 -244 -139 -249 -143 -2
-3 3 -7 11 -10 9 -4 54 17 104 45 49 29 121 70 161 93 40 22 70 44 67 49 -7
11 -27 10 -39 -1z"/>
<path d="M4208 6184 c-4 -3 -2 -20 3 -37 5 -18 9 -43 9 -56 0 -42 41 -111 83
-142 37 -26 47 -29 121 -28 45 0 97 3 117 7 l37 7 -32 94 -31 94 -110 1 c-91
1 -116 4 -142 21 -18 10 -33 25 -33 32 0 13 -12 17 -22 7z"/>
<path d="M10612 6124 l-43 -36 53 -57 53 -56 -31 -3 c-16 -2 -42 2 -57 7 -23
9 -27 16 -27 52 0 40 -1 41 -18 26 -13 -12 -17 -26 -14 -49 5 -32 4 -32 -14
-17 -20 18 -44 15 -44 -5 0 -6 22 -34 49 -60 35 -35 54 -47 67 -42 16 6 15 8
-5 29 -29 32 -27 36 16 27 34 -8 39 -6 94 43 32 29 59 60 59 70 0 24 -9 22
-42 -10 -23 -22 -28 -24 -33 -10 -4 9 2 24 15 37 16 16 19 25 11 33 -8 8 -17
4 -35 -12 -32 -30 -46 -8 -15 25 15 16 19 28 13 34 -7 7 -24 -2 -52 -26z"/>
<path d="M11955 6069 c-88 -51 -162 -93 -164 -95 -4 -4 31 -74 37 -74 3 0 243
138 299 172 l32 19 -16 35 c-9 18 -19 34 -22 34 -3 0 -78 -41 -166 -91z"/>
<path d="M10835 6028 l-56 -53 41 -47 c23 -27 45 -48 50 -48 13 0 109 104 104
112 -3 5 -27 -10 -53 -32 -26 -22 -50 -40 -52 -40 -3 0 -15 13 -27 30 l-22 29
45 42 c44 40 55 59 35 59 -5 0 -34 -24 -65 -52z"/>
<path d="M12035 5969 c-185 -106 -185 -106 -179 -124 4 -8 10 -15 14 -15 9 0
309 167 323 180 8 7 -1 40 -12 40 -3 0 -69 -37 -146 -81z"/>
<path d="M12054 5882 c-83 -48 -152 -90 -153 -95 -8 -28 11 -27 70 5 243 132
294 168 248 175 -8 1 -82 -37 -165 -85z"/>
<path d="M10401 5924 c-41 -34 -42 -75 -2 -115 16 -16 39 -29 51 -29 24 0 80
51 80 72 -1 46 -44 49 -45 2 0 -24 -5 -30 -26 -32 -35 -4 -65 38 -48 69 8 15
17 19 34 15 31 -8 44 13 20 31 -25 18 -29 17 -64 -13z"/>
<path d="M10736 5932 c-8 -14 51 -92 71 -92 21 0 15 15 -25 61 -26 28 -41 39
-46 31z"/>
<path d="M12175 5889 c-111 -65 -187 -108 -222 -126 -31 -16 -44 -33 -24 -33
5 0 54 25 108 57 54 31 126 72 161 90 34 19 62 39 62 44 0 15 -12 11 -85 -32z"/>
<path d="M12230 5852 c-25 -15 -96 -56 -159 -92 -108 -61 -142 -90 -108 -90
13 0 64 26 177 93 19 11 59 34 87 49 57 32 70 45 56 59 -5 5 -27 -3 -53 -19z"/>
<path d="M10302 5837 c-14 -16 83 -121 105 -113 8 3 13 10 11 15 -3 10 -97
111 -102 111 -2 0 -8 -6 -14 -13z"/>
<path d="M10596 5805 c-14 -10 -12 -15 13 -39 18 -18 31 -24 35 -17 4 6 4 16
1 21 -4 6 7 10 27 10 34 0 79 19 48 20 -8 1 -36 5 -61 9 -31 5 -52 4 -63 -4z"/>
<path d="M10236 5771 c-22 -22 -35 -44 -31 -51 5 -8 11 -8 21 1 12 10 23 4 59
-31 34 -34 48 -41 57 -32 8 8 2 21 -25 52 -40 43 -43 50 -27 66 8 8 7 14 -3
22 -10 9 -22 3 -51 -27z"/>
<path d="M12153 5717 c-89 -51 -163 -97 -163 -103 0 -6 6 -17 14 -23 10 -9 48
8 172 80 88 50 161 92 162 94 6 6 -9 45 -16 45 -4 -1 -80 -42 -169 -93z"/>
<path d="M10535 5750 c-10 -16 26 -53 39 -40 7 7 4 17 -11 31 -14 15 -23 18
-28 9z"/>
<path d="M12220 5609 c-85 -49 -159 -90 -164 -92 -14 -5 29 -73 43 -69 10 2
307 168 321 179 5 5 -31 73 -39 72 -3 0 -76 -41 -161 -90z"/>
<path d="M10421 5644 c-48 -40 -37 -47 22 -13 66 39 66 39 34 39 -14 0 -39
-12 -56 -26z"/>
<path d="M11421 5541 c-11 -7 -12 -28 -1 -126 6 -65 14 -124 17 -132 9 -22 28
-9 28 20 1 31 14 46 72 77 42 23 43 23 63 5 15 -14 23 -16 32 -7 9 9 5 16 -13
31 -13 10 -58 46 -99 80 -82 66 -79 65 -99 52z m104 -95 c33 -28 34 -26 -22
-54 -47 -25 -47 -25 -58 63 l-8 58 29 -21 c16 -12 42 -33 59 -46z"/>
<path d="M10815 5449 c-49 -28 -94 -55 -100 -60 -6 -6 2 -31 24 -70 18 -33 31
-62 28 -65 -2 -3 -23 3 -46 12 l-42 17 6 49 c7 48 6 49 -13 37 -11 -7 -24 -29
-27 -48 -7 -36 -7 -36 -22 -14 -12 18 -19 20 -33 13 -17 -9 -16 -14 19 -73 41
-66 67 -81 64 -34 -2 31 -2 31 30 16 21 -9 34 -5 93 26 84 46 85 47 75 64 -7
11 -14 10 -39 -3 -23 -12 -33 -13 -38 -4 -4 6 -3 13 3 15 6 2 19 10 29 18 27
19 6 42 -24 26 -47 -25 -58 -5 -12 22 16 10 28 23 26 30 -1 7 -1 9 1 5 3 -5
15 -5 27 -2 19 4 27 -3 49 -45 19 -34 32 -48 42 -44 22 8 18 28 -11 75 -25 39
-25 42 -9 54 15 12 14 34 -3 34 -4 0 -47 -23 -97 -51z"/>
<path d="M11278 5456 c-16 -12 -17 -23 -8 -121 6 -59 9 -109 8 -110 -2 -2 -43
26 -91 61 -64 47 -93 63 -107 59 -11 -4 -20 -11 -20 -17 0 -21 115 -208 127
-208 15 0 17 21 5 36 -5 5 -26 40 -47 79 -32 57 -35 67 -17 55 12 -8 53 -37
92 -64 92 -65 97 -60 83 76 -6 57 -9 104 -8 106 2 2 24 -35 50 -82 45 -83 57
-97 70 -77 5 9 -99 206 -114 215 -3 2 -14 -1 -23 -8z"/>
<path d="M10950 5272 c-36 -21 -65 -42 -65 -48 0 -15 109 -204 118 -204 18 0
137 75 137 87 0 17 1 17 -61 -17 -30 -16 -57 -30 -61 -30 -3 0 -15 15 -26 34
l-21 35 56 31 c39 22 52 35 45 42 -7 7 -26 1 -61 -20 l-50 -31 -21 37 c-12 20
-18 38 -13 39 33 12 113 66 108 73 -9 15 -14 13 -85 -28z"/>
<path d="M10488 5264 c-38 -20 -46 -59 -22 -103 27 -50 62 -60 108 -32 28 18
36 29 36 52 0 37 -27 39 -40 4 -14 -37 -39 -43 -61 -14 -34 45 -16 76 36 63
27 -7 42 11 25 31 -16 19 -47 18 -82 -1z"/>
<path d="M10382 5201 c-11 -7 -6 -22 24 -75 37 -63 55 -78 69 -56 7 11 -61
140 -73 140 -4 0 -13 -4 -20 -9z"/>
<path d="M10816 5192 c-2 -4 16 -43 41 -86 24 -43 43 -80 40 -82 -2 -3 -48 16
-102 41 -98 45 -129 53 -140 35 -3 -5 20 -57 53 -114 45 -81 62 -102 73 -96
11 7 11 14 3 27 -36 60 -85 153 -80 153 3 0 56 -23 118 -50 91 -42 114 -48
124 -38 11 11 3 32 -47 116 -56 96 -71 113 -83 94z"/>
<path d="M10303 5158 c-35 -19 -50 -34 -46 -44 3 -8 13 -12 27 -9 17 5 26 -3
49 -45 29 -52 36 -57 54 -39 8 8 3 25 -19 62 -27 47 -28 52 -13 63 11 8 14 18
8 27 -7 12 -17 10 -60 -15z"/>
<path d="M10586 5061 c-8 -13 106 -211 121 -211 22 0 15 20 -44 122 -55 95
-66 108 -77 89z"/>
<path d="M10462 4993 c-18 -9 -42 -28 -53 -42 -51 -65 18 -201 102 -201 34 0
87 27 105 55 26 40 20 110 -9 99 -8 -3 -11 -18 -9 -43 3 -32 -1 -42 -23 -60
-16 -12 -42 -21 -62 -21 -29 0 -37 6 -64 48 -36 57 -36 96 3 125 33 24 73 25
99 1 15 -14 22 -15 32 -5 9 10 6 17 -16 37 -33 28 -59 30 -105 7z"/>
<path d="M4675 2887 c-96 -25 -125 -56 -151 -158 -19 -72 -15 -306 5 -372 19
-60 65 -105 128 -123 67 -19 284 -17 304 3 16 16 21 74 7 90 -7 9 -47 13 -132
13 -138 0 -157 7 -177 68 -17 49 -17 246 0 294 23 68 46 78 187 78 124 0 124
0 130 25 9 34 -2 71 -23 80 -36 13 -227 15 -278 2z"/>
<path d="M11055 2890 c-12 -4 -26 -14 -32 -22 -10 -12 -61 -181 -123 -408 -10
-36 -27 -100 -39 -142 -11 -43 -21 -82 -21 -88 0 -6 27 -10 64 -10 l64 0 11
48 c7 26 18 71 27 100 l15 52 115 0 c131 0 117 11 149 -115 l20 -80 63 -3 c54
-3 62 -1 62 15 0 19 -17 85 -70 273 -18 63 -36 133 -42 155 -5 22 -20 78 -34
123 -23 76 -29 85 -60 98 -36 15 -136 18 -169 4z m105 -117 c0 -5 14 -57 30
-118 16 -60 30 -113 30 -117 0 -5 -39 -8 -86 -8 -73 0 -85 2 -80 15 3 9 13 44
21 78 31 124 45 157 66 157 10 0 19 -3 19 -7z"/>
<path d="M5765 2877 c-3 -7 -4 -156 -3 -332 l3 -320 65 0 65 0 3 333 2 332
-65 0 c-44 0 -67 -4 -70 -13z"/>
<path d="M6720 2555 l0 -335 65 0 65 0 0 217 c0 186 2 215 14 203 8 -8 67 -94
131 -190 154 -229 155 -230 222 -230 l53 0 0 335 0 335 -65 0 -65 0 0 -207 -1
-208 -22 26 c-12 15 -77 108 -145 208 l-123 181 -65 0 -64 0 0 -335z"/>
<path d="M8092 2558 l3 -333 228 -3 227 -2 0 60 0 60 -160 0 -160 0 0 80 0 80
145 0 145 0 0 55 0 55 -145 0 -145 0 0 85 0 85 160 0 160 0 0 55 0 55 -230 0
-230 0 2 -332z"/>
<path d="M9386 2878 c-3 -11 -14 -122 -55 -548 -5 -52 -6 -99 -2 -103 5 -4 35
-7 67 -5 l59 3 7 90 c4 50 12 146 19 215 11 116 13 122 25 95 13 -28 81 -203
126 -322 l19 -53 58 0 58 0 63 163 c34 89 70 178 78 197 15 34 16 34 20 10 2
-14 12 -108 21 -210 l17 -185 58 -3 c33 -2 62 1 66 5 7 8 4 60 -30 398 -11
110 -21 214 -23 230 -2 30 -2 30 -73 33 -49 2 -74 -1 -81 -10 -5 -7 -45 -106
-89 -220 -43 -115 -81 -208 -84 -208 -6 0 -24 43 -136 340 -14 36 -28 72 -33
80 -11 20 -149 27 -155 8z"/>
<path d="M6463 1723 c-60 -12 -91 -109 -77 -236 5 -45 14 -68 34 -91 25 -27
35 -31 97 -34 128 -7 163 31 163 178 0 113 -15 155 -64 175 -33 14 -103 18
-153 8z m130 -85 c25 -30 24 -157 -2 -189 -25 -31 -96 -33 -117 -4 -14 19 -19
139 -8 182 12 43 92 50 127 11z"/>
<path d="M7025 1718 c-3 -8 -4 -90 -3 -183 l3 -170 35 0 35 0 5 114 5 113 79
-116 c75 -110 81 -117 110 -114 l31 3 0 180 0 180 -35 0 -35 0 -5 -108 -5
-108 -75 108 c-67 96 -79 108 -108 111 -20 2 -34 -2 -37 -10z"/>
<path d="M7680 1546 l0 -186 115 0 115 0 0 35 0 35 -80 0 -79 0 -3 148 -3 147
-32 3 -33 3 0 -185z"/>
<path d="M8240 1545 l0 -185 35 0 35 0 0 185 0 185 -35 0 -35 0 0 -185z"/>
<path d="M8667 1723 c-4 -3 -7 -87 -7 -185 l0 -178 35 0 35 0 0 115 c0 63 3
115 8 115 4 -1 41 -51 82 -113 67 -100 79 -112 108 -115 l32 -3 0 186 0 186
-32 -3 -33 -3 -5 -110 -5 -110 -69 100 c-38 55 -76 106 -84 113 -17 13 -54 16
-65 5z"/>
<path d="M9314 1717 c-2 -7 -3 -89 -2 -182 l3 -170 123 -3 123 -3 -3 33 -3 33
-88 3 -88 3 3 37 3 37 83 3 82 3 0 29 0 29 -82 3 -83 3 -3 43 -3 42 90 0 91 0
0 35 0 35 -120 0 c-89 0 -122 -3 -126 -13z"/>
</g>
</svg>
