<?xml version="1.0" standalone="no"?>
<!DOCTYPE svg PUBLIC "-//W3C//DTD SVG 20010904//EN"
 "http://www.w3.org/TR/2001/REC-SVG-20010904/DTD/svg10.dtd">
<svg version="1.0" xmlns="http://www.w3.org/2000/svg"
 width="1600.000000pt" height="1066.000000pt" viewBox="0 0 1600.000000 1066.000000"
 preserveAspectRatio="xMidYMid meet">

<g transform="translate(0.000000,1066.000000) scale(0.100000,-0.100000)"
fill="#000000" stroke="none">
<path d="M0 5330 l0 -5330 8000 0 8000 0 0 5330 0 5330 -8000 0 -8000 0 0
-5330z m7272 3725 c-12 -26 -41 -35 -43 -12 -2 22 3 42 14 55 8 11 13 10 25
-2 13 -12 13 -20 4 -41z m-4679 -66 c11 -7 32 -22 45 -34 23 -22 24 -26 13
-67 -7 -23 -16 -58 -21 -76 -13 -52 -37 -72 -85 -72 -61 0 -89 33 -86 102 3
61 34 123 71 144 31 17 36 17 63 3z m8651 -295 c36 -35 27 -104 -13 -104 -35
0 -53 49 -37 98 9 26 28 28 50 6z m-4266 -266 c5 -7 13 -27 16 -44 4 -17 21
-45 38 -63 27 -28 32 -40 36 -101 4 -70 4 -70 -30 -103 -20 -17 -45 -53 -56
-79 -29 -67 -70 -86 -146 -68 -43 10 -64 10 -103 1 l-48 -13 -32 37 c-35 40
-37 54 -48 247 -5 88 -3 111 10 131 20 31 56 47 108 48 23 0 51 4 62 9 32 14
181 12 193 -2z m6071 -144 c26 -44 20 -70 -19 -79 -57 -12 -96 37 -71 91 17
39 64 33 90 -12z m-8370 -193 c28 -38 26 -65 -4 -85 -37 -24 -81 -21 -89 7
-10 36 -7 61 10 85 22 31 58 28 83 -7z m-1176 -187 c26 -15 33 -76 12 -108
-16 -25 -22 -26 -105 -26 -95 0 -114 8 -126 55 -12 50 29 86 111 95 52 6 78 2
108 -16z m9405 -38 c-2 -12 -7 -21 -12 -21 -11 0 -27 51 -18 59 10 11 33 -18
30 -38z m-6048 -56 c22 -12 16 -45 -12 -65 -39 -27 -69 9 -42 51 18 26 26 29
54 14z m-6123 -150 c10 -11 25 -20 35 -20 10 0 23 9 30 20 32 51 78 -8 78
-100 0 -56 -24 -92 -60 -92 -77 1 -180 25 -180 43 0 5 -9 9 -19 9 -57 0 -65
26 -21 64 17 14 37 41 46 61 12 29 19 35 44 35 18 0 37 -8 47 -20z m13814
-409 c-13 -24 -41 -28 -41 -6 0 8 6 24 12 35 11 17 15 18 26 6 11 -11 11 -18
3 -35z m-13585 12 c-10 -10 -19 5 -10 18 6 11 8 11 12 0 2 -7 1 -15 -2 -18z
m13700 -285 c28 -25 78 -124 71 -142 -8 -20 -57 -8 -57 14 0 10 -4 20 -8 22
-14 6 -62 96 -62 117 0 24 22 19 56 -11z m-7607 -125 c23 -27 55 -81 72 -122
34 -82 31 -95 -27 -107 -27 -5 -34 -2 -53 24 -40 57 -79 156 -86 220 l-6 63
29 -15 c17 -9 48 -37 71 -63z m1829 -67 c-20 -32 -38 -46 -38 -31 0 9 31 68
44 84 23 29 18 -16 -6 -53z m1849 -533 c-3 -10 -5 -4 -5 12 0 17 2 24 5 18 2
-7 2 -21 0 -30z m-6722 -143 c-24 -27 -95 -60 -128 -60 -34 0 -34 7 0 34 39
30 73 44 112 45 33 1 34 1 16 -19z m1005 -10 c0 -5 -7 -10 -16 -10 -8 0 -12 5
-9 10 3 6 10 10 16 10 5 0 9 -4 9 -10z m-333 -66 c66 -43 115 -104 85 -104
-15 0 -96 58 -147 105 -48 44 -49 46 -20 40 17 -4 53 -22 82 -41z m-3007 -54
c0 -5 -4 -10 -10 -10 -5 0 -10 5 -10 10 0 6 5 10 10 10 6 0 10 -4 10 -10z m37
4 c-3 -3 -12 -4 -19 -1 -8 3 -5 6 6 6 11 1 17 -2 13 -5z m3123 -121 c5 -7 10
-17 10 -24 0 -6 -13 5 -30 26 -16 21 -30 43 -30 49 1 6 10 0 20 -14 11 -14 24
-30 30 -37z m2716 -96 c9 -45 24 -109 34 -142 23 -78 36 -170 22 -161 -13 8
-71 191 -82 264 -6 31 -10 82 -9 112 0 69 11 46 35 -73z m-2610 -41 c54 -59
109 -167 125 -244 13 -67 8 -208 -9 -252 -10 -25 -10 -25 -27 14 -9 21 -21 64
-26 95 -11 68 -48 161 -107 265 -32 54 -47 94 -50 129 l-5 50 29 -7 c16 -3 47
-26 70 -50z m-2545 -51 c22 -46 21 -75 -1 -34 -14 26 -30 79 -24 79 2 0 13
-20 25 -45z m8513 4 c-10 -16 -24 -9 -24 12 0 18 2 19 15 9 8 -7 12 -16 9 -21z
m-10154 -123 c13 -36 -6 -34 -25 4 -8 16 -15 37 -15 47 0 15 2 15 15 -4 8 -11
19 -33 25 -47z m259 -41 c-9 -9 -200 -47 -206 -41 -11 10 4 18 59 32 51 12
156 19 147 9z m5337 -82 c3 -24 4 -46 1 -49 -3 -4 -8 11 -12 32 -3 22 -10 53
-15 69 -9 27 -8 28 5 11 8 -10 17 -39 21 -63z m-4700 -447 c5 -177 4 -257 -3
-253 -17 11 -40 563 -27 665 l8 67 7 -110 c4 -60 10 -227 15 -369z m5971 412
c-3 -8 -6 -5 -6 6 -1 11 2 17 5 13 3 -3 4 -12 1 -19z m-1238 -93 c20 -46 20
-48 3 -30 -11 11 -22 35 -26 54 -8 43 -4 39 23 -24z m-5747 -45 c5 -36 2 -37
-22 -7 -13 15 -15 26 -8 34 14 18 25 8 30 -27z m-82 1 c14 -28 12 -36 -5 -21
-12 10 -15 9 -15 -6 0 -13 -3 -15 -11 -7 -12 12 -3 53 11 53 5 0 14 -9 20 -19z
m160 9 c0 -5 -5 -10 -11 -10 -5 0 -7 5 -4 10 3 6 8 10 11 10 2 0 4 -4 4 -10z
m158 -82 c9 -15 13 -30 9 -34 -11 -11 -47 27 -47 48 0 26 18 19 38 -14z
m11679 -94 c43 -46 42 -79 -2 -79 -25 0 -34 7 -52 40 -12 22 -22 48 -22 58 -2
30 39 20 76 -19z m-4827 -310 c0 -8 -4 -12 -10 -9 -5 3 -10 10 -10 16 0 5 5 9
10 9 6 0 10 -7 10 -16z m25 -113 c12 -44 14 -66 6 -74 -16 -16 -51 68 -51 123
0 39 2 42 15 30 8 -8 22 -44 30 -79z m-3859 -1912 c18 -11 48 -39 66 -62 18
-23 53 -65 79 -94 87 -97 157 -212 189 -310 65 -202 45 -317 -48 -282 -37 14
-104 93 -126 147 -72 184 -124 292 -188 389 -83 125 -99 201 -45 223 32 13 36
12 73 -11z"/>
</g>
</svg>
