<?xml version="1.0" standalone="no"?>
<!DOCTYPE svg PUBLIC "-//W3C//DTD SVG 20010904//EN"
 "http://www.w3.org/TR/2001/REC-SVG-20010904/DTD/svg10.dtd">
<svg version="1.0" xmlns="http://www.w3.org/2000/svg"
 width="1201.000000pt" height="1201.000000pt" viewBox="0 0 1201.000000 1201.000000"
 preserveAspectRatio="xMidYMid meet">

<g transform="translate(0.000000,1201.000000) scale(0.100000,-0.100000)"
fill="#000000" stroke="none">
<path d="M0 6005 l0 -6005 6005 0 6005 0 0 6005 0 6005 -6005 0 -6005 0 0
-6005z m6690 3835 c279 -32 527 -104 825 -240 267 -121 308 -133 430 -127 170
8 246 59 292 197 l22 65 105 3 c58 1 106 0 106 -3 0 -3 -45 -259 -101 -568
-55 -309 -136 -762 -180 -1006 -43 -244 -81 -447 -84 -451 -7 -11 -192 -13
-199 -1 -3 5 3 62 14 128 93 537 -43 1028 -375 1358 -265 263 -611 410 -1050
446 -159 13 -445 0 -615 -27 -631 -101 -985 -415 -1051 -933 -13 -104 -4 -248
22 -351 40 -157 116 -279 258 -420 209 -206 418 -327 1110 -647 646 -298 904
-439 1176 -643 399 -299 649 -671 734 -1095 65 -323 49 -682 -44 -988 -176
-581 -608 -1023 -1247 -1276 -516 -205 -1205 -279 -1770 -191 -319 49 -510
117 -955 341 -393 198 -445 217 -579 206 -157 -14 -281 -88 -359 -217 -37 -62
-85 -189 -85 -226 0 -24 0 -24 -110 -24 -109 0 -110 0 -105 23 2 12 66 371
140 797 75 426 181 1030 235 1341 55 312 100 570 100 573 0 3 49 6 110 6 83 0
108 -3 105 -12 -12 -38 -26 -291 -25 -486 0 -237 16 -425 51 -595 175 -865
710 -1394 1539 -1522 143 -22 515 -31 710 -16 718 55 1117 269 1278 686 104
271 90 627 -34 865 -19 36 -63 104 -99 152 -192 255 -513 462 -1260 813 -484
227 -774 383 -1005 539 -459 310 -732 662 -840 1079 -45 174 -54 256 -54 467
0 266 35 452 128 683 247 607 806 1046 1561 1222 142 34 413 74 574 85 150 10
468 5 601 -10z m3160 -5212 c284 -71 502 -295 581 -593 29 -112 29 -289 0
-400 -76 -284 -273 -486 -558 -571 -118 -35 -305 -38 -428 -5 -232 61 -432
222 -530 426 -57 118 -77 211 -77 350 0 146 22 240 86 370 170 343 553 518
926 423z"/>
</g>
</svg>
