<?xml version="1.0" standalone="no"?>
<!DOCTYPE svg PUBLIC "-//W3C//DTD SVG 20010904//EN"
 "http://www.w3.org/TR/2001/REC-SVG-20010904/DTD/svg10.dtd">
<svg version="1.0" xmlns="http://www.w3.org/2000/svg"
 width="1600.000000pt" height="853.000000pt" viewBox="0 0 1600.000000 853.000000"
 preserveAspectRatio="xMidYMid meet">

<g transform="translate(0.000000,853.000000) scale(0.100000,-0.100000)"
fill="#000000" stroke="none">
<path d="M0 5630 c0 -2337 2 -2901 13 -2907 7 -4 20 -20 29 -35 10 -14 44 -53
78 -85 33 -33 60 -66 60 -74 0 -8 9 -21 20 -29 11 -8 20 -22 20 -32 0 -21 16
-24 23 -5 3 6 6 1 7 -13 1 -36 25 -64 50 -57 16 4 20 0 20 -19 0 -21 4 -24 40
-24 22 0 40 5 40 10 0 6 5 10 10 10 6 0 10 -9 10 -21 0 -15 4 -19 16 -15 9 3
18 6 20 6 2 0 4 11 4 25 0 14 4 25 9 25 5 0 21 25 37 56 33 65 62 84 98 64 21
-11 27 -10 40 3 11 11 12 17 4 19 -6 2 40 3 103 3 64 -1 124 -7 136 -14 12 -6
33 -11 47 -11 14 0 28 -5 31 -11 4 -5 18 -14 31 -19 13 -5 24 -16 24 -25 0 -8
5 -15 10 -15 6 0 10 -6 10 -14 0 -28 44 -97 65 -100 11 -3 45 -10 77 -17 31
-6 66 -9 77 -6 16 4 21 0 21 -13 0 -15 6 -17 38 -13 33 4 39 2 51 -21 8 -14
23 -26 33 -26 10 0 18 -4 18 -9 0 -6 9 -8 20 -6 12 2 20 -2 20 -9 0 -8 18 -21
40 -30 22 -9 40 -21 40 -28 0 -9 -4 -8 -11 2 -9 13 -10 13 -6 0 2 -8 11 -14
19 -12 9 1 18 -4 22 -13 3 -8 12 -15 20 -15 8 0 17 -6 19 -12 3 -7 6 -4 6 7 1
17 4 15 16 -9 8 -15 12 -32 9 -37 -3 -5 2 -9 10 -9 9 0 16 -4 16 -9 0 -5 9
-11 21 -14 13 -4 18 -10 14 -17 -6 -9 -2 -9 14 0 13 6 19 16 14 23 -18 31 -97
106 -106 100 -6 -4 -7 -1 -2 7 4 7 3 15 -1 19 -29 20 -304 351 -421 506 -290
386 -481 724 -539 955 -16 64 -18 178 -4 200 7 11 10 -5 10 -52 0 -106 33
-213 118 -385 283 -575 966 -1373 1696 -1982 300 -250 676 -495 869 -566 64
-24 52 -31 -15 -10 -61 20 -281 124 -340 161 -22 14 -49 27 -61 30 -11 2 -23
7 -26 12 -14 19 -79 62 -95 62 -10 0 -14 5 -10 12 4 7 3 8 -4 4 -7 -4 -12 -2
-12 3 0 6 -7 11 -16 11 -8 0 -13 4 -10 9 4 5 -4 7 -16 3 -13 -3 -17 -7 -10
-10 9 -3 10 -8 3 -16 -7 -8 -4 -12 10 -13 12 -1 17 3 13 10 -3 7 6 -1 20 -18
14 -16 33 -29 42 -27 9 2 13 -1 10 -7 -8 -12 27 -32 46 -28 7 2 10 2 6 0 -4
-3 -3 -16 3 -29 6 -16 5 -32 -1 -44 -7 -14 -6 -23 6 -34 9 -9 17 -32 18 -50 4
-45 50 -117 95 -147 34 -23 197 -183 252 -248 15 -16 30 -27 34 -23 5 4 5 1 1
-5 -9 -17 8 -50 18 -34 4 6 12 11 18 11 6 0 3 -10 -8 -21 -47 -53 26 4 132
103 128 120 160 148 150 131 -4 -7 -2 -13 3 -13 6 0 10 -3 9 -7 -3 -15 14 -43
23 -37 5 3 6 -2 3 -10 -4 -11 0 -16 10 -16 10 0 16 -9 16 -25 0 -16 6 -25 15
-25 9 0 20 -12 25 -28 6 -15 15 -36 21 -46 6 -11 13 -33 16 -50 5 -39 23 -86
32 -86 4 0 5 -14 3 -31 -3 -23 -7 -28 -14 -18 -6 10 -8 2 -4 -22 8 -47 -20
-179 -41 -194 -12 -9 26 -13 182 -18 259 -9 10943 -9 11495 0 329 5 419 9 407
18 -9 7 -14 15 -10 18 3 4 -1 7 -10 7 -9 0 -28 17 -43 37 -15 21 -41 52 -58
69 -70 71 -156 171 -156 180 0 3 -18 22 -40 41 -22 20 -40 45 -40 55 0 10 -5
18 -11 18 -14 0 -69 55 -69 69 0 6 -6 11 -14 11 -8 0 -16 7 -20 15 -3 8 -12
15 -20 15 -9 0 -13 6 -10 13 3 9 -13 23 -43 38 -26 13 -50 26 -53 29 -3 3 -21
17 -40 30 -79 53 -167 157 -191 224 -7 20 -16 36 -20 36 -4 0 -10 12 -14 27
-7 28 -51 87 -105 142 -17 16 -30 32 -30 36 0 3 -16 19 -35 36 -19 17 -38 42
-41 55 -3 13 -11 24 -16 24 -8 0 -50 36 -82 70 -6 7 -27 29 -47 49 -19 21 -38
45 -42 54 -3 9 -24 29 -46 44 -22 16 -40 32 -41 36 0 14 -44 67 -55 67 -6 0
-19 16 -29 35 -10 18 -32 44 -47 56 -16 12 -29 27 -29 34 0 6 -11 18 -25 25
-14 7 -25 17 -25 22 0 4 -7 16 -16 26 -34 37 -64 77 -64 85 0 4 -6 7 -13 7 -7
0 -21 14 -30 30 -10 17 -22 30 -28 30 -5 0 -9 4 -9 10 0 10 -25 37 -210 229
-61 62 -110 116 -110 118 0 3 -14 22 -30 42 -47 56 -50 60 -50 68 0 4 -17 15
-38 25 -20 9 -53 23 -72 32 -33 15 -78 45 -166 111 -21 16 -58 53 -81 81 -49
62 -123 195 -123 223 0 11 -4 23 -10 26 -5 3 -10 19 -10 36 0 16 -5 29 -10 29
-12 0 -100 90 -100 101 0 4 -13 16 -30 26 -16 9 -30 21 -30 26 0 19 -54 77
-71 77 -11 0 -28 9 -39 20 -11 11 -22 20 -25 20 -6 0 -65 40 -75 50 -11 11
-69 40 -77 38 -16 -4 -51 13 -57 27 -3 8 -17 15 -30 15 -25 0 -49 9 -151 55
-27 12 -90 28 -140 35 -49 7 -94 13 -100 15 -5 1 -19 -2 -30 -8 -24 -13 -115
-17 -115 -5 0 9 -50 -12 -68 -29 -16 -16 -32 -17 -32 -2 0 7 -17 9 -52 4 -28
-4 -73 -7 -100 -7 -26 0 -48 -4 -48 -8 0 -9 -67 -6 -100 5 -16 5 -20 2 -20
-14 0 -23 -14 -25 -150 -24 -50 0 -68 -4 -80 -17 -14 -16 -18 -16 -35 -4 -23
17 -36 18 -33 2 2 -9 -14 -14 -49 -16 -32 -2 -53 1 -53 7 0 15 -92 6 -128 -13
-16 -8 -31 -13 -34 -11 -2 3 -19 0 -37 -5 -25 -7 -39 -5 -57 7 -21 13 -27 14
-46 1 -48 -31 -137 -27 -160 6 -6 8 -11 6 -17 -3 -7 -11 -35 -15 -121 -15 -64
0 -114 5 -118 10 -8 13 -115 14 -123 2 -3 -4 -26 -11 -52 -14 -38 -5 -47 -4
-47 8 0 12 -15 15 -72 14 -40 0 -109 3 -153 8 -44 4 -98 7 -120 6 -87 -5 -166
7 -183 28 -10 14 -16 14 -32 4 -17 -10 -20 -10 -20 3 0 14 -21 19 -75 18 -11
0 -22 2 -25 6 -14 17 -54 31 -89 31 -26 0 -43 6 -49 16 -5 9 -32 18 -70 24
-39 5 -69 16 -83 29 -13 12 -29 21 -37 21 -19 0 -166 51 -172 60 -3 4 -36 22
-75 41 -38 19 -76 39 -83 44 -39 30 -202 196 -202 205 0 7 -6 10 -13 7 -8 -3
-20 4 -28 15 -8 11 -20 26 -26 34 -7 7 -13 19 -13 26 0 7 -14 19 -31 27 -19 8
-28 18 -25 27 3 8 -1 17 -8 20 -8 3 -20 28 -27 55 -7 27 -16 49 -20 49 -4 0
-10 16 -13 36 -4 19 -14 38 -22 41 -9 3 -14 19 -14 44 0 27 -4 39 -14 39 -14
0 -36 71 -56 181 -5 26 -14 56 -21 67 -10 16 -10 26 -1 46 10 23 9 26 -8 26
-19 0 -20 7 -20 93 1 115 13 177 37 194 10 7 23 16 28 21 6 4 18 11 28 15 12
4 17 17 17 42 0 30 3 35 23 35 12 0 28 9 35 20 7 11 21 20 32 20 22 0 25 7 10
30 -6 10 -10 11 -10 3 0 -7 -7 -13 -15 -13 -8 0 -15 4 -15 8 0 12 32 27 113
53 39 14 63 27 58 32 -5 5 -16 5 -27 -1 -84 -43 -354 -106 -304 -71 11 8 12
12 3 16 -15 6 -17 65 -3 93 6 11 14 29 20 40 8 16 7 18 -7 13 -40 -15 4 20 93
74 l95 58 -94 5 c-79 4 -100 9 -130 30 -41 28 -63 70 -52 97 11 26 9 74 -4
106 -24 61 49 139 146 154 21 3 44 10 51 16 8 6 17 5 27 -3 9 -7 18 -10 22 -6
3 3 0 6 -8 6 -12 0 -11 2 1 11 13 9 12 10 -2 5 -10 -3 -20 -1 -23 4 -4 6 3 10
14 10 17 0 21 6 21 30 0 17 0 33 -1 36 0 4 5 11 13 15 8 6 9 12 3 17 -12 9
-13 48 -1 59 5 4 6 2 2 -4 -4 -7 -2 -13 3 -13 6 0 11 6 11 14 0 8 21 25 46 38
l46 23 -34 8 c-18 4 -40 16 -49 26 -12 15 -25 18 -60 14 -38 -4 -50 -1 -74 20
-24 20 -30 33 -30 67 0 36 6 47 33 70 17 14 32 36 32 47 0 18 24 56 55 89 7 7
20 14 31 18 11 3 7 4 -8 2 -17 -2 -28 2 -28 9 0 17 25 37 35 27 5 -4 5 -2 1 5
-4 7 -14 9 -23 6 -11 -4 -14 -3 -9 5 4 7 3 12 -1 12 -5 0 -15 17 -22 38 -8 20
-19 40 -24 44 -7 4 -6 12 2 22 10 12 10 16 1 16 -7 0 -10 12 -8 31 2 25 -2 33
-27 47 -128 71 -207 140 -210 184 -1 10 -10 24 -20 32 -13 9 -15 15 -6 20 9 6
9 11 0 22 -6 8 -9 23 -6 34 3 11 2 22 -2 24 -4 3 -7 19 -6 37 0 28 4 34 32 41
42 11 48 23 28 54 -16 25 -13 64 6 64 5 0 9 9 9 20 0 11 5 20 10 20 6 0 10 16
10 36 0 28 8 43 40 74 26 25 40 47 40 64 0 14 4 26 9 26 5 0 22 14 39 31 23
24 42 32 84 38 53 6 53 7 50 39 -1 23 -15 46 -42 75 -22 22 -40 45 -40 49 0 4
-7 8 -15 8 -8 0 -34 13 -57 29 -24 16 -46 28 -49 25 -3 -2 -14 5 -24 16 -16
18 -17 29 -9 88 9 66 9 68 -21 105 -16 21 -47 55 -67 75 -21 21 -38 43 -38 49
0 7 -8 18 -18 25 -26 18 -40 69 -46 170 -4 72 -2 93 15 124 24 49 24 51 -6 83
-58 61 -65 69 -65 80 0 8 -1023 11 -4080 11 l-4080 0 0 -2900z m4242 1920
c165 -165 265 -272 256 -275 -7 -2 -82 -24 -166 -48 l-152 -44 -78 -74 c-102
-98 -581 -559 -757 -729 -77 -74 -203 -196 -280 -270 -77 -75 -217 -211 -311
-303 -95 -92 -175 -167 -178 -167 -3 0 350 355 785 790 l791 790 -34 38 c-18
22 -133 147 -256 280 l-222 241 42 6 c42 6 250 32 276 34 8 1 135 -120 284
-269z m-611 168 c12 -22 20 -186 33 -653 l7 -220 -102 -105 c-57 -58 -185
-190 -286 -295 l-183 -190 0 430 -1 430 -35 -40 c-19 -22 -123 -147 -230 -278
l-195 -238 2 -202 c2 -193 1 -205 -24 -277 -14 -41 -33 -102 -42 -135 -9 -33
-28 -93 -42 -133 -14 -39 -22 -80 -19 -89 4 -10 4 -14 0 -10 -4 4 -16 -16 -26
-45 -27 -79 -40 -86 -65 -41 -34 61 -99 260 -118 365 l-19 98 -34 -82 c-52
-126 -75 -244 -69 -358 2 -52 11 -113 20 -135 54 -141 67 -178 64 -182 -10 -9
-297 465 -297 490 0 31 -76 -60 764 912 883 1020 870 1005 878 1005 4 0 13
-10 19 -22z m3782 -106 c36 -33 48 -68 38 -113 -14 -63 -49 -92 -108 -91 -40
0 -52 5 -75 31 -34 38 -37 87 -7 125 28 36 45 33 20 -3 -26 -37 -26 -52 0 -85
18 -22 28 -26 72 -25 l52 1 -32 14 c-58 25 -73 63 -52 138 10 36 12 38 42 32
17 -3 39 -14 50 -24z m-1113 -386 c0 -7 17 -18 38 -24 21 -6 51 -25 67 -42 23
-24 29 -39 29 -78 1 -46 1 -47 -31 -47 -22 0 -38 -7 -48 -22 -41 -58 -145 -5
-145 74 0 37 31 103 49 103 4 0 11 14 15 31 5 29 26 33 26 5z m-146 -121 c-9
-14 -12 -33 -8 -49 4 -16 2 -26 -5 -26 -16 0 -13 -57 4 -84 9 -13 33 -31 56
-41 34 -16 46 -17 91 -6 67 15 73 7 14 -20 -68 -30 -118 -19 -173 36 -46 45
-53 76 -28 109 9 12 15 42 15 79 0 32 5 68 11 79 11 20 12 19 25 -17 11 -32
10 -41 -2 -60z m635 -347 c12 -10 21 -28 21 -40 0 -16 -5 -19 -24 -16 -17 4
-32 -3 -51 -24 -34 -36 -59 -37 -53 -3 4 19 1 25 -11 25 -23 0 -41 20 -41 45
0 30 2 31 74 32 51 0 69 -4 85 -19z m1057 -1 c79 -42 112 -137 66 -194 -12
-15 -28 -43 -36 -61 -9 -18 -27 -37 -43 -43 -33 -12 -86 -4 -107 16 -12 13
-19 10 -49 -20 -27 -27 -43 -35 -71 -35 -86 0 -137 111 -82 177 15 18 24 38
20 47 -7 18 46 76 70 76 11 0 13 -8 9 -34 -4 -29 -1 -37 21 -51 23 -15 31 -16
54 -5 27 12 27 12 5 21 -23 8 -53 56 -53 83 0 44 128 58 196 23z m-1244 -31
c-2 -18 1 -37 7 -40 6 -4 11 -24 11 -45 0 -49 27 -75 70 -69 19 3 29 1 27 -6
-2 -6 -22 -12 -44 -14 -34 -3 -44 1 -62 25 -14 17 -20 35 -17 48 3 12 -1 31
-10 43 -15 22 -12 54 8 80 14 17 14 16 10 -22z m-987 -196 c3 -5 17 -10 30
-10 35 0 85 -65 85 -110 0 -40 -23 -80 -46 -80 -8 0 -13 -4 -9 -10 10 -16 -51
-40 -100 -40 -87 0 -131 80 -90 160 9 17 17 30 19 30 3 0 12 3 22 7 14 5 11
-2 -9 -29 -15 -19 -27 -43 -27 -52 0 -33 30 -76 58 -82 15 -3 33 -8 41 -10 21
-7 82 7 75 17 -3 5 -14 9 -25 9 -11 0 -34 14 -51 30 -28 29 -30 35 -26 90 5
70 33 112 53 80z m2985 -92 c0 -11 -28 -10 -35 1 -3 6 4 9 15 8 11 -1 20 -5
20 -9z m-3644 -93 c24 -75 231 -712 239 -733 3 -8 19 -2 52 22 27 18 68 44 93
56 67 33 130 98 130 133 0 43 48 87 95 87 l37 0 -32 -30 c-21 -20 -30 -36 -26
-47 4 -10 -2 -25 -15 -40 -28 -29 -18 -29 81 -3 117 31 135 22 30 -14 -199
-69 -324 -133 -388 -199 l-32 -33 21 -68 22 -68 46 5 46 5 -37 -19 c-21 -11
-38 -27 -38 -36 0 -12 219 -695 301 -938 12 -33 82 -259 134 -430 49 -159 68
-266 61 -329 -14 -109 -81 -206 -204 -293 -51 -37 -166 -103 -179 -103 -1 0 9
17 23 38 24 33 26 44 22 112 -4 61 -20 121 -86 315 -104 307 -182 550 -597
1875 -253 805 -223 720 -248 711 -22 -9 -243 -107 -347 -154 -30 -14 -336
-149 -680 -302 -344 -152 -694 -308 -779 -346 -85 -38 -156 -68 -158 -66 -2 2
36 22 84 44 49 23 300 141 558 263 259 122 502 237 540 255 39 18 117 55 175
82 417 198 585 276 622 290 37 13 306 33 393 29 15 -1 24 -17 41 -71z m1469
55 c15 -16 16 -24 7 -43 -6 -12 -12 -31 -14 -42 -5 -30 -62 -28 -66 3 -2 12 2
22 8 22 7 0 5 6 -4 16 -19 19 -21 50 -3 57 27 11 55 6 72 -13z m2165 0 c0 13
1 13 10 0 6 -9 5 -17 -3 -22 -11 -7 -27 8 -27 27 0 6 5 3 10 -5 9 -13 10 -13
10 0z m-2270 -34 c0 -8 -9 -17 -19 -21 -65 -20 -40 -69 42 -80 51 -6 51 -7 27
-20 -32 -18 -62 -18 -104 -1 -49 20 -57 54 -20 83 16 12 36 29 44 37 20 19 30
19 30 2z m904 -29 c10 -12 23 -21 28 -19 19 5 48 -9 48 -24 0 -8 12 -19 27
-25 39 -15 63 -39 63 -63 0 -18 6 -21 48 -22 48 0 107 -19 136 -43 13 -11 20
-11 41 3 13 9 38 16 55 16 21 0 30 5 30 16 0 8 13 29 29 45 23 23 39 29 70 29
23 0 41 -4 41 -10 0 -5 5 -10 12 -10 48 0 66 -88 23 -116 -18 -12 -23 -22 -19
-42 11 -63 -73 -132 -161 -132 -38 0 -45 -3 -45 -20 0 -10 -16 -32 -35 -47
-19 -15 -35 -35 -35 -44 0 -39 -108 -95 -162 -85 -31 6 -36 -5 -13 -24 8 -7
15 -21 15 -32 0 -16 3 -17 20 -8 34 18 93 8 105 -17 6 -14 18 -23 33 -23 27 0
45 -39 36 -76 -5 -18 -2 -24 10 -24 8 0 25 -13 37 -30 18 -23 26 -27 40 -20
47 26 78 1 57 -45 -12 -26 -44 -33 -66 -15 -9 7 -9 7 -2 -2 6 -7 10 -15 10
-19 0 -16 -33 -39 -55 -39 -15 0 -26 -7 -30 -20 -4 -13 -15 -20 -32 -20 -55 0
-85 66 -43 92 31 20 24 38 -14 38 -22 0 -51 -12 -85 -35 l-51 -35 -35 34 -35
35 24 16 c14 9 28 29 31 45 8 35 -19 97 -45 105 -11 4 -22 23 -30 53 -6 26
-20 62 -31 80 -24 42 -24 52 1 52 29 0 78 27 90 49 26 50 -10 111 -65 111 -14
0 -33 13 -48 34 -28 36 -72 61 -129 71 -31 6 -41 3 -61 -18 l-25 -24 -6 29
c-3 16 -1 38 5 49 13 26 4 54 -26 77 -26 21 -23 32 7 32 13 0 18 7 18 25 0 46
27 95 62 110 44 20 107 11 132 -18z m-428 -33 c60 -61 45 -131 -34 -151 -35
-8 -57 9 -58 46 0 21 -8 37 -22 47 -46 32 -13 94 50 94 18 0 40 -12 64 -36z
m-945 -56 c-17 -30 -31 -62 -31 -71 0 -8 -9 -19 -20 -22 -52 -17 -65 -69 -30
-128 25 -43 18 -94 -16 -109 -13 -6 -30 -29 -40 -52 -16 -39 -17 -40 -27 -18
-14 30 14 92 42 92 31 0 34 30 7 59 -48 51 -56 112 -19 154 9 9 24 17 33 17
10 0 24 19 37 49 14 33 32 57 54 70 18 11 35 19 37 17 2 -2 -10 -28 -27 -58z
m174 -29 c5 -15 16 -19 47 -19 33 0 46 -6 72 -34 l32 -33 27 19 c17 12 46 21
75 22 26 1 57 8 69 14 12 7 34 12 49 12 l27 0 -26 -20 c-19 -15 -102 -40 -133
-40 -14 0 0 -59 17 -74 16 -13 20 -26 17 -52 -3 -23 0 -34 8 -34 21 0 45 -42
33 -56 -9 -11 -17 -9 -42 9 -18 12 -34 25 -37 29 -11 14 -103 28 -137 22 l-36
-7 18 31 c18 30 18 33 0 86 -20 59 -40 75 -73 57 -20 -11 -62 -4 -62 10 0 5 6
9 14 9 21 0 28 32 16 65 -9 24 -9 26 4 16 9 -7 18 -21 21 -32z m906 -85 c7 -9
23 -20 36 -25 53 -20 52 -151 -2 -165 -39 -10 -58 -1 -92 44 -33 43 -47 112
-22 112 5 0 7 5 4 10 -20 32 51 54 76 24z m-203 -54 c15 -16 33 -30 41 -30 28
0 61 -42 61 -76 0 -18 -4 -36 -10 -39 -5 -3 -10 2 -10 13 0 28 -33 53 -79 59
-33 5 -41 10 -41 27 0 11 -7 30 -15 40 -20 27 -19 36 6 36 11 0 33 -13 47 -30z
m-188 -28 c19 -20 38 -29 61 -29 19 0 38 -7 48 -19 9 -10 28 -27 44 -37 64
-41 13 -147 -72 -147 -43 0 -51 9 -26 30 32 26 2 100 -40 100 -8 0 -15 8 -15
17 0 40 -67 72 -86 41 -10 -16 -26 30 -19 53 10 31 70 25 105 -9z m-1225 -97
c17 -4 38 -14 48 -22 23 -21 23 -63 -1 -63 -9 0 -23 -9 -30 -20 -15 -24 -58
-26 -90 -4 -26 18 -30 65 -7 84 8 7 15 19 15 27 0 9 7 13 18 10 9 -3 31 -8 47
-12z m-132 -106 c-3 -43 -1 -50 22 -65 25 -16 60 -16 110 1 l20 7 -20 -17
c-30 -24 -62 -29 -106 -16 -43 13 -65 42 -51 67 5 9 6 31 2 48 -9 42 -2 63 15
40 8 -11 11 -36 8 -65z m2152 56 c0 -13 -8 -21 -24 -23 -28 -4 -46 11 -37 33
9 25 61 16 61 -10z m657 -9 c52 -34 55 -111 6 -163 -33 -35 -118 -73 -164 -73
-22 0 -51 8 -64 17 -19 13 -40 17 -83 14 -101 -5 -136 39 -76 98 24 24 39 31
70 31 22 0 49 -5 59 -10 26 -14 51 2 76 48 10 20 29 42 42 48 32 16 102 11
134 -10z m-873 -42 c13 -16 19 -36 17 -50 -4 -21 -1 -24 25 -24 41 0 81 -41
77 -78 -4 -34 -33 -41 -59 -13 -22 24 -92 45 -120 36 -18 -6 -19 -3 -13 34 4
28 3 41 -5 41 -7 0 -6 9 5 25 9 14 14 32 10 40 -10 27 40 18 63 -11z m-821
-34 c345 -37 644 -147 946 -348 167 -111 331 -291 397 -437 29 -64 31 -75 27
-159 -3 -74 -9 -103 -32 -153 -16 -35 -32 -63 -35 -63 -4 0 -19 26 -35 58
-109 222 -338 425 -679 600 -283 146 -477 206 -747 233 -63 6 -128 17 -145 23
-76 32 -135 113 -135 185 0 74 -6 71 176 71 91 0 208 -5 262 -10z m1010 -216
c14 -10 22 -25 22 -45 0 -26 -4 -29 -30 -29 -30 0 -70 32 -70 56 0 13 27 33
45 34 6 0 21 -7 33 -16z m-4768 2 c0 -2 -8 -10 -17 -17 -16 -13 -17 -12 -4 4
13 16 21 21 21 13z m-40 -40 c0 -2 -8 -10 -17 -17 -16 -13 -17 -12 -4 4 13 16
21 21 21 13z m5427 -42 c33 -21 63 -73 63 -107 0 -42 -30 -85 -71 -104 -27
-12 -35 -20 -32 -34 3 -11 1 -25 -5 -32 -7 -8 -6 -18 4 -31 8 -11 14 -29 14
-40 0 -22 -37 -66 -56 -66 -8 0 -12 -14 -11 -43 2 -48 -23 -96 -54 -104 -10
-3 -19 -11 -19 -18 0 -17 -48 -55 -69 -55 -10 0 -5 9 17 29 33 31 40 59 21 78
-8 8 -8 17 1 33 6 12 9 28 6 36 -4 10 2 14 18 14 12 0 33 11 46 25 l23 25 -37
0 c-50 0 -103 24 -111 50 -10 33 7 43 43 25 25 -13 36 -14 54 -4 47 24 50 54
8 63 -35 7 -44 46 -10 46 13 0 18 5 14 15 -5 11 1 15 24 15 34 0 82 18 82 32
0 4 -7 8 -15 8 -9 0 -27 12 -40 26 -30 32 -33 83 -8 120 14 21 22 25 47 20 16
-4 41 -13 53 -22z m-5497 -28 c0 -2 -8 -10 -17 -17 -16 -13 -17 -12 -4 4 13
16 21 21 21 13z m80 -60 c0 -2 -7 -7 -16 -10 -8 -3 -12 -2 -9 4 6 10 25 14 25
6z m256 -108 c-23 -13 -20 -31 4 -25 23 6 28 -20 6 -29 -21 -8 -8 -33 14 -27
32 8 31 -15 -2 -26 -17 -6 -32 -10 -33 -9 -6 8 -35 103 -35 114 0 16 53 35 59
21 2 -5 -4 -14 -13 -19z m-83 -60 c11 -34 19 -43 36 -41 12 2 21 -3 21 -11 0
-13 -20 -26 -41 -26 -11 0 -35 47 -44 88 -10 47 11 40 28 -10z m-43 19 c0 -7
-9 -13 -20 -14 -16 -1 -17 1 -7 12 15 18 27 19 27 2z m5023 -45 c-26 -35 -44
-37 -66 -7 l-18 25 40 0 c22 0 43 5 46 11 4 6 10 8 13 5 3 -4 -4 -19 -15 -34z
m-5320 -189 c112 -340 123 -376 181 -623 42 -179 50 -220 71 -342 l17 -96 99
-84 c55 -45 105 -85 112 -88 24 -10 535 -539 633 -655 391 -465 604 -780 782
-1155 70 -147 105 -248 128 -366 25 -134 11 -194 -67 -283 l-36 -41 5 74 c5
89 -15 190 -65 326 -37 98 -112 256 -144 301 -10 14 -16 29 -12 33 3 3 1 6 -6
6 -7 0 -9 5 -6 10 3 6 2 10 -3 10 -4 0 -40 51 -80 113 -142 226 -385 534 -662
842 -278 309 -732 754 -1046 1026 -244 212 -585 379 -781 383 -46 0 -83 2 -83
2 0 1 33 21 72 45 70 43 75 44 153 43 53 -1 105 -9 154 -24 158 -49 465 -224
689 -392 56 -42 102 -74 102 -70 0 4 -20 95 -45 202 -25 107 -61 265 -81 350
-20 85 -60 256 -90 380 -30 124 -56 235 -59 248 -3 12 -3 22 -1 22 2 0 34 -89
69 -197z m4457 92 c126 -32 282 -127 404 -243 l44 -42 6 26 7 27 30 -29 c47
-45 127 -167 171 -261 38 -82 40 -89 28 -122 -10 -28 -294 -668 -340 -766 -19
-42 -70 -158 -70 -161 0 -4 144 50 395 147 126 50 289 113 360 140 72 27 139
53 150 59 48 23 330 130 342 130 7 0 13 -6 13 -13 0 -22 61 -87 102 -108 43
-22 105 -28 156 -16 26 7 33 5 39 -9 3 -9 1 -25 -5 -35 -13 -20 -1 -34 21 -26
14 5 16 -40 4 -60 -10 -16 -1 -33 17 -33 18 0 26 -33 14 -54 -11 -19 -3 -36
16 -36 16 0 28 -37 15 -46 -15 -9 -10 -34 6 -34 21 0 36 -41 22 -58 -8 -11 -5
-18 12 -31 19 -15 22 -24 17 -49 -6 -25 -3 -33 14 -42 18 -10 21 -17 16 -45
-6 -28 -3 -36 14 -45 17 -9 20 -17 14 -46 -5 -26 -3 -34 9 -34 20 0 28 -23 20
-60 -4 -23 -2 -30 10 -30 21 0 32 -37 17 -55 -13 -16 -5 -35 15 -35 18 0 28
-30 14 -46 -14 -17 -5 -44 15 -44 16 0 29 -37 15 -46 -16 -9 -10 -32 11 -39
32 -10 23 -31 -25 -59 -81 -48 -130 -144 -118 -233 6 -48 81 -21 -717 -258
-344 -102 -690 -206 -770 -230 -80 -24 -246 -73 -370 -110 -124 -36 -233 -68
-242 -71 -11 -3 -19 3 -23 16 -11 33 -64 89 -106 111 -22 11 -58 19 -85 19
-44 0 -46 1 -40 25 5 18 1 27 -15 35 -16 9 -19 17 -14 40 5 21 2 31 -11 38
-12 7 -15 17 -11 33 4 16 0 30 -14 45 -16 17 -18 26 -10 41 8 15 6 23 -10 36
-13 12 -18 24 -13 41 4 17 0 27 -12 34 -12 6 -15 17 -11 32 4 15 -1 32 -13 47
-11 14 -16 32 -13 44 4 14 0 25 -11 31 -13 7 -16 17 -11 38 5 21 2 31 -11 38
-12 6 -15 17 -11 32 4 15 -1 32 -13 47 -11 14 -16 32 -13 44 4 14 0 25 -11 31
-13 7 -16 17 -11 39 5 22 2 31 -10 35 -12 5 -15 14 -12 34 4 19 0 31 -14 43
-22 19 -25 37 -6 37 19 0 84 70 96 103 6 16 11 44 11 63 0 32 -2 35 -22 28
-75 -24 -937 -453 -998 -498 -19 -13 11 23 72 89 64 69 293 339 348 409 25 32
77 97 116 146 78 96 99 139 113 227 9 61 0 196 -20 293 -6 30 -15 74 -19 96
-5 23 -18 78 -30 123 -88 344 -88 476 -2 647 122 242 336 397 607 438 63 9
281 -3 345 -19z m-2292 -23 c2 -7 -9 -15 -27 -18 -18 -4 -31 -13 -31 -21 0
-12 8 -14 34 -9 26 5 35 3 40 -10 9 -22 9 -22 -24 -29 -17 -4 -30 -13 -30 -22
0 -11 9 -14 39 -10 30 3 41 0 46 -11 8 -22 -4 -30 -62 -38 l-52 -6 -11 43 c-6
24 -15 55 -20 69 -18 50 -16 63 10 71 36 11 83 6 88 -9z m-128 -12 c0 -6 -7
-24 -15 -40 -15 -29 -15 -31 25 -74 22 -24 40 -46 40 -50 0 -16 -47 -3 -72 21
-32 31 -43 27 -29 -10 9 -22 7 -27 -10 -32 -11 -4 -22 -5 -24 -3 -7 7 -43 164
-38 171 9 15 35 6 40 -13 7 -27 20 -25 27 4 7 28 56 50 56 26z m-143 -110 c24
-44 39 -80 34 -80 -5 0 -16 -3 -24 -6 -10 -3 -18 2 -22 15 -9 31 -45 28 -45
-4 0 -23 -13 -31 -37 -22 -4 1 -6 36 -4 77 2 74 15 100 45 100 6 0 30 -36 53
-80z m-117 45 c0 -7 -8 -18 -17 -24 -16 -8 -16 -14 -5 -55 16 -63 15 -76 -7
-76 -15 0 -21 12 -30 60 -10 49 -16 60 -32 60 -27 0 -24 29 4 34 55 12 63 14
75 15 6 0 12 -6 12 -14z m-410 -89 c0 -8 -10 -16 -22 -18 -35 -5 -34 -28 1
-28 21 0 31 -5 31 -15 0 -8 -9 -15 -20 -15 -13 0 -20 -7 -20 -20 0 -16 5 -19
30 -13 23 4 30 2 30 -9 0 -14 -38 -28 -74 -28 -7 0 -18 28 -25 63 -16 81 -16
81 11 89 39 11 58 9 58 -6z m-87 -123 c10 -49 -23 -44 -62 9 -30 41 -31 41
-25 13 10 -51 9 -68 -2 -72 -10 -3 -34 86 -34 129 0 29 27 21 56 -17 32 -42
37 -41 24 5 -7 25 -6 36 3 42 12 7 23 -23 40 -109z m4586 82 c48 -9 80 -49 81
-99 0 -15 -6 -17 -30 -14 -16 3 -30 1 -30 -3 0 -16 -42 -30 -71 -24 -36 8 -63
46 -55 78 3 13 17 36 31 51 14 15 25 32 25 39 0 7 7 4 14 -6 8 -10 23 -20 35
-22z m-4729 -15 c0 -4 -11 -11 -25 -14 -14 -4 -25 -11 -25 -16 0 -6 11 -10 25
-10 16 0 25 -6 25 -15 0 -8 -9 -15 -20 -15 -13 0 -18 -5 -14 -15 4 -8 17 -15
30 -15 15 0 24 -6 24 -15 0 -10 -10 -15 -30 -15 -16 0 -33 0 -37 0 -10 -1 -34
123 -25 131 8 9 54 16 65 11 4 -2 7 -7 7 -12z m4575 10 c-3 -5 -1 -18 5 -29 5
-11 6 -22 1 -25 -13 -9 -22 -85 -12 -105 16 -29 82 -46 133 -33 l43 11 -24
-20 c-43 -35 -129 -21 -175 30 -17 19 -18 26 -8 55 7 18 12 48 12 67 0 19 5
40 12 47 15 15 21 16 13 2z m-4677 -28 c2 -7 -3 -12 -12 -12 -24 0 -38 -34
-26 -64 7 -18 17 -26 34 -26 30 0 42 -15 20 -24 -27 -10 -43 -7 -64 14 -29 29
-27 94 2 114 24 17 39 17 46 -2z m-98 -22 c0 -5 -6 -10 -14 -10 -28 0 -26 -19
4 -35 20 -11 30 -23 30 -39 0 -27 -22 -49 -45 -44 -23 4 -20 22 5 26 28 5 25
18 -7 34 -31 15 -41 42 -23 63 14 17 50 20 50 5z m-539 -137 c13 -16 12 -17
-3 -4 -10 7 -18 15 -18 17 0 8 8 3 21 -13z m-1438 -345 c-26 -49 -21 -153 12
-256 14 -46 24 -91 20 -100 -10 -26 -23 -1 -45 82 -27 105 -27 214 0 266 11
22 23 40 25 40 3 0 -2 -15 -12 -32z m310 -319 c52 -14 294 -132 315 -154 10
-9 -112 -126 -126 -120 -7 2 -11 1 -8 -4 3 -4 -5 -18 -18 -30 -27 -26 -39 -17
-45 30 -1 8 -6 8 -16 -1 -9 -7 -15 -8 -15 -2 0 5 7 12 15 16 15 5 22 46 8 46
-5 0 -18 3 -30 6 -16 5 -23 2 -23 -9 0 -20 -46 -19 -62 2 -12 14 -11 14 5 2
10 -8 17 -9 17 -3 0 6 8 9 18 6 13 -5 14 -4 3 4 -8 6 -20 8 -28 5 -9 -4 -11 0
-7 13 5 15 3 14 -10 -4 -14 -18 -20 -20 -31 -10 -34 31 -43 36 -49 31 -3 -4
-6 -1 -6 6 0 7 -4 9 -10 6 -7 -4 -139 45 -157 59 -1 0 -4 13 -8 27 -6 23 -1
30 41 58 42 27 56 31 118 31 39 0 88 -5 109 -11z m-483 -29 c345 -116 864
-487 1350 -965 608 -597 1009 -1109 1246 -1587 32 -65 64 -118 71 -118 7 0 34
-13 61 -30 86 -53 158 -80 233 -89 l74 -8 -61 -2 c-78 -1 -149 12 -227 44 -33
13 -63 23 -65 20 -2 -2 4 -30 14 -62 10 -34 18 -94 18 -144 l1 -86 -43 -56
c-64 -82 -70 -85 -62 -32 38 253 -298 832 -805 1385 -424 463 -1134 1137
-1360 1292 -49 34 -92 64 -95 68 -5 6 -66 46 -165 108 -149 93 -391 172 -528
172 l-39 0 54 42 c89 71 113 80 193 75 39 -3 99 -15 135 -27z m350 -603 c154
-103 442 -325 585 -452 39 -34 72 -61 75 -61 8 1 443 -433 511 -510 112 -127
164 -188 179 -210 8 -13 65 -87 126 -166 178 -228 348 -487 439 -668 47 -93
44 -103 -4 -15 -64 118 -119 204 -227 355 -241 337 -446 580 -769 908 -328
334 -654 621 -910 801 -141 99 -144 110 -5 18z m1220 -117 c12 -9 6 -19 -35
-56 -68 -62 -161 -134 -174 -134 -28 0 -17 25 30 68 29 26 73 66 98 89 49 45
57 49 81 33z m-1249 -147 c120 -80 217 -148 215 -150 -1 -2 -41 18 -87 44 -46
25 -156 86 -244 134 -87 48 -161 91 -163 97 -2 6 9 12 25 15 15 2 30 5 32 6 1
0 102 -65 222 -146z m1365 45 c98 -93 302 -312 400 -431 42 -51 85 -102 95
-114 40 -48 119 -161 119 -171 0 -5 -46 -50 -103 -100 l-103 -90 -76 97 c-43
53 -101 121 -129 151 -28 30 -97 105 -152 165 -55 61 -158 169 -228 240 l-128
130 107 97 c59 53 110 97 114 98 3 0 41 -33 84 -72z m1784 2 c23 -5 -25 -8
-137 -8 -122 -1 -174 2 -181 11 -8 9 23 11 136 9 81 -2 163 -7 182 -12z m180
-7 c-12 -3 -23 -54 -49 -216 -18 -116 -45 -288 -61 -382 -15 -93 -26 -171 -25
-172 1 -2 19 6 41 16 21 10 53 22 71 25 26 6 32 4 38 -14 3 -11 11 -17 17 -14
7 4 6 9 -2 14 -7 5 5 9 29 12 27 2 41 0 41 -8 0 -14 29 -12 38 2 9 13 42 26
41 16 -3 -19 2 -26 10 -13 10 15 148 17 211 3 l35 -8 -66 -47 c-37 -26 -70
-47 -75 -47 -5 0 -22 -11 -39 -25 l-30 -24 44 -1 c40 0 49 5 90 48 71 72 96
85 145 78 22 -4 52 -14 65 -23 13 -8 20 -10 17 -4 -4 6 0 11 8 11 9 0 16 -1
16 -3 0 -2 -36 -32 -80 -66 -44 -35 -80 -67 -80 -71 0 -5 15 -12 33 -15 54
-12 189 -56 184 -61 -2 -2 -42 5 -88 16 -304 71 -583 84 -694 30 -114 -55 -67
-170 120 -293 251 -165 670 -308 1032 -352 78 -9 94 -13 57 -14 -171 -4 -633
101 -861 194 -237 98 -404 224 -448 338 -15 41 -16 55 -6 105 27 132 104 560
132 727 16 99 32 192 35 207 5 23 2 27 -23 31 -15 2 -1 4 32 4 33 0 53 -2 45
-4z m165 -3 c25 -6 20 -8 -27 -9 -31 0 -60 4 -63 9 -7 12 45 12 90 0z m-2750
-1148 c-2 -2 -27 9 -56 25 -100 54 -221 183 -288 308 -31 57 -24 50 157 -135
105 -107 189 -196 187 -198z m1338 297 l56 -76 -94 -82 c-52 -45 -97 -82 -101
-83 -4 0 -33 33 -65 73 l-59 74 97 92 c54 50 101 88 104 85 4 -4 31 -41 62
-83z m-3160 24 c-7 -2 -19 -2 -25 0 -7 3 -2 5 12 5 14 0 19 -2 13 -5z m5325
-50 c13 -8 30 -12 38 -9 9 3 12 1 9 -4 -3 -6 0 -10 7 -10 9 0 9 -3 -2 -10 -11
-7 0 -10 37 -10 55 0 166 -37 157 -52 -3 -5 0 -8 7 -7 23 5 60 -12 53 -23 -4
-7 -2 -8 4 -4 14 8 73 -24 66 -36 -3 -4 2 -5 10 -2 13 5 60 -21 111 -61 17
-14 18 -17 5 -25 -8 -5 -19 -10 -23 -10 -31 0 -220 55 -298 88 -52 22 -102 42
-112 46 -11 3 -15 11 -11 17 4 8 3 9 -4 5 -16 -10 -122 63 -115 79 2 8 12 11
21 9 13 -4 13 -3 -2 6 -14 10 -20 9 -27 -1 -6 -11 -11 -11 -20 -2 -9 9 -6 13
16 19 20 5 24 9 13 16 -22 15 34 -2 60 -19z m87 -23 c3 -5 1 -10 -4 -10 -6 0
-11 5 -11 10 0 6 2 10 4 10 3 0 8 -4 11 -10z m-1002 -261 c104 -78 270 -155
502 -230 196 -65 365 -103 547 -124 143 -16 252 -10 310 19 34 18 36 7 4 -27
-106 -114 -745 -1 -1193 213 -159 75 -250 144 -276 210 -22 53 -9 67 20 23 13
-21 52 -59 86 -84z m1589 -26 c-6 -2 -10 -9 -6 -14 3 -5 0 -9 -6 -9 -6 0 -9
-4 -6 -8 3 -5 -4 -18 -14 -30 -25 -26 -25 -36 -2 -28 15 5 15 5 1 -6 -11 -9
-14 -19 -8 -33 6 -16 8 -17 8 -3 1 9 5 20 11 23 13 8 -7 -45 -25 -65 -7 -8
-17 -27 -20 -42 -4 -16 -11 -28 -16 -28 -5 0 -6 -7 -3 -15 4 -8 2 -15 -3 -15
-5 0 -9 9 -10 20 -1 11 -11 30 -23 42 -11 12 -18 28 -16 35 3 7 0 15 -6 19 -7
4 -8 3 -4 -4 4 -7 5 -12 1 -12 -3 0 -10 12 -15 26 -7 18 -15 24 -28 20 -10 -3
-31 8 -54 28 l-37 32 72 19 c40 10 80 24 89 33 15 13 18 12 24 -12 5 -21 9
-24 20 -15 16 13 37 2 27 -14 -4 -7 0 -6 10 2 18 14 22 22 10 19 -5 0 -19 3
-32 9 -22 9 -23 10 -5 17 10 4 20 3 22 -3 2 -7 10 -5 19 4 8 8 20 15 26 14 8
0 8 -2 -1 -6z m2398 -13 c18 -18 19 -22 6 -43 -15 -22 -16 -25 -16 -52 0 -20
-44 -20 -60 0 -9 11 -10 19 -3 26 8 8 6 20 -6 40 -14 26 -14 31 -1 39 24 16
59 11 80 -10z m-110 -35 c0 -9 -11 -21 -25 -27 -18 -8 -25 -18 -23 -32 3 -20
10 -24 88 -44 l35 -9 -30 -12 c-36 -15 -85 -7 -116 18 -29 23 -20 62 18 82 16
8 32 20 36 26 11 17 17 16 17 -2z m-2525 -355 c-11 -5 -40 -8 -65 -8 l-45 1
50 7 c72 10 83 10 60 0z m-128 -16 c-3 -3 -12 -4 -19 -1 -8 3 -5 6 6 6 11 1
17 -2 13 -5z m-797 -124 c28 -28 27 -90 -2 -117 -36 -33 -63 -43 -112 -43 -60
0 -91 28 -82 73 9 45 27 59 20 16 -4 -26 -1 -39 11 -49 23 -19 83 -17 121 3
l29 16 -41 1 c-58 0 -78 25 -75 93 1 26 3 27 56 27 42 0 60 -5 75 -20z m1758
-90 c7 -11 22 -20 33 -20 12 0 39 -17 60 -39 34 -34 39 -44 39 -86 l0 -47 -34
6 c-29 6 -35 3 -41 -14 -3 -11 -17 -23 -31 -26 -52 -13 -107 21 -119 76 -8 35
21 107 46 115 11 4 17 10 14 15 -6 10 4 40 14 40 3 0 12 -9 19 -20z m-146 -77
c7 -9 5 -21 -7 -39 -10 -16 -14 -35 -11 -49 3 -13 2 -27 -4 -30 -16 -10 -12
-47 10 -82 29 -49 112 -65 185 -37 18 7 18 6 6 -9 -7 -9 -32 -22 -54 -28 -69
-19 -149 17 -183 82 -13 26 -13 33 0 62 9 17 17 59 20 92 2 33 8 69 12 80 8
19 9 18 12 -5 2 -14 9 -31 14 -37z m-3687 37 c10 -16 132 -75 208 -100 80 -27
73 -40 -23 -40 -55 0 -77 6 -135 34 -39 19 -81 44 -95 55 -24 19 -24 20 -6 40
21 23 41 27 51 11z m-305 -264 c0 -2 -7 -7 -16 -10 -8 -3 -12 -2 -9 4 6 10 25
14 25 6z m4865 -216 c4 -6 10 -8 14 -6 4 3 22 -4 39 -14 82 -50 29 -160 -78
-160 -48 0 -99 28 -107 58 -7 29 13 73 37 80 12 4 11 1 -2 -15 -25 -27 -22
-48 8 -72 19 -15 41 -21 78 -21 l51 0 -41 19 c-54 24 -66 57 -44 115 10 26 34
34 45 16z"/>
<path d="M7135 6303 c-11 -2 -30 -6 -41 -8 -26 -6 -40 -35 -22 -46 10 -6 8
-12 -7 -23 -20 -15 -20 -15 5 -40 34 -35 109 -46 146 -22 14 10 32 33 40 52
13 30 12 37 -1 58 -21 32 -61 42 -120 29z"/>
<path d="M8190 3910 c-25 -11 -223 -87 -440 -170 -217 -83 -440 -169 -495
-190 -93 -36 -698 -268 -810 -311 -49 -18 -50 -19 -53 -66 -4 -60 -34 -128
-74 -170 -30 -32 -31 -34 -19 -75 22 -76 151 -499 197 -645 40 -127 47 -143
67 -143 52 0 100 -23 156 -76 l60 -55 213 65 c238 72 621 189 893 273 99 30
207 63 240 72 317 93 542 166 553 179 6 9 12 28 12 42 0 56 33 123 86 179 50
50 53 57 45 85 -4 17 -72 225 -151 462 l-143 432 -58 5 c-72 6 -140 38 -191
89 -21 21 -39 38 -40 37 -2 0 -23 -9 -48 -19z m76 -41 c41 -43 117 -80 181
-86 29 -3 57 -11 61 -17 6 -10 194 -571 263 -788 l31 -97 -34 -30 c-44 -39
-89 -121 -103 -190 l-11 -55 -89 -27 c-50 -15 -218 -66 -375 -114 -157 -48
-467 -142 -690 -210 -223 -67 -475 -144 -560 -170 l-155 -47 -46 45 c-43 41
-95 67 -160 81 -20 4 -29 15 -36 43 -6 21 -45 148 -87 283 -43 135 -93 296
-112 358 l-35 113 35 41 c35 40 58 97 70 169 4 23 13 39 24 42 9 3 177 67 372
142 195 75 472 181 615 236 143 54 382 146 530 203 149 57 273 105 276 105 3
1 18 -13 35 -30z"/>
<path d="M8210 3737 c0 -3 11 -38 24 -78 14 -41 86 -263 161 -494 75 -231 142
-424 147 -430 8 -7 9 -5 6 5 -77 228 -318 971 -318 978 0 6 -4 14 -10 17 -5 3
-10 4 -10 2z"/>
<path d="M8400 3665 c-7 -9 -9 -22 -4 -32 7 -16 8 -16 11 3 2 12 14 26 26 32
l22 11 -21 0 c-12 1 -27 -6 -34 -14z"/>
<path d="M8347 3643 c-10 -10 -8 -41 3 -48 6 -4 7 1 3 11 -4 11 1 22 12 30 15
11 16 14 4 14 -9 0 -19 -3 -22 -7z"/>
<path d="M8460 3630 c0 -5 5 -10 10 -10 6 0 10 5 10 10 0 6 -4 10 -10 10 -5 0
-10 -4 -10 -10z"/>
<path d="M7913 3615 c-26 -11 -33 -20 -33 -42 0 -28 32 -366 35 -371 1 -1 16
3 34 9 31 11 32 14 30 57 -3 43 -1 47 29 59 31 13 32 13 52 -27 18 -36 24 -40
48 -34 15 4 31 10 36 14 10 9 -174 349 -189 349 -5 0 -25 -6 -42 -14z m85
-226 c-26 -17 -36 -8 -42 39 -4 26 -9 61 -12 77 -3 21 6 10 32 -39 28 -54 33
-71 22 -77z"/>
<path d="M8433 3553 c15 -2 37 -2 50 0 12 2 0 4 -28 4 -27 0 -38 -2 -22 -4z"/>
<path d="M7706 3538 l-29 -11 7 -81 c3 -45 8 -104 11 -131 7 -58 7 -59 -68 70
-49 82 -56 90 -82 88 -15 -1 -32 -6 -38 -12 -5 -5 8 -78 34 -190 45 -185 50
-196 89 -171 13 8 12 20 -8 97 -12 48 -25 99 -28 113 -4 14 20 -19 52 -72 56
-95 72 -108 102 -89 10 6 11 29 2 116 -6 59 -9 109 -7 111 2 3 22 -43 43 -101
37 -102 40 -106 64 -100 14 4 28 9 32 13 8 8 -127 356 -139 358 -4 1 -21 -2
-37 -8z"/>
<path d="M8371 3520 c6 -16 15 -30 20 -30 6 0 5 9 -1 20 -6 11 -8 25 -5 30 3
6 -1 10 -9 10 -12 0 -13 -5 -5 -30z"/>
<path d="M8460 3460 c-11 -11 -20 -27 -20 -35 0 -22 -18 -18 -25 6 -4 11 -9
18 -12 16 -13 -13 10 -47 31 -47 18 0 25 7 29 28 3 16 16 33 29 40 18 8 19 11
6 11 -10 1 -27 -8 -38 -19z"/>
<path d="M8531 3434 c0 -11 3 -14 6 -6 3 7 2 16 -1 19 -3 4 -6 -2 -5 -13z"/>
<path d="M7347 3403 c-38 -14 -66 -31 -64 -37 2 -6 28 -86 57 -178 30 -93 56
-168 60 -168 4 0 38 11 76 24 63 23 69 27 67 52 -3 37 -6 38 -56 21 l-44 -15
-15 48 -16 48 40 16 c30 11 39 19 34 31 -3 9 -6 21 -6 27 0 10 -36 7 -71 -7
-12 -4 -19 4 -27 33 -7 22 -12 41 -12 44 0 3 18 10 40 17 22 6 40 14 40 16 0
13 -21 55 -27 54 -5 0 -39 -12 -76 -26z"/>
<path d="M8468 3364 c-39 -21 -35 -36 4 -17 17 9 43 16 59 17 15 1 25 4 22 9
-7 12 -56 7 -85 -9z"/>
<path d="M7183 3343 c-19 -7 -16 -29 22 -135 18 -54 33 -98 31 -98 -1 0 -36
43 -77 95 -40 52 -77 95 -81 95 -3 0 -18 -4 -32 -9 l-24 -10 17 -58 c93 -302
90 -295 119 -288 15 4 29 8 31 10 2 3 -28 100 -67 215 -3 8 15 -12 40 -45 97
-130 111 -142 141 -132 15 5 27 16 26 25 0 10 -24 89 -52 177 -51 156 -61 172
-94 158z"/>
<path d="M8560 3342 c0 -14 -85 -46 -105 -38 -9 3 -13 2 -10 -4 12 -19 73 -11
102 14 15 13 25 28 21 32 -5 4 -8 2 -8 -4z"/>
<path d="M8485 3250 c-10 -11 -15 -23 -12 -27 4 -3 7 -2 7 4 0 16 48 34 56 22
4 -8 9 -7 14 2 7 10 14 8 37 -6 l28 -18 -19 21 c-25 29 -86 30 -111 2z"/>
<path d="M6930 3248 c-13 -5 -26 -10 -27 -12 -3 -2 30 -110 93 -308 15 -46 16
-46 45 -36 16 5 29 15 29 21 0 18 -100 331 -108 338 -4 4 -18 3 -32 -3z"/>
<path d="M8535 3214 c-11 -9 -31 -13 -45 -11 -23 5 -24 4 -5 -9 26 -19 39 -18
60 6 23 25 17 33 -10 14z"/>
<path d="M6810 3202 c-49 -25 -72 -69 -71 -142 0 -102 59 -203 126 -216 35 -6
105 18 105 36 0 6 -5 20 -10 30 -9 17 -14 18 -35 8 -37 -17 -72 4 -95 55 -41
93 -34 160 18 178 24 8 28 14 24 39 -5 35 -14 36 -62 12z"/>
<path d="M8574 3170 c-25 -10 -40 -58 -25 -73 8 -8 11 -4 11 13 0 13 10 34 22
47 23 25 23 26 -8 13z"/>
<path d="M8616 3160 c7 -8 14 -24 17 -35 4 -19 5 -19 6 1 0 12 -7 28 -16 35
-16 12 -17 12 -7 -1z"/>
<path d="M8200 3138 c0 -8 -7 -21 -16 -29 -14 -11 -14 -13 0 -21 9 -5 16 -16
16 -25 0 -13 3 -14 12 -5 7 7 19 12 28 12 12 0 17 9 17 30 0 21 -5 30 -17 30
-9 0 -21 5 -28 12 -9 9 -12 8 -12 -4z"/>
<path d="M8500 3133 c0 -12 5 -25 11 -28 17 -11 18 -2 4 25 -14 24 -14 24 -15
3z"/>
<path d="M6511 3092 c-1 -7 44 -160 100 -340 55 -180 116 -379 136 -442 19
-63 39 -119 44 -125 14 -14 13 -13 -57 211 -36 115 -97 310 -136 434 -91 291
-86 277 -87 262z"/>
<path d="M8060 3087 c0 -9 -8 -20 -17 -26 -17 -9 -17 -10 0 -16 9 -4 17 -16
17 -28 0 -18 2 -19 18 -5 9 9 22 14 28 11 6 -2 11 9 11 27 0 21 -5 30 -17 30
-9 0 -21 5 -28 12 -9 9 -12 8 -12 -5z"/>
<path d="M8601 3063 c-7 -8 -26 -16 -42 -20 -16 -3 -29 -9 -29 -13 0 -9 42
-21 49 -15 2 3 -2 5 -10 5 -11 0 -11 2 1 10 26 17 48 11 59 -17 l10 -28 -2 33
c-1 19 4 36 11 41 10 6 7 10 -10 13 -13 2 -30 -2 -37 -9z"/>
<path d="M7715 3055 c-22 -8 -41 -15 -42 -15 -2 0 -3 -5 -3 -11 0 -5 10 -9 22
-7 19 3 25 -7 50 -89 20 -66 33 -93 44 -93 9 0 14 6 12 13 -3 6 -18 50 -33 96
-25 76 -26 85 -11 93 16 9 22 28 9 28 -5 -1 -26 -7 -48 -15z"/>
<path d="M7920 3035 c0 -9 -7 -18 -16 -22 -15 -5 -15 -7 0 -15 9 -5 16 -16 16
-23 0 -17 16 -20 25 -5 4 6 16 8 27 4 17 -5 18 -3 9 14 -6 11 -8 28 -5 36 4
12 2 15 -9 10 -8 -3 -18 -1 -22 5 -9 16 -25 13 -25 -4z"/>
<path d="M7605 3018 c-16 -6 -31 -11 -32 -12 -3 -3 57 -188 65 -202 5 -9 15
-9 41 0 40 13 59 43 20 31 -39 -12 -41 -11 -54 27 -14 39 -11 48 17 48 10 0
18 7 18 16 0 16 -2 16 -46 -2 -6 -3 -15 12 -22 31 -10 35 -10 37 19 47 16 5
26 14 23 19 -6 11 -10 11 -49 -3z"/>
<path d="M8598 3003 c7 -3 16 -2 19 1 4 3 -2 6 -13 5 -11 0 -14 -3 -6 -6z"/>
<path d="M7533 2992 c-6 -4 -15 -32 -20 -62 l-9 -55 -13 40 c-15 43 -27 62
-37 53 -9 -10 60 -218 71 -214 10 3 10 13 -2 75 l-6 33 40 -42 c57 -62 73 -46
17 18 l-46 52 11 52 c12 55 12 61 -6 50z"/>
<path d="M8630 2956 c-6 -8 -21 -16 -33 -18 -26 -4 -31 -48 -7 -56 13 -4 13
-3 2 11 -18 21 -5 40 23 34 17 -3 25 1 29 16 4 15 11 18 30 15 14 -3 23 -1 20
3 -8 14 -50 10 -64 -5z"/>
<path d="M6444 2945 c-4 -8 -14 -15 -24 -15 -25 0 -33 -16 -20 -37 10 -17 10
-16 8 2 -2 15 3 20 20 19 12 0 22 5 22 12 0 7 8 18 18 23 16 10 16 10 -1 11
-10 0 -20 -7 -23 -15z"/>
<path d="M7378 2933 c-27 -30 -30 -61 -13 -118 10 -35 24 -61 40 -71 27 -17
76 -16 83 3 2 9 -5 11 -26 7 -24 -5 -33 -1 -50 21 -40 51 -41 138 -2 150 11 3
20 11 20 16 0 16 -36 10 -52 -8z"/>
<path d="M8701 2924 c0 -11 3 -14 6 -6 3 7 2 16 -1 19 -3 4 -6 -2 -5 -13z"/>
<path d="M7280 2904 c0 -15 62 -199 70 -207 4 -5 10 -5 13 0 8 13 -57 206 -71
211 -6 2 -12 0 -12 -4z"/>
<path d="M8165 2891 c-27 -8 -52 -16 -54 -17 -1 -2 16 -59 39 -128 l41 -124
32 10 c18 5 42 12 55 15 13 3 22 13 22 24 0 25 -14 31 -44 19 -21 -8 -27 -6
-36 10 -16 31 -12 49 15 56 26 6 29 12 19 38 -4 11 -11 13 -31 5 -31 -12 -43
-4 -43 26 0 18 7 26 25 31 25 6 31 20 17 40 -5 7 -22 6 -57 -5z"/>
<path d="M7192 2874 c-34 -15 -37 -36 -4 -27 16 4 23 -10 46 -86 17 -57 32
-91 40 -91 15 0 15 -3 -30 140 -12 39 -12 46 1 56 36 27 1 32 -53 8z"/>
<path d="M8040 2850 c-13 -8 -12 -19 11 -85 14 -42 23 -72 20 -68 -85 104
-105 124 -125 121 -25 -4 -26 4 18 -140 33 -104 39 -115 57 -111 17 5 19 11
13 37 -3 17 -13 46 -20 65 -23 56 -16 55 37 -9 38 -46 56 -60 72 -58 12 2 21
8 21 13 -5 31 -77 245 -82 245 -4 0 -14 -5 -22 -10z"/>
<path d="M6421 2820 c6 -16 15 -30 20 -30 6 0 5 8 -1 19 -15 29 -14 30 43 34
l52 3 -62 2 -62 2 10 -30z"/>
<path d="M6487 2750 c-12 -32 -27 -40 -27 -15 0 8 -4 15 -9 15 -5 0 -7 -9 -4
-20 3 -13 14 -20 29 -20 19 0 24 5 24 25 0 13 8 29 18 34 16 10 16 10 -1 11
-12 0 -23 -11 -30 -30z"/>
<path d="M7790 2760 c-29 -29 -27 -102 5 -167 30 -60 69 -82 107 -62 33 17 38
28 38 82 0 121 -89 208 -150 147z m94 -111 c14 -60 12 -79 -10 -79 -31 0 -71
140 -47 164 14 14 45 -33 57 -85z"/>
<path d="M6548 2743 c5 -21 7 -23 10 -9 2 10 0 22 -6 28 -6 6 -7 0 -4 -19z"/>
<path d="M7070 2746 c0 -9 -7 -19 -16 -23 -15 -5 -15 -7 0 -15 9 -5 16 -16 16
-25 0 -13 3 -13 15 -3 8 7 20 10 27 7 9 -3 13 6 13 28 0 22 -4 31 -13 28 -7
-3 -19 0 -27 7 -12 10 -15 9 -15 -4z"/>
<path d="M7605 2707 c-72 -24 -67 -20 -59 -41 3 -9 17 -16 29 -16 21 0 27 -10
51 -87 33 -102 35 -107 62 -99 19 7 19 9 -11 102 -30 90 -31 96 -14 108 17 13
23 41 10 49 -5 2 -35 -5 -68 -16z"/>
<path d="M6950 2705 c0 -8 -8 -18 -17 -24 -17 -9 -17 -10 0 -16 9 -4 17 -13
17 -20 0 -10 5 -11 23 -2 30 14 31 50 1 64 -19 9 -24 8 -24 -2z"/>
<path d="M6502 2683 c-7 -2 -17 -13 -22 -24 -10 -17 -8 -17 25 2 19 12 44 19
55 16 11 -3 18 -1 14 4 -5 9 -50 11 -72 2z"/>
<path d="M6831 2673 c-1 -6 -7 -18 -15 -25 -11 -12 -11 -17 5 -36 9 -12 20
-18 24 -13 3 6 12 8 19 5 9 -4 13 4 12 25 -1 22 -6 31 -18 31 -9 0 -19 6 -21
13 -4 8 -6 9 -6 0z"/>
<path d="M7498 2672 c-25 -5 -23 -22 17 -142 28 -86 37 -104 52 -102 10 2 20
6 22 8 4 4 -57 210 -68 229 -3 6 -14 9 -23 7z"/>
<path d="M6540 2634 c-19 -7 -41 -11 -48 -9 -7 3 -10 0 -7 -5 9 -15 58 -12 81
4 27 20 15 24 -26 10z"/>
<path d="M7402 2639 c-22 -8 -23 -13 -17 -71 3 -35 8 -74 11 -88 2 -14 -14 9
-37 50 -23 41 -42 76 -43 77 -5 7 -46 -11 -46 -21 0 -23 53 -236 59 -236 3 0
12 4 20 9 12 8 12 18 -2 68 -24 84 -21 86 19 15 20 -35 41 -61 47 -59 8 3 12
30 11 75 0 40 1 72 2 72 1 0 12 -28 24 -62 28 -76 24 -71 48 -64 19 6 18 13
-25 124 -25 64 -46 118 -46 118 -1 1 -12 -2 -25 -7z"/>
<path d="M6523 2585 c-13 -9 -23 -24 -23 -33 1 -16 1 -16 11 1 10 17 40 23 52
10 11 -10 -14 -33 -37 -33 -17 0 -18 -2 -6 -10 21 -13 26 -13 45 6 10 10 13
24 9 37 -6 21 -6 21 20 4 26 -18 37 -9 13 11 -24 20 -61 23 -84 7z"/>
<path d="M7125 2548 c-11 -6 -22 -12 -23 -14 -5 -3 60 -217 68 -227 11 -13 75
18 94 44 45 65 -16 209 -87 209 -18 0 -41 -6 -52 -12z m69 -43 c18 -19 38 -88
34 -117 -6 -44 -26 -28 -48 39 -13 37 -25 74 -28 81 -6 17 24 15 42 -3z"/>
<path d="M7003 2509 c-13 -5 -23 -17 -23 -28 0 -30 22 -225 25 -229 2 -2 13
-1 24 3 16 5 19 12 15 34 -10 50 41 49 58 0 2 -5 13 -6 26 -3 22 6 21 9 -34
113 -31 58 -59 109 -63 112 -3 4 -16 3 -28 -2z m46 -143 c-12 -13 -15 -7 -22
39 l-6 40 19 -35 c11 -21 15 -39 9 -44z"/>
<path d="M6572 2481 c-15 -26 -18 -27 -29 -13 -11 16 -12 16 -13 -1 0 -10 10
-21 23 -26 19 -7 23 -4 30 20 9 35 47 42 47 9 0 -11 5 -20 10 -20 18 0 10 29
-12 44 -31 22 -36 20 -56 -13z"/>
<path d="M6587 2396 c-29 -14 -35 -21 -25 -27 17 -11 41 -11 34 0 -3 5 1 12
10 15 22 9 24 8 24 -9 0 -8 -6 -15 -12 -15 -9 0 -8 -4 2 -10 25 -16 33 -11 26
14 -3 14 -2 28 4 31 5 3 10 9 10 13 0 13 -34 8 -73 -12z"/>
<path d="M6643 2315 c-10 -8 -26 -15 -35 -15 -23 0 -24 -45 -2 -54 14 -5 15
-4 4 9 -18 22 2 44 23 26 12 -9 16 -7 20 9 7 26 37 26 37 0 0 -11 5 -20 10
-20 13 0 13 6 0 29 -13 26 -35 32 -57 16z"/>
<path d="M4181 4994 c0 -11 3 -14 6 -6 3 7 2 16 -1 19 -3 4 -6 -2 -5 -13z"/>
<path d="M1750 3785 c-11 -13 -10 -15 6 -9 18 5 18 5 1 -9 -10 -8 -14 -17 -10
-20 13 -8 33 28 24 42 -6 9 -11 8 -21 -4z"/>
<path d="M4990 2451 c0 -6 4 -13 10 -16 6 -3 7 1 4 9 -7 18 -14 21 -14 7z"/>
<path d="M4970 2445 c0 -5 5 -17 10 -25 5 -8 10 -10 10 -5 0 6 -5 17 -10 25
-5 8 -10 11 -10 5z"/>
<path d="M4782 2395 c-6 -14 -8 -25 -3 -25 8 0 23 41 17 47 -1 2 -8 -8 -14
-22z"/>
<path d="M4808 2363 c7 -3 16 -2 19 1 4 3 -2 6 -13 5 -11 0 -14 -3 -6 -6z"/>
<path d="M4933 2353 c9 -2 23 -2 30 0 6 3 -1 5 -18 5 -16 0 -22 -2 -12 -5z"/>
<path d="M5680 2310 c6 -11 13 -20 16 -20 2 0 0 9 -6 20 -6 11 -13 20 -16 20
-2 0 0 -9 6 -20z"/>
<path d="M5870 2246 c0 -2 7 -6 15 -10 8 -3 15 -1 15 4 0 6 -7 10 -15 10 -8 0
-15 -2 -15 -4z"/>
<path d="M6241 1968 c-14 -23 -14 -23 8 -4 22 20 25 26 13 26 -4 0 -13 -10
-21 -22z"/>
<path d="M6260 1911 c0 -21 26 -36 36 -20 9 15 -3 39 -21 39 -8 0 -15 -9 -15
-19z"/>
<path d="M8570 5534 c0 -8 6 -17 14 -20 8 -3 17 -16 20 -29 3 -13 15 -27 27
-30 26 -9 69 19 69 45 0 10 5 22 10 25 23 14 7 22 -31 15 -22 -4 -56 -4 -75 0
-26 6 -34 5 -34 -6z"/>
<path d="M8950 5247 c-19 -15 -50 -71 -50 -89 0 -30 36 -49 94 -49 32 -1 60 2
63 5 4 3 -6 6 -21 6 -17 0 -39 11 -56 29 -27 26 -28 31 -19 66 12 42 10 48
-11 32z"/>
<path d="M8845 5190 c-13 -6 -15 -9 -5 -9 8 0 22 4 30 9 18 12 2 12 -25 0z"/>
<path d="M8814 5161 c29 -19 46 -19 46 -1 0 5 -6 7 -14 4 -8 -3 -17 -1 -21 5
-3 6 -14 11 -23 11 -12 0 -8 -6 12 -19z"/>
<path d="M8760 5120 c0 -5 7 -7 15 -4 8 4 15 8 15 10 0 2 -7 4 -15 4 -8 0 -15
-4 -15 -10z"/>
<path d="M9040 3669 c0 -5 5 -7 10 -4 6 3 10 8 10 11 0 2 -4 4 -10 4 -5 0 -10
-5 -10 -11z"/>
<path d="M11338 3353 c7 -3 16 -2 19 1 4 3 -2 6 -13 5 -11 0 -14 -3 -6 -6z"/>
<path d="M1336 2252 c-3 -5 1 -9 9 -9 8 0 15 4 15 9 0 4 -4 8 -9 8 -6 0 -12
-4 -15 -8z"/>
<path d="M1720 2005 c-11 -13 -11 -18 0 -28 7 -7 10 -7 7 -2 -3 6 3 11 13 11
14 0 16 -4 8 -13 -7 -9 -6 -17 5 -27 13 -14 16 -14 21 0 4 10 2 13 -6 8 -7 -4
-8 -3 -4 5 4 6 11 9 16 6 10 -6 8 -24 -4 -44 -6 -10 -5 -12 2 -7 6 4 20 -2 31
-13 22 -22 61 -37 61 -22 0 5 -10 18 -23 28 -12 10 -40 39 -62 66 -43 52 -47
54 -65 32z m93 -79 c4 -10 1 -13 -8 -9 -8 3 -12 9 -9 14 7 12 11 11 17 -5z"/>
<path d="M1856 1845 c-9 -14 -13 -25 -9 -24 4 1 11 0 16 -1 4 -1 12 -3 18 -4
5 0 18 -14 27 -31 9 -16 18 -32 19 -34 2 -2 12 4 23 14 20 18 21 18 14 -1 -5
-15 -4 -16 5 -4 12 17 -15 54 -32 43 -6 -3 -7 -1 -3 5 11 18 -34 43 -58 31
-19 -9 -20 -9 -3 4 18 15 22 27 8 27 -5 0 -16 -11 -25 -25z"/>
<path d="M2292 1478 c4 -9 0 -25 -8 -37 -8 -11 -12 -21 -9 -21 3 0 1 -10 -6
-21 -9 -18 -7 -25 12 -45 13 -13 40 -39 59 -59 19 -19 41 -35 48 -35 7 0 10
-5 7 -11 -4 -6 2 -13 14 -16 12 -3 21 -13 21 -25 0 -10 4 -16 10 -13 5 3 25
-9 44 -27 42 -40 86 -73 98 -73 5 0 13 -7 19 -15 8 -13 11 -12 24 4 8 11 15
25 15 32 0 7 13 15 30 19 57 12 49 25 -70 115 -47 35 -121 93 -165 130 -109
90 -150 118 -143 98z"/>
</g>
</svg>
