<?xml version="1.0" standalone="no"?>
<!DOCTYPE svg PUBLIC "-//W3C//DTD SVG 20010904//EN"
 "http://www.w3.org/TR/2001/REC-SVG-20010904/DTD/svg10.dtd">
<svg version="1.0" xmlns="http://www.w3.org/2000/svg"
 width="1600.000000pt" height="896.000000pt" viewBox="0 0 1600.000000 896.000000"
 preserveAspectRatio="xMidYMid meet">

<g transform="translate(0.000000,896.000000) scale(0.100000,-0.100000)"
fill="#000000" stroke="none">
<path d="M0 8326 l0 -634 81 2 c81 3 83 2 144 -38 116 -77 164 -157 144 -244
-23 -108 -102 -228 -164 -252 -50 -19 -123 -18 -159 1 -20 10 -38 19 -41 19
-3 0 -5 -977 -5 -2170 l0 -2170 37 15 c20 8 66 35 102 59 68 44 119 67 107 47
-6 -9 -116 -74 -211 -124 l-35 -19 0 -1409 0 -1409 1401 0 1401 0 -6 78 c-4
42 -12 106 -17 142 -6 36 -12 119 -14 185 -2 67 -11 142 -19 170 -9 27 -13 59
-10 70 3 13 -11 63 -32 118 -34 89 -36 100 -25 141 6 25 11 83 11 130 0 75 -4
92 -27 136 -16 27 -34 50 -42 50 -23 0 -40 32 -41 75 0 22 -9 66 -20 98 -16
48 -18 69 -11 125 5 37 19 90 31 117 28 61 32 141 9 158 -9 7 -20 28 -24 47
-4 19 -12 41 -19 49 -15 19 -36 105 -27 111 21 14 48 112 52 190 1 8 6 33 11
55 6 22 11 46 12 53 2 8 14 29 29 47 15 19 27 45 27 59 0 20 9 30 40 46 53 27
85 25 171 -11 157 -67 619 -299 707 -355 51 -32 116 -74 145 -92 29 -19 117
-65 197 -103 306 -148 418 -207 539 -282 138 -85 193 -133 251 -217 21 -31 45
-62 54 -69 24 -20 36 -76 42 -203 3 -63 7 -125 10 -139 8 -49 24 -137 43 -232
16 -84 17 -117 10 -220 -9 -116 -8 -125 16 -204 24 -77 26 -92 20 -203 l-7
-120 5556 0 5556 0 0 3818 0 3819 -36 11 c-20 6 -42 8 -49 6 -22 -9 -88 189
-98 294 -5 55 7 132 29 177 15 33 86 89 137 108 14 5 17 19 17 85 l0 79 -62 6
c-216 22 -221 22 -255 -7 -55 -46 -63 -77 -63 -243 0 -209 -16 -452 -41 -611
-22 -141 -21 -235 2 -285 18 -40 3 -94 -39 -137 -45 -47 -95 -84 -142 -106
-19 -9 -56 -31 -81 -49 -25 -18 -55 -36 -67 -39 -29 -10 -39 -50 -18 -79 9
-12 23 -32 32 -45 23 -31 25 -96 8 -217 -19 -128 -40 -197 -81 -262 -18 -29
-39 -68 -47 -86 -7 -18 -28 -49 -45 -69 -44 -50 -41 -70 18 -101 27 -15 57
-27 67 -27 48 0 219 -79 271 -125 30 -27 36 -40 41 -83 6 -71 -27 -160 -79
-206 -56 -51 -103 -61 -226 -46 -148 17 -252 16 -290 -3 -42 -22 -51 -71 -24
-127 32 -67 139 -191 223 -258 43 -34 78 -69 78 -76 0 -27 -40 -64 -82 -75
-64 -18 -805 -27 -1021 -12 -206 14 -317 30 -317 45 0 6 -18 27 -40 46 -22 19
-40 38 -40 41 0 12 -71 84 -80 82 -5 -2 -12 6 -15 17 -4 11 -12 20 -20 20 -7
0 -21 18 -31 40 -10 22 -21 40 -26 40 -4 0 -5 12 -2 28 3 15 -2 58 -10 96 -15
64 -15 71 0 95 10 14 23 30 31 34 7 4 13 15 13 22 0 8 5 15 12 15 25 0 -18 27
-80 51 -79 30 -101 52 -83 81 10 17 9 28 -9 73 -20 50 -20 55 -6 84 9 16 32
43 53 58 45 35 193 93 252 99 24 2 47 6 51 9 34 21 367 26 493 6 98 -15 223
-4 277 24 34 17 37 38 16 97 -13 37 -13 189 0 253 15 75 129 260 211 344 18
18 33 44 33 56 0 30 -48 70 -128 108 -105 49 -174 47 -297 -8 -67 -30 -96 -37
-189 -42 -70 -4 -88 -1 -181 31 -56 20 -122 36 -146 36 -24 1 -73 7 -108 14
-73 16 -121 56 -166 138 -23 43 -27 58 -23 111 3 35 16 91 32 130 36 89 46
223 22 312 -26 95 -48 302 -40 370 8 70 36 160 71 227 22 42 24 56 19 101 -4
28 -11 56 -16 62 -22 26 -79 156 -90 204 -12 52 -9 190 6 254 l6 27 -323 0
-324 0 0 -133 c0 -147 -7 -175 -72 -275 -35 -56 -56 -83 -99 -126 -12 -11 -29
-36 -38 -54 -16 -32 -16 -33 25 -118 l42 -86 -6 -96 c-5 -100 -32 -264 -48
-294 -5 -10 -9 -27 -9 -37 0 -11 -4 -23 -10 -26 -5 -3 -10 -16 -10 -27 0 -23
-35 -100 -62 -137 -31 -41 -23 -72 32 -126 57 -57 75 -105 65 -174 -15 -103
-65 -145 -197 -166 -122 -18 -155 -30 -200 -73 -58 -56 -49 -100 50 -240 13
-18 26 -47 29 -64 3 -17 8 -41 12 -52 4 -12 4 -55 1 -96 -12 -127 -31 -312
-39 -367 -12 -81 13 -104 134 -118 120 -14 197 -48 272 -121 27 -25 51 -79 59
-131 3 -21 8 -46 10 -56 9 -30 97 -65 182 -72 143 -11 147 -12 149 -45 2 -22
-3 -31 -20 -36 -21 -7 -21 -7 6 -16 15 -5 27 -13 27 -18 0 -14 -89 -38 -165
-46 -83 -8 -305 -85 -305 -105 0 -12 -59 -37 -115 -49 -67 -15 -204 -23 -224
-14 -9 4 -20 8 -26 8 -24 2 -3 134 31 192 16 28 16 37 5 86 -18 84 -23 87
-131 99 -52 5 -139 22 -192 36 -114 30 -158 27 -233 -18 -158 -93 -249 -121
-386 -120 -71 1 -113 -4 -162 -19 -37 -12 -67 -24 -67 -28 0 -4 -24 -22 -54
-40 -55 -32 -59 -38 -71 -100 -4 -18 -17 -40 -30 -48 -33 -22 -104 -154 -111
-208 -10 -71 21 -111 84 -109 144 7 278 15 283 19 17 10 208 77 259 90 74 20
446 44 759 51 l254 5 113 -42 c100 -38 115 -46 128 -75 9 -18 16 -46 16 -63 0
-84 -82 -110 -442 -142 -65 -5 -135 -12 -155 -15 -21 -3 -67 -10 -103 -15 -36
-5 -103 -14 -150 -20 -47 -7 -128 -21 -181 -33 -81 -18 -94 -24 -80 -34 14
-11 13 -12 -6 -13 -13 0 -23 6 -23 13 0 9 -2 9 -8 -1 -5 -7 -26 -13 -48 -13
-21 1 -138 -3 -259 -8 -406 -17 -710 -18 -729 -2 -9 8 -32 15 -52 17 -111 8
-174 26 -209 58 -21 20 -35 42 -35 56 0 13 -5 49 -11 79 -9 48 -8 65 9 118 30
93 18 131 -67 223 -28 30 -64 73 -79 95 -15 22 -39 52 -54 66 -59 59 -127 193
-135 266 -7 59 23 138 65 173 34 28 115 54 207 66 28 4 178 8 335 8 248 1 303
4 420 24 74 13 142 27 151 32 9 5 34 12 55 16 l39 8 -40 8 c-21 5 -42 12 -45
17 -3 4 -42 22 -87 39 -72 27 -123 57 -318 188 -57 38 -73 42 -82 17 -71 -211
-215 -304 -448 -289 -191 12 -323 57 -377 128 -57 75 -71 116 -76 235 -7 169
19 285 90 395 23 35 47 77 54 94 14 34 11 48 -46 184 -42 100 -58 211 -42 288
17 82 15 127 -8 175 -34 72 -77 112 -167 153 -21 9 -45 24 -55 31 -9 8 -42 18
-74 22 -53 7 -60 6 -81 -15 -13 -13 -23 -30 -23 -39 0 -8 -4 -23 -10 -33 -5
-9 -19 -62 -31 -117 -27 -125 -37 -145 -99 -194 -75 -59 -134 -76 -265 -75
-131 0 -183 19 -250 89 -91 95 -122 268 -94 540 8 81 13 288 14 550 0 231 4
430 9 443 l8 22 -3311 0 c-3009 0 -3311 -1 -3311 -16 0 -8 21 -86 46 -172 31
-106 46 -178 47 -222 2 -69 -12 -101 -36 -82 -7 6 -14 10 -17 10 -3 1 -16 5
-30 10 -14 5 -74 10 -133 11 -59 1 -118 6 -131 11 -13 5 -49 32 -80 61 -80 75
-115 152 -129 285 l-11 104 -823 0 -823 0 0 -634z m3620 464 c0 -5 6 -10 14
-10 34 0 34 -94 0 -221 -21 -78 -33 -104 -60 -129 -34 -34 -121 -64 -151 -53
-11 4 -14 3 -9 -6 4 -6 1 -35 -7 -64 -9 -29 -20 -71 -26 -93 -8 -30 -18 -43
-34 -48 -12 -3 -86 -6 -165 -6 -138 0 -190 9 -176 31 3 5 1 15 -4 22 -5 7 -15
36 -21 66 -6 30 -16 61 -23 68 -7 9 -7 17 0 26 10 13 19 55 28 132 3 27 7 52
10 55 3 3 75 4 159 3 108 -2 165 -7 189 -17 30 -13 35 -13 40 0 3 9 11 12 18
8 7 -4 10 -3 5 1 -4 5 0 19 8 31 8 13 17 39 20 58 5 45 18 69 62 115 29 31 42
38 79 40 25 1 44 -2 44 -9z m521 -420 c35 -33 51 -59 63 -100 20 -67 36 -367
39 -740 2 -257 1 -267 -22 -328 -42 -110 -93 -133 -169 -76 -40 31 -55 60 -83
160 -20 72 -22 107 -26 415 -7 475 5 588 75 697 23 36 68 26 123 -28z m-2198
-262 c45 -97 57 -188 69 -557 12 -386 5 -502 -35 -581 -31 -61 -58 -62 -114
-3 -23 25 -54 67 -68 94 -49 95 -56 129 -59 322 -2 100 -7 234 -11 297 -8 126
5 265 31 346 23 67 87 134 130 134 29 0 35 -5 57 -52z m2233 -1224 c18 -14 44
-43 56 -63 21 -34 23 -47 23 -202 0 -117 4 -170 12 -181 7 -8 32 -21 55 -28
24 -8 48 -17 53 -20 53 -35 210 -74 340 -85 11 -1 49 -5 85 -8 36 -4 153 -9
260 -12 172 -6 317 -2 915 20 77 3 191 14 254 25 62 11 133 20 157 20 51 0 94
-17 94 -38 0 -18 -40 -51 -64 -52 -10 0 -16 -5 -13 -12 3 -8 -5 -14 -22 -15
-125 -8 -261 -54 -321 -108 -23 -21 -41 -31 -144 -81 -46 -22 -145 -24 -296
-6 -119 14 -444 32 -570 32 -52 0 -124 -7 -160 -14 -133 -28 -426 -18 -615 22
-151 32 -217 153 -152 277 37 69 35 107 -7 152 -42 45 -80 162 -80 244 1 66
28 128 65 146 33 17 36 17 75 -13z m-3632 -15 c20 -12 36 -25 36 -29 0 -5 8
-11 18 -14 24 -8 62 -80 62 -118 0 -44 -36 -96 -78 -114 -45 -19 -131 -14
-184 11 -32 16 -64 57 -60 78 1 4 -2 17 -8 27 -8 15 -6 30 11 62 28 56 46 76
83 93 69 30 76 30 120 4z m13626 -99 c22 -11 49 -20 61 -20 12 0 23 -8 26 -19
3 -11 13 -21 24 -24 11 -3 19 -14 19 -25 0 -12 5 -24 10 -27 6 -4 22 -25 36
-46 31 -49 45 -159 23 -185 -7 -9 -14 -22 -15 -30 -3 -18 -46 -73 -59 -74 -15
-1 -55 -37 -55 -49 0 -6 -8 -11 -18 -11 -10 0 -22 -4 -27 -9 -6 -5 -37 -18
-70 -30 -67 -23 -142 -22 -267 5 -37 8 -74 11 -82 8 -9 -3 -16 -1 -16 4 0 6
-8 13 -19 17 -33 10 -73 55 -84 93 -5 20 -12 78 -14 127 -4 86 -3 92 25 133
38 57 76 79 186 107 50 12 118 34 151 48 75 31 115 33 165 7z m-12149 -444
c14 -7 68 -24 120 -36 158 -38 235 -59 221 -59 -7 -1 -10 -6 -7 -11 3 -6 -2
-13 -12 -17 -10 -4 -23 -14 -30 -24 -7 -9 -38 -27 -70 -40 -52 -21 -73 -24
-213 -24 -265 0 -300 29 -182 154 60 65 121 85 173 57z m277 -881 c17 10 93
10 332 1 69 -3 253 -8 410 -11 337 -6 579 -20 593 -34 25 -25 -16 -34 -208
-46 -49 -3 -116 -8 -148 -11 -70 -6 -270 -5 -312 2 -82 14 -126 16 -138 6 -36
-30 -287 -11 -582 45 -44 8 -100 18 -125 21 -25 4 -44 12 -43 17 4 14 164 22
186 10 11 -6 23 -6 35 0z m6910 -745 c50 -5 125 -16 165 -24 180 -36 514 -95
632 -112 17 -3 50 -9 75 -14 25 -6 85 -17 134 -25 50 -9 128 -27 175 -40 47
-13 120 -31 161 -39 41 -9 102 -23 135 -30 81 -19 270 -62 380 -86 50 -11 167
-38 260 -60 94 -22 231 -53 305 -69 323 -70 376 -81 388 -86 19 -7 394 -93
482 -111 41 -8 95 -21 120 -29 40 -12 300 -73 600 -141 217 -48 508 -115 580
-133 114 -28 248 -59 315 -71 33 -6 94 -19 135 -30 41 -10 92 -21 113 -25 20
-3 37 -10 37 -14 0 -5 10 -9 23 -9 58 -1 104 -13 160 -40 69 -34 137 -49 137
-32 0 6 5 8 10 5 6 -4 8 -11 5 -16 -8 -11 35 -12 54 0 8 5 27 5 45 -1 17 -5
36 -10 43 -12 16 -3 29 -16 17 -16 -6 0 -19 -7 -30 -16 -18 -15 -18 -15 7 -10
34 7 58 -16 39 -39 -10 -12 -10 -15 4 -15 18 0 22 -15 6 -25 -15 -9 -12 -25 6
-25 8 0 12 -4 9 -10 -3 -5 -25 -10 -48 -11 -34 0 -38 -2 -22 -10 15 -7 9 -8
-22 -4 -26 3 -43 1 -43 -5 0 -5 -9 -10 -20 -10 -11 0 -20 -7 -20 -15 0 -8 -9
-15 -20 -15 -11 0 -20 7 -20 15 0 20 -12 19 -41 -3 -39 -29 -78 -42 -107 -37
-23 5 -24 4 -7 -5 16 -7 11 -9 -22 -6 -27 2 -40 -1 -36 -7 4 -6 0 -8 -10 -4
-19 7 -32 -8 -16 -19 8 -5 9 -3 4 5 -6 10 -3 11 15 1 16 -9 25 -9 33 -1 6 6
18 11 27 11 8 0 2 -7 -13 -15 -15 -8 -34 -12 -42 -8 -9 3 -15 -1 -15 -8 0 -11
-2 -11 -9 0 -8 13 -12 13 -26 1 -17 -14 -27 -16 -105 -19 -27 -1 -31 -4 -20
-11 16 -10 15 -10 -32 -14 -7 -1 -17 -5 -21 -11 -5 -6 -7 -4 -4 5 2 8 12 14
22 13 11 -1 14 2 7 9 -7 7 -16 6 -30 -1 -10 -6 -22 -8 -25 -4 -4 3 -9 -1 -13
-10 -3 -9 -21 -21 -40 -27 -20 -7 -31 -16 -27 -23 4 -7 0 -8 -11 -4 -9 4 -41
-2 -71 -12 -29 -11 -56 -17 -59 -14 -3 3 -12 1 -19 -5 -8 -7 -16 -9 -19 -7 -3
3 -18 1 -34 -5 -16 -6 -51 -16 -77 -21 -27 -5 -63 -15 -80 -23 -67 -30 -96
-30 -128 0 -22 21 -26 30 -17 37 9 6 8 7 -4 3 -15 -4 -119 9 -158 21 -13 4
-13 5 0 13 11 7 6 10 -20 10 -26 0 -31 3 -22 12 8 8 21 9 45 1 19 -6 41 -7 48
-3 8 5 37 11 64 14 l50 5 -47 -12 c-123 -32 -20 -30 123 2 235 53 316 73 344
86 29 13 27 13 -25 8 -30 -3 -99 -5 -153 -4 -54 1 -117 -4 -140 -10 -23 -6
-49 -12 -57 -14 -8 -2 -35 -9 -60 -16 -64 -18 -59 -17 -125 -30 -70 -14 -106
-29 -99 -41 3 -4 0 -8 -6 -8 -9 0 -198 32 -325 55 -217 39 -329 59 -485 85
-102 16 -286 48 -410 70 -618 110 -1757 309 -2015 351 -66 11 -140 26 -165 34
-25 8 -103 24 -175 35 -71 11 -152 27 -180 35 -59 17 -231 47 -435 75 -408 58
-662 80 -927 80 -128 0 -155 -3 -159 -15 -4 -10 -18 -15 -38 -14 -17 0 -58 -4
-91 -10 -33 -6 -84 -11 -112 -11 -30 0 -53 -5 -53 -10 0 -13 5 -14 95 -30 39
-7 75 -18 80 -25 6 -7 28 -15 50 -18 40 -6 165 -36 330 -81 50 -14 131 -30
180 -36 50 -6 162 -26 250 -45 335 -71 455 -90 455 -72 0 6 7 2 15 -9 13 -16
16 -17 25 -4 5 8 10 10 10 4 0 -6 12 -16 27 -23 l28 -13 -25 -13 c-17 -9 -27
-10 -31 -3 -4 6 -12 7 -18 4 -6 -4 -35 -1 -64 8 -28 8 -137 29 -242 46 -302
49 -563 102 -725 145 -143 38 -180 45 -180 30 0 -7 57 -30 133 -54 72 -24 139
-45 147 -49 8 -3 17 -6 20 -7 3 -1 22 -9 42 -18 21 -10 47 -17 58 -17 11 0 20
-4 20 -8 0 -4 21 -18 46 -30 26 -13 45 -25 42 -27 -2 -2 -68 -1 -145 3 -135 7
-141 6 -126 -11 9 -9 18 -15 20 -13 3 2 13 -4 24 -15 10 -10 29 -19 42 -19 13
0 43 -6 68 -14 24 -8 70 -20 102 -27 43 -9 54 -15 42 -21 -8 -5 -13 -13 -10
-18 6 -10 36 -2 46 12 6 9 119 -13 359 -70 411 -99 587 -136 695 -147 179 -17
685 -109 1245 -225 162 -33 370 -76 461 -95 176 -37 237 -55 207 -62 -38 -9
-14 -19 80 -33 53 -7 109 -14 125 -15 31 -2 50 -15 21 -15 -16 0 -17 -2 -4
-10 8 -5 38 -7 67 -5 40 4 56 1 69 -13 14 -13 37 -17 109 -18 51 -1 110 -7
131 -15 22 -7 47 -13 56 -14 21 -2 37 -15 19 -15 -7 0 -10 -4 -7 -9 8 -13 -57
-21 -71 -9 -7 6 -21 7 -30 3 -10 -5 -29 -10 -43 -12 -39 -7 -44 -26 -9 -41 24
-10 43 -11 78 -3 30 6 50 6 58 -1 15 -12 36 -1 27 14 -4 7 -2 8 4 4 7 -4 12
-3 12 1 0 14 126 33 174 27 49 -7 53 -24 5 -24 -16 0 -29 -4 -29 -9 0 -9 -74
-26 -97 -22 -7 1 -13 -3 -13 -8 0 -5 -8 -10 -17 -10 -47 -1 -68 -7 -68 -21 0
-26 80 -30 175 -9 144 31 180 42 180 55 0 9 9 12 28 9 15 -2 44 -7 65 -10 20
-3 37 -10 37 -15 0 -9 -37 -15 -67 -11 -7 1 -13 -3 -13 -9 0 -6 -8 -10 -17 -8
-10 2 -37 -4 -61 -14 -24 -10 -56 -18 -70 -18 -26 -1 -27 -1 -7 -16 25 -20
137 -14 204 10 52 19 164 40 206 38 17 -1 46 -6 65 -11 19 -6 57 -13 84 -16
35 -5 45 -9 35 -16 -11 -7 -11 -9 -1 -9 7 0 10 -5 7 -11 -4 -6 -14 -8 -22 -4
-9 3 -25 -1 -37 -8 -12 -8 -42 -17 -69 -20 -26 -4 -60 -13 -75 -21 -16 -8 -48
-13 -76 -11 -63 4 -76 -1 -76 -31 0 -21 5 -24 33 -24 23 0 44 -9 67 -30 32
-28 38 -30 121 -30 68 0 89 -4 100 -16 11 -14 25 -15 79 -9 36 4 89 6 118 5
43 -1 64 5 107 29 49 28 122 40 109 19 -4 -5 -18 -7 -33 -4 -19 5 -22 4 -11
-4 20 -13 73 -13 65 0 -3 6 -3 10 2 10 4 0 18 3 31 6 13 4 22 3 21 -2 -4 -23
2 -26 16 -8 9 12 14 14 15 6 0 -7 5 -10 12 -6 6 4 8 3 5 -3 -4 -6 0 -18 7 -29
10 -13 24 -17 56 -16 47 3 110 -14 110 -30 0 -6 10 -8 25 -4 23 6 25 4 25 -30
0 -20 -5 -54 -12 -75 -10 -37 -14 -39 -50 -39 -32 0 -38 -3 -38 -20 0 -17 3
-19 19 -10 11 5 31 10 46 10 17 0 28 7 34 22 8 21 10 21 16 5 9 -23 -20 -56
-44 -50 -9 2 -23 -3 -30 -11 -8 -9 -20 -16 -27 -16 -8 0 -14 -7 -14 -15 0 -8
8 -15 17 -15 14 0 15 -2 4 -12 -11 -10 -14 -10 -18 0 -3 6 -16 12 -29 12 -21
0 -24 -5 -24 -38 0 -46 -25 -65 -81 -61 -21 2 -41 0 -45 -4 -4 -4 -2 -7 4 -7
7 0 12 -7 12 -15 0 -14 -11 -17 -79 -19 -13 -1 -26 -7 -28 -13 -3 -7 -13 -13
-24 -13 -20 0 -31 -7 -75 -47 -14 -13 -28 -22 -32 -22 -24 4 -42 -3 -42 -16 0
-21 -28 -19 -33 3 -4 14 -5 13 -6 -4 -1 -12 -14 -27 -33 -38 -18 -10 -50 -27
-70 -37 -21 -11 -52 -22 -70 -24 -17 -3 -36 -11 -40 -20 -5 -8 -18 -15 -28
-15 -11 0 -20 -4 -20 -10 0 -5 -11 -10 -25 -10 -14 0 -25 -4 -25 -10 0 -5 -6
-7 -14 -4 -7 3 -20 -2 -29 -10 -9 -9 -20 -16 -26 -16 -12 0 -180 -54 -216 -70
-11 -4 -42 -14 -70 -21 -27 -6 -54 -15 -60 -20 -5 -4 -37 -15 -70 -24 -33 -10
-64 -21 -69 -26 -6 -5 -20 -9 -32 -9 -13 0 -58 -13 -101 -29 -43 -16 -145 -50
-228 -76 -82 -25 -172 -54 -200 -64 -27 -10 -81 -28 -120 -39 -164 -48 -214
-63 -293 -87 -46 -14 -90 -25 -98 -25 -8 0 -32 -9 -53 -19 -21 -11 -89 -32
-152 -46 -63 -14 -132 -34 -154 -44 -41 -20 -81 -31 -125 -37 -14 -1 -36 -5
-50 -8 -14 -4 -40 -9 -57 -12 -18 -4 -33 -10 -33 -15 0 -5 -11 -9 -24 -9 -14
0 -27 -4 -30 -9 -3 -4 -25 -11 -48 -15 -103 -16 -138 -25 -138 -37 0 -5 -20
-9 -45 -9 -51 0 -58 13 -17 34 32 16 133 37 145 29 5 -3 14 3 21 12 12 16 105
54 136 55 8 0 53 16 100 35 46 19 92 35 102 35 10 0 18 4 18 8 0 4 24 13 53
18 28 6 104 29 167 51 63 22 142 48 175 58 33 9 67 21 75 25 9 4 31 11 49 15
46 10 202 83 222 104 9 10 20 27 23 39 6 18 0 24 -34 41 -59 28 -151 17 -340
-40 -36 -11 -96 -29 -135 -40 -38 -12 -78 -25 -88 -30 -10 -6 -73 -24 -140
-40 -143 -36 -254 -67 -282 -79 -11 -5 -76 -23 -145 -40 -69 -18 -134 -35
-145 -40 -11 -4 -47 -15 -80 -24 -33 -9 -85 -24 -115 -33 -30 -9 -82 -22 -115
-29 -142 -31 -233 -54 -265 -68 -19 -8 -30 -15 -25 -16 6 0 -1 -6 -15 -13 -20
-11 -25 -20 -24 -50 1 -20 10 -49 20 -64 10 -15 19 -32 19 -38 0 -9 25 -19 78
-30 57 -11 17 -55 -51 -55 -26 0 -71 -7 -101 -15 -92 -24 -295 -12 -330 19
-10 9 -25 14 -34 10 -9 -3 -24 1 -32 10 -9 9 -23 16 -31 16 -8 0 -14 5 -14 10
0 6 -33 10 -80 10 -64 0 -80 3 -80 15 0 23 -28 18 -53 -9 -20 -22 -31 -25
-115 -28 -50 -2 -88 -1 -82 0 25 9 6 22 -30 22 -22 0 -40 -4 -40 -10 0 -6 -33
-10 -80 -10 -47 0 -80 4 -80 10 0 6 -18 10 -40 10 -22 0 -40 -4 -40 -9 0 -5
-36 -12 -80 -16 -44 -4 -80 -11 -80 -16 0 -5 10 -9 23 -9 17 -1 19 -3 7 -9
-18 -10 -190 9 -190 21 0 4 -32 8 -70 8 -63 0 -197 28 -239 49 -9 5 -47 14
-84 20 -38 7 -85 21 -105 31 -20 11 -42 20 -49 20 -8 0 -22 4 -33 10 -42 21
-58 27 -160 61 -58 19 -106 37 -108 42 -2 4 -12 7 -22 7 -10 0 -22 4 -25 10
-3 5 -15 10 -25 10 -10 0 -47 13 -82 29 -35 16 -92 38 -126 50 -35 11 -83 29
-105 40 -23 11 -76 32 -117 46 -41 15 -84 31 -95 35 -11 5 -63 25 -115 45 -52
20 -104 40 -115 44 -11 5 -83 34 -160 64 -273 108 -325 130 -855 358 -118 50
-242 103 -275 116 -33 13 -127 53 -210 88 -658 279 -853 362 -1085 462 -146
64 -294 128 -329 145 -34 16 -91 40 -125 52 -33 13 -92 38 -131 56 -38 18
-164 74 -280 125 -115 51 -367 163 -560 250 -854 383 -1028 461 -1320 589
-386 170 -378 166 -364 182 6 7 32 16 57 19 87 12 666 106 772 126 58 10 152
25 210 34 58 8 166 24 240 35 180 28 565 85 775 115 94 14 206 32 250 39 86
15 163 27 540 81 132 19 285 44 340 55 55 12 147 25 204 30 107 10 672 84 911
119 74 11 293 41 485 66 193 25 445 59 560 75 558 78 812 110 1695 215 249 29
735 73 870 78 183 7 342 6 428 -3z m-1080 -892 c-3 -7 -13 -13 -23 -13 -10 0
-20 6 -22 13 -3 7 5 12 22 12 17 0 25 -5 23 -12z m652 -133 c47 -8 123 -21
170 -30 47 -8 128 -22 180 -29 52 -8 103 -18 112 -21 12 -5 21 2 33 25 23 44
28 32 8 -18 -11 -30 -21 -41 -32 -38 -9 3 -122 23 -251 46 -284 48 -340 60
-360 71 -24 13 43 11 140 -6z m560 -96 c-7 -16 -16 -29 -21 -29 -13 0 -11 17
8 53 20 39 30 19 13 -24z m371 -58 c282 -49 672 -116 1034 -180 94 -16 265
-46 380 -66 441 -77 1003 -175 1080 -189 44 -8 163 -29 265 -46 102 -18 321
-56 487 -86 166 -30 331 -57 367 -61 67 -6 84 -18 63 -47 -11 -15 -38 -12
-292 33 -269 47 -867 153 -970 171 -27 5 -104 19 -170 30 -66 12 -214 38 -330
59 -115 22 -244 44 -285 51 -41 7 -156 27 -255 45 -99 18 -310 56 -470 85
-159 28 -400 71 -535 95 -135 24 -337 60 -450 80 -227 40 -252 47 -244 70 11
27 -5 16 -31 -22 -14 -21 -25 -32 -25 -26 0 7 14 29 32 49 27 31 33 34 43 20
8 -11 95 -29 306 -65z m-229 -85 c35 -8 86 -17 113 -20 69 -9 237 -46 255 -58
20 -12 -76 -1 -205 23 -55 10 -114 19 -131 19 -37 0 -124 29 -124 41 0 12 18
11 92 -5z m-107 -16 c3 -5 1 -10 -4 -10 -6 0 -11 5 -11 10 0 6 2 10 4 10 3 0
8 -4 11 -10z m5600 -30 c3 -5 1 -10 -4 -10 -6 0 -11 5 -11 10 0 6 2 10 4 10 3
0 8 -4 11 -10z m-4993 -46 c40 -9 89 -18 108 -20 172 -20 527 -86 499 -92 -9
-1 -54 4 -100 12 -46 9 -109 18 -139 21 -78 8 -377 63 -450 83 -59 17 1 14 82
-4z m-9122 -124 c-6 -11 -14 -20 -19 -20 -4 0 -34 -17 -67 -38 -58 -38 -113
-70 -284 -167 -47 -27 -106 -63 -132 -81 -25 -18 -66 -43 -90 -55 -23 -12 -63
-36 -88 -53 -54 -37 -135 -76 -158 -76 -10 0 10 18 43 40 33 22 65 40 71 40 6
0 49 25 95 56 92 62 232 145 319 189 30 15 92 52 137 82 93 61 164 103 176
103 4 0 3 -9 -3 -20z m9827 -6 c-3 -3 -12 -4 -19 -1 -8 3 -5 6 6 6 11 1 17 -2
13 -5z m4223 -44 c0 -5 -7 -10 -16 -10 -8 0 -12 5 -9 10 3 6 10 10 16 10 5 0
9 -4 9 -10z m-96 -42 c6 -4 2 -7 -9 -6 -11 0 -29 -3 -40 -7 -17 -7 -16 -4 5
17 14 14 27 20 29 14 2 -6 9 -14 15 -18z m65 16 c2 -2 -10 -4 -27 -4 -17 0
-34 4 -37 10 -5 9 53 3 64 -6z m-131 -7 c-18 -18 -60 -29 -55 -14 2 7 11 11
20 9 8 -1 18 2 22 8 3 5 11 10 16 10 6 0 4 -6 -3 -13z m-861 -3 c-3 -3 -12 -4
-19 -1 -8 3 -5 6 6 6 11 1 17 -2 13 -5z m788 -4 c-3 -5 -12 -10 -18 -10 -7 0
-6 4 3 10 19 12 23 12 15 0z m-845 -10 c0 -5 -10 -10 -22 -10 -19 0 -20 2 -8
10 19 13 30 13 30 0z m800 -15 c-7 -9 -15 -13 -17 -11 -7 7 7 26 19 26 6 0 6
-6 -2 -15z m-375 -5 c3 -5 1 -10 -4 -10 -6 0 -11 5 -11 10 0 6 2 10 4 10 3 0
8 -4 11 -10z m323 -4 c25 5 25 4 7 -7 -24 -15 -35 -30 -29 -41 3 -4 -16 -13
-41 -19 -25 -6 -45 -15 -45 -19 0 -5 -17 -19 -37 -31 -21 -13 -40 -27 -41 -31
-2 -5 -11 -3 -20 4 -9 8 -13 8 -9 2 10 -16 -18 -25 -33 -11 -10 9 -12 9 -7 -4
3 -9 0 -16 -6 -16 -7 0 -21 -4 -32 -8 -16 -5 -17 -5 -5 4 12 9 11 11 -7 11
-20 0 -27 -9 -25 -31 1 -4 -4 -6 -11 -6 -49 1 -77 -4 -71 -14 4 -7 1 -10 -7
-7 -8 3 -26 -1 -40 -8 -15 -7 -29 -10 -32 -7 -4 3 -12 1 -19 -5 -7 -5 -65 -22
-128 -36 -63 -14 -130 -30 -148 -35 -38 -11 -36 -11 -63 -11 -13 0 -18 -4 -13
-12 5 -9 4 -10 -3 -3 -6 6 -8 41 -5 83 4 69 5 72 29 72 45 0 323 72 323 84 0
6 4 5 9 -3 6 -8 16 -11 31 -6 18 6 20 9 9 16 -11 7 -10 9 4 9 9 0 17 -6 18
-12 0 -10 2 -10 6 0 2 6 13 12 23 12 10 0 22 5 25 10 4 6 10 8 13 6 4 -2 36 1
70 9 34 7 62 10 62 6 0 -3 5 2 11 11 9 15 13 16 50 2 51 -17 53 -17 37 0 -7 7
-20 11 -28 9 -8 -2 -4 2 10 10 18 11 28 12 38 5 9 -8 16 -8 24 0 7 7 25 12 40
12 15 0 28 6 29 13 0 9 2 9 6 0 3 -8 15 -11 31 -7z m95 -16 c3 -13 0 -20 -9
-20 -8 0 -14 10 -14 26 0 28 15 25 23 -6z m-946 14 c-3 -3 -12 -4 -19 -1 -8 3
-5 6 6 6 11 1 17 -2 13 -5z m1033 -4 c0 -5 -7 -10 -16 -10 -8 0 -12 5 -9 10 3
6 10 10 16 10 5 0 9 -4 9 -10z m-120 -15 c0 -10 -41 -25 -52 -19 -8 5 -5 10 8
15 22 9 44 11 44 4z m-73 -60 c0 -8 -4 -12 -9 -9 -5 3 -6 10 -3 15 9 13 12 11
12 -6z m-43 -4 c3 -5 -5 -11 -19 -13 -28 -6 -35 8 -7 15 9 3 18 5 19 6 1 0 4
-3 7 -8z m-14214 -5 c0 -2 -7 -7 -16 -10 -8 -3 -12 -2 -9 4 6 10 25 14 25 6z
m14380 -66 c-8 -5 -26 -9 -40 -9 l-25 1 25 8 c14 4 32 8 40 9 13 1 13 0 0 -9z
m-56 -19 c5 0 -1 -9 -12 -20 -12 -10 -22 -23 -22 -30 0 -6 -4 -11 -9 -11 -5 0
-7 9 -4 20 5 17 1 20 -18 16 -13 -3 -28 -5 -34 -5 -5 -1 -3 -6 5 -11 9 -6 10
-10 3 -10 -6 0 -15 5 -18 10 -4 6 -14 9 -23 8 -20 -4 -47 -36 -37 -46 3 -3 10
0 14 7 7 10 10 10 16 1 11 -18 -13 -28 -55 -23 -22 3 -40 1 -44 -6 -5 -7 1
-11 14 -11 17 0 19 -2 8 -14 -9 -9 -15 -10 -20 -3 -5 8 -13 7 -30 0 l-23 -12
25 0 c37 -1 11 -18 -40 -25 -31 -4 -40 -3 -30 4 12 8 11 10 -8 10 -13 0 -20
-4 -17 -10 3 -5 -1 -10 -9 -10 -9 0 -16 -5 -16 -11 0 -5 -4 -8 -9 -4 -5 3 -12
1 -16 -4 -3 -6 -12 -8 -20 -5 -8 4 -19 -5 -28 -23 l-15 -28 42 0 c22 0 47 4
54 8 6 5 12 4 12 -1 0 -12 -59 -34 -71 -26 -5 3 -23 -2 -41 -10 -18 -8 -44
-17 -58 -19 -14 -1 -34 -8 -45 -14 -23 -12 -170 -3 -275 17 -36 7 -75 12 -87
12 -26 -2 -27 -1 -12 32 11 24 77 50 103 40 6 -2 43 7 81 21 39 14 85 25 103
25 18 0 43 6 55 14 20 13 116 37 158 39 9 1 15 7 12 14 -3 7 3 12 14 12 10 -1
27 1 38 4 11 3 33 8 49 13 23 5 27 4 21 -7 -8 -12 -6 -12 8 -1 11 10 29 12 57
7 38 -6 57 6 28 18 -8 3 -6 6 5 6 9 1 17 5 17 11 0 5 7 7 15 4 8 -4 27 1 41
11 16 10 35 14 51 10 13 -3 22 -2 19 3 -4 7 41 9 78 3z m-2887 -57 c-3 -3 -12
-4 -19 -1 -8 3 -5 6 6 6 11 1 17 -2 13 -5z m56 -11 c-7 -2 -21 -2 -30 0 -10 3
-4 5 12 5 17 0 24 -2 18 -5z m44 -9 c-3 -3 -12 -4 -19 -1 -8 3 -5 6 6 6 11 1
17 -2 13 -5z m1631 -36 c4 -30 -3 -33 -56 -22 -31 6 -47 27 -36 45 3 6 25 9
47 7 37 -3 42 -6 45 -30z m-406 -97 c4 -3 -12 -7 -35 -7 -23 0 -55 -3 -72 -7
-28 -8 -29 -7 -11 7 10 8 22 13 27 11 4 -3 11 0 14 5 7 11 63 4 77 -9z m83
-11 c3 -5 -1 -10 -9 -10 -9 0 -16 5 -16 10 0 6 4 10 9 10 6 0 13 -4 16 -10z
m1182 3 c-9 -2 -15 -8 -13 -12 3 -4 -5 -8 -16 -8 -20 -2 -20 -1 -2 12 11 8 26
14 34 14 10 -1 10 -3 -3 -6z m-1007 -27 c0 -31 -14 -40 -33 -22 -8 8 -32 18
-53 23 l-39 8 55 6 c30 3 58 6 63 7 4 1 7 -9 7 -22z m-40 -76 c0 -5 -10 -10
-22 -10 -19 0 -20 2 -8 10 19 13 30 13 30 0z m67 -386 c-3 -3 -12 -4 -19 -1
-8 3 -5 6 6 6 11 1 17 -2 13 -5z m546 -154 c-3 -11 -9 -17 -14 -14 -14 8 -10
34 5 34 9 0 12 -7 9 -20z m14 -52 c-3 -8 -6 -5 -6 6 -1 11 2 17 5 13 3 -3 4
-12 1 -19z m1208 -1021 c-3 -26 -15 -62 -26 -80 -10 -18 -24 -48 -29 -68 -7
-24 -26 -49 -57 -75 -66 -54 -93 -66 -139 -62 -45 4 -62 29 -71 104 -6 56 19
88 75 98 62 11 125 48 161 96 18 25 42 48 52 52 11 4 19 13 20 20 0 7 5 2 10
-12 6 -14 8 -47 4 -73z m-4774 -264 c-10 -4 -10 -7 -1 -13 8 -5 5 -9 -9 -13
-14 -3 -21 0 -21 8 0 13 15 23 35 23 6 0 4 -2 -4 -5z m-46 -23 c-10 -15 -78
-31 -89 -20 -6 6 -6 10 0 11 22 2 46 8 52 13 9 10 44 7 37 -4z m-310 -100 c-3
-5 -20 -10 -36 -10 -18 0 -28 4 -24 10 3 6 20 10 36 10 18 0 28 -4 24 -10z
m-675 -50 c0 -5 -9 -10 -20 -10 -11 0 -20 5 -20 10 0 6 9 10 20 10 11 0 20 -4
20 -10z"/>
<path d="M3386 8523 c-6 -14 -5 -15 5 -6 7 7 10 15 7 18 -3 3 -9 -2 -12 -12z"/>
<path d="M5628 3933 c6 -2 18 -2 25 0 6 3 1 5 -13 5 -14 0 -19 -2 -12 -5z"/>
<path d="M5140 3860 c0 -5 7 -10 15 -10 8 0 15 5 15 10 0 6 -7 10 -15 10 -8 0
-15 -4 -15 -10z"/>
<path d="M4700 3796 c8 -9 31 -19 50 -22 44 -9 38 -2 -20 20 -38 15 -43 15
-30 2z"/>
<path d="M4868 3783 c7 -3 16 -2 19 1 4 3 -2 6 -13 5 -11 0 -14 -3 -6 -6z"/>
<path d="M4558 3773 c12 -2 30 -2 40 0 9 3 -1 5 -23 4 -22 0 -30 -2 -17 -4z"/>
<path d="M4585 3750 c-4 -6 3 -10 14 -10 25 0 27 6 6 13 -8 4 -17 2 -20 -3z"/>
<path d="M4345 3741 c-3 -5 0 -13 7 -17 19 -12 -23 -22 -52 -13 -41 12 -116
21 -105 12 6 -5 27 -15 48 -22 42 -14 141 -6 131 11 -3 5 4 12 17 15 22 6 22
7 3 14 -27 11 -42 11 -49 0z"/>
<path d="M4428 3713 c6 -2 18 -2 25 0 6 3 1 5 -13 5 -14 0 -19 -2 -12 -5z"/>
<path d="M3995 3690 c3 -5 10 -10 16 -10 5 0 9 5 9 10 0 6 -7 10 -16 10 -8 0
-12 -4 -9 -10z"/>
<path d="M4145 3670 c19 -8 73 -14 64 -6 -2 2 -22 6 -44 9 -28 5 -34 4 -20 -3z"/>
<path d="M6770 3676 c0 -2 7 -7 16 -10 8 -3 12 -2 9 4 -6 10 -25 14 -25 6z"/>
<path d="M3791 3653 c22 -28 32 -33 64 -33 28 1 28 2 10 12 -11 7 -26 18 -33
25 -7 7 -23 13 -34 13 -18 0 -19 -2 -7 -17z"/>
<path d="M3863 3663 c9 -2 25 -2 35 0 9 3 1 5 -18 5 -19 0 -27 -2 -17 -5z"/>
<path d="M6642 3655 c-11 -12 -10 -15 3 -15 8 0 15 7 15 15 0 18 -2 18 -18 0z"/>
<path d="M3709 3640 c13 -11 30 -20 38 -20 23 0 6 17 -29 29 l-33 11 24 -20z"/>
<path d="M3928 3643 c7 -3 16 -2 19 1 4 3 -2 6 -13 5 -11 0 -14 -3 -6 -6z"/>
<path d="M6496 3632 c-3 -6 1 -13 10 -16 23 -9 28 -2 10 13 -8 7 -17 8 -20 3z"/>
<path d="M6550 3629 c0 -5 5 -7 10 -4 6 3 10 8 10 11 0 2 -4 4 -10 4 -5 0 -10
-5 -10 -11z"/>
<path d="M6598 3633 c7 -3 16 -2 19 1 4 3 -2 6 -13 5 -11 0 -14 -3 -6 -6z"/>
<path d="M3455 3610 c3 -5 11 -10 16 -10 6 0 7 5 4 10 -3 6 -11 10 -16 10 -6
0 -7 -4 -4 -10z"/>
<path d="M6303 3592 c-13 -2 -23 -8 -23 -13 0 -8 67 -3 78 6 6 5 -34 10 -55 7z"/>
<path d="M3583 3584 c14 -5 16 -9 6 -20 -9 -12 -6 -14 17 -13 23 0 25 2 11 8
-10 4 -18 11 -17 16 0 6 -7 11 -17 12 -17 2 -17 2 0 -3z"/>
<path d="M6205 3580 c-7 -12 18 -24 37 -18 8 3 5 9 -9 16 -14 8 -24 9 -28 2z"/>
<path d="M3150 3558 c0 -19 66 -68 91 -68 22 0 22 0 4 14 -11 8 -23 12 -27 10
-4 -2 -10 1 -14 7 -4 8 -3 9 4 5 7 -4 12 -2 12 3 0 6 -7 11 -15 11 -8 0 -15 7
-15 15 0 8 -9 15 -20 15 -11 0 -20 -6 -20 -12z"/>
<path d="M6110 3559 c0 -11 52 -17 74 -9 25 10 23 11 -31 14 -24 1 -43 -1 -43
-5z"/>
<path d="M6022 3548 c-7 -7 -12 -16 -12 -20 0 -14 30 -9 36 6 3 9 12 12 21 9
11 -4 14 -2 9 5 -9 15 -39 15 -54 0z"/>
<path d="M3248 3543 c6 -2 18 -2 25 0 6 3 1 5 -13 5 -14 0 -19 -2 -12 -5z"/>
<path d="M5916 3525 c8 -21 40 -19 49 3 5 13 4 14 -6 5 -8 -8 -18 -9 -30 -2
-15 7 -17 6 -13 -6z"/>
<path d="M13520 3533 c-14 -3 -104 -25 -200 -49 -96 -25 -193 -47 -215 -50
-22 -4 -58 -12 -80 -19 -22 -7 -67 -19 -99 -25 -32 -7 -147 -34 -255 -61 -108
-27 -206 -49 -218 -49 -13 0 -23 -4 -23 -10 0 -5 -7 -6 -17 -3 -10 4 -14 2
-10 -4 4 -6 -6 -9 -23 -8 -17 1 -30 -1 -30 -5 0 -9 61 -20 108 -20 38 0 239
45 292 65 73 28 171 53 415 105 55 12 123 28 150 35 28 8 88 21 135 30 109 21
160 36 160 47 0 8 -45 29 -58 27 -4 -1 -18 -4 -32 -6z"/>
<path d="M2870 3520 c-13 -9 -12 -13 9 -30 27 -23 49 -27 31 -5 -10 12 -9 16
5 21 13 5 14 9 3 15 -17 11 -30 11 -48 -1z"/>
<path d="M2968 3523 c7 -3 16 -2 19 1 4 3 -2 6 -13 5 -11 0 -14 -3 -6 -6z"/>
<path d="M5850 3519 c0 -6 -7 -8 -16 -5 -10 4 -14 1 -12 -6 8 -22 34 -20 35 2
1 11 0 20 -3 20 -2 0 -4 -5 -4 -11z"/>
<path d="M5877 3524 c-13 -13 -7 -24 13 -24 11 0 20 5 20 11 0 5 -4 8 -9 5 -5
-4 -11 -1 -13 5 -2 5 -7 7 -11 3z"/>
<path d="M2756 3501 c-5 -8 57 -71 70 -71 3 0 -10 18 -27 40 -36 44 -35 44
-43 31z"/>
<path d="M5750 3500 c0 -5 6 -10 14 -10 8 0 22 -3 30 -6 12 -5 15 -2 10 10 -7
17 -54 23 -54 6z"/>
<path d="M5686 3491 c5 -5 20 -12 34 -16 22 -7 23 -6 11 9 -7 9 -23 16 -34 16
-13 0 -17 -4 -11 -9z"/>
<path d="M3720 3474 l-45 -12 49 3 c49 4 64 9 49 17 -4 3 -28 -1 -53 -8z"/>
<path d="M4810 3482 c0 -12 19 -26 26 -19 2 2 -2 10 -11 17 -9 8 -15 8 -15 2z"/>
<path d="M5640 3479 c0 -6 -9 -8 -22 -3 -13 3 -19 3 -15 -2 5 -5 27 -9 49 -10
35 0 38 1 22 13 -22 16 -34 17 -34 2z"/>
<path d="M3623 3455 c-15 -17 -17 -25 -8 -25 8 0 17 5 21 11 3 6 16 8 28 5 19
-5 19 -4 4 8 -10 7 -15 16 -11 19 3 4 2 7 -3 7 -5 0 -19 -12 -31 -25z"/>
<path d="M4756 3466 c3 -8 14 -14 24 -13 23 2 14 27 -11 27 -12 0 -16 -5 -13
-14z"/>
<path d="M5550 3464 c0 -12 -7 -14 -29 -9 -21 4 -30 2 -34 -9 -4 -10 -1 -16 8
-16 8 0 15 3 15 8 0 4 20 7 45 7 50 0 53 2 28 21 -24 18 -33 17 -33 -2z"/>
<path d="M4686 3461 c-18 -7 -18 -8 -2 -14 29 -11 58 -8 54 6 -6 15 -27 18
-52 8z"/>
<path d="M6638 3463 c7 -3 16 -2 19 1 4 3 -2 6 -13 5 -11 0 -14 -3 -6 -6z"/>
<path d="M3568 3453 c7 -3 16 -2 19 1 4 3 -2 6 -13 5 -11 0 -14 -3 -6 -6z"/>
<path d="M3736 3447 c3 -10 9 -15 12 -12 3 3 0 11 -7 18 -10 9 -11 8 -5 -6z"/>
<path d="M4612 3448 c3 -7 15 -14 29 -16 24 -4 24 -3 4 12 -24 19 -38 20 -33
4z"/>
<path d="M5429 3453 c-1 -4 -1 -12 0 -16 1 -4 -16 -5 -36 -2 -31 5 -35 4 -20
-5 22 -14 90 -4 85 12 -5 14 -28 23 -29 11z"/>
<path d="M13980 3453 c-14 -3 -49 -11 -77 -19 -138 -37 -161 -42 -203 -49 -25
-4 -70 -14 -100 -23 -30 -9 -60 -17 -65 -18 -6 -1 -60 -15 -120 -32 -116 -33
-219 -59 -342 -87 -13 -3 -23 -9 -23 -14 0 -9 148 18 260 47 85 23 235 53 247
51 4 -1 15 0 23 3 20 8 203 48 264 59 86 15 191 40 205 48 8 5 11 16 8 25 -6
16 -26 18 -77 9z"/>
<path d="M3533 3433 c9 -9 19 -14 23 -11 10 10 -6 28 -24 28 -15 0 -15 -1 1
-17z"/>
<path d="M4574 3435 c22 -17 40 -20 32 -6 -3 5 -16 11 -28 14 -22 6 -22 5 -4
-8z"/>
<path d="M6518 3443 c7 -3 16 -2 19 1 4 3 -2 6 -13 5 -11 0 -14 -3 -6 -6z"/>
<path d="M3460 3425 c0 -8 5 -15 10 -15 6 0 10 7 10 15 0 8 -4 15 -10 15 -5 0
-10 -7 -10 -15z"/>
<path d="M4496 3433 c-3 -3 -3 -10 0 -14 7 -12 34 -11 34 0 0 11 -26 22 -34
14z"/>
<path d="M5231 3431 c-19 -12 -5 -31 22 -31 20 1 20 2 4 11 -9 6 -15 14 -12
20 8 11 4 11 -14 0z"/>
<path d="M5316 3429 c4 -8 -1 -9 -17 -5 -23 7 -23 7 -5 -8 23 -18 36 -20 36
-6 0 5 8 7 18 4 14 -5 14 -3 -2 10 -23 18 -40 21 -30 5z"/>
<path d="M7611 3424 c0 -11 3 -14 6 -6 3 7 2 16 -1 19 -3 4 -6 -2 -5 -13z"/>
<path d="M3412 3418 c3 -7 13 -15 24 -17 16 -3 17 -1 5 13 -16 19 -34 21 -29
4z"/>
<path d="M3715 3420 c7 -11 45 -19 45 -9 0 4 8 6 18 2 9 -3 14 -3 11 1 -9 10
-80 16 -74 6z"/>
<path d="M4436 3421 c-3 -5 4 -11 16 -14 30 -8 35 -1 9 12 -11 6 -22 7 -25 2z"/>
<path d="M3298 3402 c9 -10 23 -18 31 -18 9 -1 6 6 -9 18 -29 23 -45 23 -22 0z"/>
<path d="M3340 3411 c0 -5 14 -11 30 -13 17 -3 27 -1 22 4 -12 12 -52 19 -52
9z"/>
<path d="M4374 3408 c-3 -5 -12 -7 -20 -4 -8 3 -11 0 -7 -10 4 -11 13 -14 32
-9 36 9 46 21 22 28 -12 3 -24 1 -27 -5z"/>
<path d="M6358 3413 c6 -2 18 -2 25 0 6 3 1 5 -13 5 -14 0 -19 -2 -12 -5z"/>
<path d="M7050 3416 c0 -2 9 -6 20 -9 11 -3 20 -1 20 4 0 5 -9 9 -20 9 -11 0
-20 -2 -20 -4z"/>
<path d="M7450 3403 c0 -13 5 -23 10 -23 13 0 13 11 0 30 -8 12 -10 11 -10 -7z"/>
<path d="M7486 3407 c3 -10 9 -15 12 -12 3 3 0 11 -7 18 -10 9 -11 8 -5 -6z"/>
<path d="M3645 3400 c3 -6 -1 -7 -9 -4 -9 3 -16 1 -16 -5 0 -6 9 -11 20 -11
11 0 20 4 20 9 0 5 8 12 18 14 10 3 6 5 -11 6 -16 1 -26 -3 -22 -9z"/>
<path d="M6971 3397 c16 -18 54 -13 43 5 -4 6 -10 5 -14 -3 -7 -10 -12 -10
-27 1 -17 13 -17 13 -2 -3z"/>
<path d="M3220 3392 c0 -14 32 -20 55 -11 13 5 15 8 5 8 -8 1 -25 4 -37 7 -13
4 -23 2 -23 -4z"/>
<path d="M3562 3390 c-12 -5 -28 -7 -36 -4 -8 3 -17 1 -20 -4 -3 -5 5 -12 19
-14 14 -3 25 -1 25 5 0 5 11 7 23 5 15 -3 24 0 24 9 0 15 -3 15 -35 3z"/>
<path d="M4296 3391 c-3 -5 3 -11 13 -14 14 -3 18 -1 14 9 -6 16 -19 18 -27 5z"/>
<path d="M5116 3391 c-3 -5 -16 -7 -27 -4 -16 5 -20 2 -17 -8 6 -15 10 -15 47
-4 16 5 21 4 17 -4 -5 -8 0 -8 18 0 14 7 23 16 20 20 -7 12 -51 11 -58 0z"/>
<path d="M6238 3393 c7 -3 16 -2 19 1 4 3 -2 6 -13 5 -11 0 -14 -3 -6 -6z"/>
<path d="M6925 3390 c3 -5 11 -10 16 -10 6 0 7 5 4 10 -3 6 -11 10 -16 10 -6
0 -7 -4 -4 -10z"/>
<path d="M7382 3395 c4 -4 0 -14 -10 -21 -15 -12 -15 -12 6 -7 24 6 29 18 10
29 -7 4 -10 4 -6 -1z"/>
<path d="M3170 3375 c0 -8 7 -15 15 -15 8 0 15 4 15 9 0 5 -7 11 -15 15 -9 3
-15 0 -15 -9z"/>
<path d="M4224 3381 c3 -5 17 -11 31 -13 20 -4 23 -3 14 8 -12 15 -54 20 -45
5z"/>
<path d="M6198 3383 c7 -3 16 -2 19 1 4 3 -2 6 -13 5 -11 0 -14 -3 -6 -6z"/>
<path d="M6845 3380 c3 -5 11 -10 16 -10 6 0 7 5 4 10 -3 6 -11 10 -16 10 -6
0 -7 -4 -4 -10z"/>
<path d="M8220 3375 c0 -8 5 -15 11 -15 5 0 7 5 3 11 -5 8 3 10 25 7 18 -3 34
-1 37 4 3 4 -13 8 -35 8 -30 0 -41 -4 -41 -15z"/>
<path d="M3100 3365 c0 -8 5 -15 10 -15 6 0 10 5 10 11 0 8 5 8 15 -1 12 -10
15 -10 15 4 0 10 -9 16 -25 16 -16 0 -25 -6 -25 -15z"/>
<path d="M3426 3371 c5 -5 20 -12 34 -15 24 -7 24 -6 6 8 -21 17 -57 23 -40 7z"/>
<path d="M4160 3371 c0 -5 -18 -7 -41 -4 -40 6 -41 5 -28 -16 8 -11 18 -21 23
-21 4 0 3 7 -4 15 -10 12 -10 15 4 15 9 0 16 -5 16 -10 0 -7 7 -7 21 1 12 6
35 8 51 5 26 -5 29 -4 18 9 -13 16 -60 21 -60 6z"/>
<path d="M4984 3373 c-9 -3 -9 -10 0 -28 13 -29 26 -33 26 -7 0 23 -13 40 -26
35z"/>
<path d="M5038 3364 c13 -9 26 -13 30 -9 8 8 -17 25 -38 25 -9 0 -6 -6 8 -16z"/>
<path d="M6804 3369 c-3 -6 -1 -16 4 -21 8 -8 11 -5 9 11 -1 24 -3 25 -13 10z"/>
<path d="M7330 3371 c0 -6 5 -13 10 -16 6 -3 10 1 10 9 0 9 -4 16 -10 16 -5 0
-10 -4 -10 -9z"/>
<path d="M8155 3370 c-13 -6 -15 -9 -5 -9 8 0 22 4 30 9 18 12 2 12 -25 0z"/>
<path d="M3025 3360 c3 -5 14 -10 23 -10 15 0 15 2 2 10 -20 13 -33 13 -25 0z"/>
<path d="M3385 3360 c4 -6 -13 -10 -42 -11 -26 -1 -40 -3 -30 -6 9 -2 17 -9
17 -14 0 -5 5 -9 11 -9 5 0 7 5 4 10 -4 6 14 10 47 10 51 1 52 1 28 15 -30 17
-44 19 -35 5z"/>
<path d="M4905 3359 c-4 -5 -15 -9 -26 -9 -11 0 -17 -4 -14 -10 4 -6 -6 -10
-23 -10 -17 0 -32 -6 -36 -15 -3 -9 0 -15 9 -15 8 0 15 5 15 10 0 6 30 10 70
10 39 0 70 3 70 8 0 13 -59 41 -65 31z m25 -19 c0 -5 -9 -10 -21 -10 -11 0
-17 5 -14 10 3 6 13 10 21 10 8 0 14 -4 14 -10z"/>
<path d="M6736 3361 c-4 -5 3 -7 14 -4 23 6 26 13 6 13 -8 0 -17 -4 -20 -9z"/>
<path d="M7233 3363 c-13 -2 -23 -8 -23 -13 0 -5 14 -4 30 1 27 10 42 21 23
18 -5 -1 -18 -4 -30 -6z"/>
<path d="M4013 3353 c-7 -2 -13 -9 -13 -15 0 -7 5 -6 14 1 9 7 17 8 20 2 3 -5
0 -12 -6 -14 -7 -3 -3 -6 9 -6 30 -1 38 16 14 28 -11 6 -21 11 -23 10 -2 0 -9
-3 -15 -6z"/>
<path d="M6038 3353 c7 -3 16 -2 19 1 4 3 -2 6 -13 5 -11 0 -14 -3 -6 -6z"/>
<path d="M7620 3350 c0 -5 5 -10 11 -10 5 0 7 5 4 10 -3 6 -8 10 -11 10 -2 0
-4 -4 -4 -10z"/>
<path d="M8060 3351 c0 -6 4 -13 10 -16 6 -3 7 1 4 9 -7 18 -14 21 -14 7z"/>
<path d="M3255 3340 c3 -5 10 -10 16 -10 5 0 9 5 9 10 0 6 -7 10 -16 10 -8 0
-12 -4 -9 -10z"/>
<path d="M7135 3340 c3 -5 16 -10 28 -10 18 0 19 2 7 10 -20 13 -43 13 -35 0z"/>
<path d="M7550 3341 c0 -5 5 -13 10 -16 6 -3 10 -2 10 4 0 5 -4 13 -10 16 -5
3 -10 2 -10 -4z"/>
<path d="M8030 3346 c0 -2 8 -10 18 -17 15 -13 16 -12 3 4 -13 16 -21 21 -21
13z"/>
<path d="M8410 3340 c-23 -8 -23 -8 7 -7 17 1 29 5 27 9 -3 4 -6 8 -7 7 -1 -1
-13 -5 -27 -9z"/>
<path d="M3166 3331 c5 -5 27 -11 49 -14 l40 -6 -30 14 c-34 16 -75 20 -59 6z"/>
<path d="M3870 3332 c0 -5 14 -12 31 -16 44 -8 71 -6 34 4 -16 4 -38 11 -47
15 -10 4 -18 3 -18 -3z"/>
<path d="M3940 3336 c0 -2 9 -6 20 -9 11 -3 20 -1 20 4 0 5 -9 9 -20 9 -11 0
-20 -2 -20 -4z"/>
<path d="M5928 3333 c7 -3 16 -2 19 1 4 3 -2 6 -13 5 -11 0 -14 -3 -6 -6z"/>
<path d="M6620 3329 c0 -5 5 -7 10 -4 6 3 10 8 10 11 0 2 -4 4 -10 4 -5 0 -10
-5 -10 -11z"/>
<path d="M7050 3330 c0 -5 5 -10 11 -10 5 0 7 5 4 10 -3 6 -8 10 -11 10 -2 0
-4 -4 -4 -10z"/>
<path d="M7085 3330 c-3 -6 1 -7 9 -4 18 7 21 14 7 14 -6 0 -13 -4 -16 -10z"/>
<path d="M7968 3333 c6 -2 10 -8 8 -12 -3 -4 4 -7 15 -7 10 0 19 3 19 7 0 8
-27 19 -43 18 -8 0 -8 -2 1 -6z"/>
<path d="M14137 3332 c-10 -2 -16 -10 -13 -17 4 -12 -47 -26 -139 -38 -11 -1
-26 -7 -34 -11 -12 -8 -11 -11 4 -23 11 -7 27 -13 38 -13 10 0 15 -4 12 -10
-3 -5 -1 -10 5 -10 6 0 8 -4 5 -10 -6 -10 -1 -12 33 -13 27 0 72 14 72 24 0 5
8 9 18 10 10 0 12 3 4 6 -6 2 -10 9 -7 14 8 12 34 -13 28 -27 -3 -9 67 -11 87
-3 11 4 26 7 55 9 26 1 27 3 10 10 -22 9 -22 9 48 30 37 11 38 13 19 26 -11 8
-28 11 -38 7 -13 -5 -16 -3 -12 9 4 8 1 15 -8 15 -7 0 -11 -4 -8 -9 3 -4 1 -8
-5 -8 -5 0 -12 4 -15 9 -3 4 -40 7 -83 6 -43 -1 -67 1 -53 4 29 8 7 20 -23 13z"/>
<path d="M3100 3320 c0 -5 4 -10 9 -10 6 0 13 5 16 10 3 6 -1 10 -9 10 -9 0
-16 -4 -16 -10z"/>
<path d="M4727 3309 c12 -12 25 -20 28 -17 3 3 -7 13 -22 23 l-28 17 22 -23z"/>
<path d="M4750 3326 c0 -2 9 -6 20 -9 11 -3 18 -1 14 4 -5 9 -34 13 -34 5z"/>
<path d="M5878 3323 c7 -3 16 -2 19 1 4 3 -2 6 -13 5 -11 0 -14 -3 -6 -6z"/>
<path d="M6580 3326 c0 -2 7 -6 15 -10 8 -3 15 -1 15 4 0 6 -7 10 -15 10 -8 0
-15 -2 -15 -4z"/>
<path d="M6996 3315 c4 -8 8 -15 10 -15 2 0 4 7 4 15 0 8 -4 15 -10 15 -5 0
-7 -7 -4 -15z"/>
<path d="M7025 3320 c3 -5 8 -10 11 -10 2 0 4 5 4 10 0 6 -5 10 -11 10 -5 0
-7 -4 -4 -10z"/>
<path d="M7486 3319 c5 -9 40 -7 50 3 3 4 -8 6 -25 6 -17 -1 -28 -5 -25 -9z"/>
<path d="M7891 3314 c0 -11 3 -14 6 -6 3 7 2 16 -1 19 -3 4 -6 -2 -5 -13z"/>
<path d="M7910 3315 c0 -8 7 -15 16 -15 14 0 14 3 4 15 -7 8 -14 15 -16 15 -2
0 -4 -7 -4 -15z"/>
<path d="M3805 3309 c-4 -6 -14 -8 -22 -5 -8 3 -11 1 -8 -4 9 -15 34 -12 51 5
14 13 14 15 0 15 -8 0 -18 -5 -21 -11z"/>
<path d="M4617 3308 c-31 -8 -36 -13 -26 -24 6 -8 18 -14 26 -14 13 0 13 2 2
17 -12 15 -12 16 6 11 11 -3 29 -9 40 -13 16 -5 17 -5 5 4 -8 5 -11 13 -7 17
4 4 13 2 19 -4 7 -7 19 -12 27 -12 11 0 10 4 -5 15 -22 16 -34 17 -87 3z"/>
<path d="M6536 3307 c3 -10 9 -15 12 -12 3 3 0 11 -7 18 -10 9 -11 8 -5 -6z"/>
<path d="M6926 3305 c4 -8 11 -15 16 -15 6 0 5 6 -2 15 -7 8 -14 15 -16 15 -2
0 -1 -7 2 -15z"/>
<path d="M6960 3306 c0 -9 5 -16 10 -16 6 0 10 4 10 9 0 6 -4 13 -10 16 -5 3
-10 -1 -10 -9z"/>
<path d="M7451 3304 c0 -11 3 -14 6 -6 3 7 2 16 -1 19 -3 4 -6 -2 -5 -13z"/>
<path d="M7840 3312 c0 -12 19 -26 26 -19 2 2 -2 10 -11 17 -9 8 -15 8 -15 2z"/>
<path d="M8268 3313 c7 -3 16 -2 19 1 4 3 -2 6 -13 5 -11 0 -14 -3 -6 -6z"/>
<path d="M8520 3305 c-8 -9 -8 -15 -2 -15 12 0 26 19 19 26 -2 2 -10 -2 -17
-11z"/>
<path d="M8570 3310 c0 -5 5 -10 10 -10 6 0 10 5 10 10 0 6 -4 10 -10 10 -5 0
-10 -4 -10 -10z"/>
<path d="M3860 3300 c19 -13 30 -13 30 0 0 6 -10 10 -22 10 -19 0 -20 -2 -8
-10z"/>
<path d="M5758 3303 c6 -2 18 -2 25 0 6 3 1 5 -13 5 -14 0 -19 -2 -12 -5z"/>
<path d="M6465 3300 c-3 -5 3 -10 14 -10 12 0 21 5 21 10 0 6 -6 10 -14 10 -8
0 -18 -4 -21 -10z"/>
<path d="M6880 3295 c0 -8 4 -15 10 -15 5 0 7 7 4 15 -4 8 -8 15 -10 15 -2 0
-4 -7 -4 -15z"/>
<path d="M7395 3300 c-3 -5 1 -10 10 -10 9 0 13 5 10 10 -3 6 -8 10 -10 10 -2
0 -7 -4 -10 -10z"/>
<path d="M3670 3292 c0 -13 23 -32 38 -32 7 0 10 4 7 10 -9 14 -45 32 -45 22z"/>
<path d="M3739 3285 c42 -19 52 -19 27 0 -11 8 -29 15 -40 15 -16 -1 -12 -5
13 -15z"/>
<path d="M6345 3290 c-16 -7 -17 -9 -3 -9 9 -1 19 -7 21 -13 3 -7 6 -3 6 10 1
12 0 22 -1 21 -2 0 -12 -4 -23 -9z"/>
<path d="M6400 3292 c0 -4 12 -9 28 -10 21 -1 23 0 12 8 -18 12 -40 13 -40 2z"/>
<path d="M7690 3292 c0 -7 -7 -12 -15 -12 -8 0 -15 -4 -15 -10 0 -16 27 -11
34 6 4 9 4 19 1 22 -3 3 -5 0 -5 -6z"/>
<path d="M8170 3296 c0 -2 11 -6 25 -8 13 -3 22 -1 19 3 -5 9 -44 13 -44 5z"/>
<path d="M4535 3276 c11 -8 24 -12 28 -9 11 7 -12 23 -32 23 -11 0 -9 -4 4
-14z"/>
<path d="M5648 3283 c7 -3 16 -2 19 1 4 3 -2 6 -13 5 -11 0 -14 -3 -6 -6z"/>
<path d="M7205 3280 c3 -5 13 -10 21 -10 8 0 12 5 9 10 -3 6 -13 10 -21 10 -8
0 -12 -4 -9 -10z"/>
<path d="M8405 3280 c3 -5 12 -7 20 -3 21 7 19 13 -6 13 -11 0 -18 -4 -14 -10z"/>
<path d="M3582 3264 c-12 -8 -22 -10 -22 -5 0 6 -4 11 -8 11 -5 0 -9 -6 -9
-14 0 -15 36 -15 85 0 18 5 20 9 10 15 -19 12 -31 11 -56 -7z"/>
<path d="M4480 3270 c0 -7 -14 -9 -37 -5 -30 5 -34 4 -20 -5 11 -7 35 -9 65
-4 37 5 43 9 27 15 -28 11 -35 11 -35 -1z"/>
<path d="M5608 3273 c7 -3 16 -2 19 1 4 3 -2 6 -13 5 -11 0 -14 -3 -6 -6z"/>
<path d="M6258 3273 c-10 -2 -18 -9 -18 -15 0 -6 3 -8 7 -5 3 4 12 2 20 -5 11
-9 13 -8 11 2 -2 8 5 16 16 18 11 2 16 0 12 -7 -4 -6 -5 -11 -2 -11 2 0 12 -3
21 -7 15 -5 16 -3 6 15 -11 21 -33 26 -73 15z"/>
<path d="M7615 3270 c-3 -6 1 -13 10 -16 19 -8 30 0 20 15 -8 14 -22 14 -30 1z"/>
<path d="M4381 3261 c-10 -6 -9 -10 5 -15 20 -8 25 -4 16 11 -4 7 -13 9 -21 4z"/>
<path d="M7150 3254 c0 -8 5 -12 10 -9 6 3 10 10 10 16 0 5 -4 9 -10 9 -5 0
-10 -7 -10 -16z"/>
<path d="M7571 3261 c-10 -6 -10 -10 -1 -16 13 -8 24 -1 19 14 -3 6 -10 7 -18
2z"/>
<path d="M8000 3260 c-8 -5 -12 -12 -8 -15 10 -10 49 5 43 16 -8 11 -16 11
-35 -1z"/>
<path d="M3380 3251 c0 -4 -12 -6 -27 -3 -39 7 -26 -2 30 -21 48 -16 66 -14
25 3 -19 7 -20 9 -5 9 10 1 27 -4 37 -9 13 -7 21 -7 25 0 3 5 -3 10 -14 10
-11 0 -23 5 -26 10 -8 12 -45 13 -45 1z"/>
<path d="M3480 3245 c7 -8 19 -15 26 -15 8 0 11 6 8 15 -4 8 -15 15 -26 15
-17 0 -18 -3 -8 -15z"/>
<path d="M6190 3252 c0 -4 9 -8 20 -9 11 -1 20 2 20 5 0 4 -9 8 -20 9 -11 1
-20 -2 -20 -5z"/>
<path d="M6640 3250 c0 -5 7 -10 16 -10 8 0 12 5 9 10 -3 6 -10 10 -16 10 -5
0 -9 -4 -9 -10z"/>
<path d="M7101 3244 c0 -11 3 -14 6 -6 3 7 2 16 -1 19 -3 4 -6 -2 -5 -13z"/>
<path d="M7530 3250 c-13 -8 -12 -10 3 -10 9 0 17 5 17 10 0 12 -1 12 -20 0z"/>
<path d="M7940 3256 c0 -2 9 -6 20 -9 11 -3 20 -1 20 4 0 5 -9 9 -20 9 -11 0
-20 -2 -20 -4z"/>
<path d="M8280 3250 c0 -5 5 -10 10 -10 6 0 10 5 10 10 0 6 -4 10 -10 10 -5 0
-10 -4 -10 -10z"/>
<path d="M14380 3250 c0 -5 9 -10 21 -10 11 0 17 5 14 10 -3 6 -13 10 -21 10
-8 0 -14 -4 -14 -10z"/>
<path d="M4296 3235 c4 -8 16 -14 28 -14 16 1 17 2 4 6 -10 2 -18 9 -18 14 0
5 -4 9 -10 9 -5 0 -7 -7 -4 -15z"/>
<path d="M6150 3240 c18 -12 30 -13 30 -2 0 4 -10 9 -22 9 -18 2 -20 0 -8 -7z"/>
<path d="M6553 3242 c-7 -4 -9 -13 -4 -21 6 -10 10 -9 15 5 8 20 4 25 -11 16z"/>
<path d="M6588 3243 c6 -2 18 -2 25 0 6 3 1 5 -13 5 -14 0 -19 -2 -12 -5z"/>
<path d="M7431 3234 c6 -8 18 -14 26 -14 20 0 8 16 -17 23 -17 4 -19 3 -9 -9z"/>
<path d="M7478 3243 c7 -3 16 -2 19 1 4 3 -2 6 -13 5 -11 0 -14 -3 -6 -6z"/>
<path d="M8190 3239 c0 -6 -9 -9 -20 -6 -11 3 -20 1 -20 -4 0 -14 48 -11 53 4
4 10 6 10 6 0 1 -7 6 -13 12 -13 8 0 8 5 -1 15 -15 18 -30 20 -30 4z"/>
<path d="M4207 3226 c-13 -10 -15 -16 -6 -21 10 -7 28 10 29 28 0 9 -2 9 -23
-7z"/>
<path d="M6511 3224 c0 -11 3 -14 6 -6 3 7 2 16 -1 19 -3 4 -6 -2 -5 -13z"/>
<path d="M6990 3225 c0 -8 2 -15 4 -15 2 0 6 7 10 15 3 8 1 15 -4 15 -6 0 -10
-7 -10 -15z"/>
<path d="M7048 3233 c7 -3 16 -2 19 1 4 3 -2 6 -13 5 -11 0 -14 -3 -6 -6z"/>
<path d="M7866 3225 c4 -8 8 -15 10 -15 2 0 4 7 4 15 0 8 -4 15 -10 15 -5 0
-7 -7 -4 -15z"/>
<path d="M4165 3219 c-4 -6 -20 -8 -38 -4 -30 6 -31 5 -13 -10 29 -22 58 -17
64 13 3 15 -4 16 -13 1z"/>
<path d="M5318 3223 c6 -2 18 -2 25 0 6 3 1 5 -13 5 -14 0 -19 -2 -12 -5z"/>
<path d="M5980 3215 c0 -8 4 -15 10 -15 5 0 7 7 4 15 -4 8 -8 15 -10 15 -2 0
-4 -7 -4 -15z"/>
<path d="M6055 3220 c3 -5 8 -10 11 -10 2 0 4 5 4 10 0 6 -5 10 -11 10 -5 0
-7 -4 -4 -10z"/>
<path d="M6450 3221 c0 -6 5 -13 10 -16 6 -3 10 1 10 9 0 9 -4 16 -10 16 -5 0
-10 -4 -10 -9z"/>
<path d="M6912 3214 c10 -10 20 -16 22 -13 3 3 -5 11 -17 18 -21 13 -21 12 -5
-5z"/>
<path d="M6940 3226 c0 -2 7 -7 16 -10 8 -3 12 -2 9 4 -6 10 -25 14 -25 6z"/>
<path d="M7316 3215 c-16 -12 -17 -15 -4 -15 9 0 18 7 22 15 7 18 6 18 -18 0z"/>
<path d="M7360 3220 c0 -5 5 -10 10 -10 6 0 10 5 10 10 0 6 -4 10 -10 10 -5 0
-10 -4 -10 -10z"/>
<path d="M7765 3220 c-3 -5 1 -10 10 -10 9 0 13 5 10 10 -3 6 -8 10 -10 10 -2
0 -7 -4 -10 -10z"/>
<path d="M8090 3215 c0 -9 6 -12 15 -9 8 4 12 10 9 15 -8 14 -24 10 -24 -6z"/>
<path d="M6430 3211 c0 -5 5 -13 10 -16 6 -3 10 -2 10 4 0 5 -4 13 -10 16 -5
3 -10 2 -10 -4z"/>
<path d="M6375 3199 c-4 -6 -5 -12 -2 -15 7 -7 37 7 37 17 0 13 -27 11 -35 -2z"/>
<path d="M6811 3195 c12 -13 21 -14 44 -5 16 6 35 8 42 6 8 -3 11 -1 8 4 -7
11 -42 9 -62 -3 -6 -4 -14 -3 -18 3 -3 5 -11 10 -18 10 -7 0 -5 -6 4 -15z"/>
<path d="M7715 3200 c-3 -5 1 -10 9 -10 9 0 16 5 16 10 0 6 -4 10 -9 10 -6 0
-13 -4 -16 -10z"/>
<path d="M7996 3198 c3 -4 14 -8 24 -8 10 0 21 4 24 8 3 5 -8 9 -24 9 -16 0
-27 -4 -24 -9z"/>
<path d="M12950 3200 c-8 -4 -37 -15 -65 -23 l-50 -16 40 2 c22 0 50 -3 63 -7
20 -6 23 -5 21 11 -2 10 0 24 4 31 9 14 8 14 -13 2z"/>
<path d="M13013 3203 c-13 -2 -23 -8 -23 -13 0 -10 38 -1 46 11 3 5 4 8 2 8
-2 -1 -13 -4 -25 -6z"/>
<path d="M3955 3190 c4 -7 -2 -9 -19 -4 -15 3 -26 2 -26 -4 0 -5 11 -12 25
-14 14 -3 25 -1 25 3 0 5 9 9 21 9 11 0 17 5 14 10 -3 6 -15 10 -26 10 -11 0
-17 -5 -14 -10z"/>
<path d="M4030 3190 c-8 -5 -12 -11 -10 -13 9 -8 80 5 80 14 0 12 -51 11 -70
-1z"/>
<path d="M5158 3193 c7 -3 16 -2 19 1 4 3 -2 6 -13 5 -11 0 -14 -3 -6 -6z"/>
<path d="M5836 3193 c5 -5 12 -12 15 -16 3 -5 9 -2 12 7 5 12 0 16 -15 16 -12
0 -17 -3 -12 -7z"/>
<path d="M5885 3190 c3 -5 11 -10 16 -10 6 0 7 5 4 10 -3 6 -11 10 -16 10 -6
0 -7 -4 -4 -10z"/>
<path d="M6329 3187 c6 -8 8 -17 4 -20 -3 -4 -1 -7 5 -7 7 0 12 9 12 20 0 12
-7 20 -16 20 -13 0 -14 -3 -5 -13z"/>
<path d="M7180 3185 c0 -8 7 -15 16 -15 14 0 14 3 4 15 -7 8 -14 15 -16 15 -2
0 -4 -7 -4 -15z"/>
<path d="M7224 3193 c10 -10 66 -11 66 -1 0 4 -16 8 -37 8 -20 0 -33 -3 -29
-7z"/>
<path d="M7928 3193 c-28 -7 -21 -22 8 -18 31 3 58 26 29 24 -11 -1 -28 -3
-37 -6z"/>
<path d="M6273 3183 c-7 -2 -13 -12 -13 -21 1 -16 2 -16 14 0 7 10 16 15 19
11 4 -3 7 -1 7 5 0 13 -7 14 -27 5z"/>
<path d="M6717 3174 c6 -16 19 -18 27 -5 3 5 -3 11 -13 14 -14 3 -18 1 -14 -9z"/>
<path d="M7120 3186 c0 -2 8 -10 18 -17 15 -13 16 -12 3 4 -13 16 -21 21 -21
13z"/>
<path d="M7155 3180 c3 -5 8 -10 11 -10 2 0 4 5 4 10 0 6 -5 10 -11 10 -5 0
-7 -4 -4 -10z"/>
<path d="M13275 3175 c-16 -8 -38 -14 -47 -15 -9 0 -29 -5 -45 -11 -15 -7 -40
-12 -56 -13 -55 -2 -20 -21 41 -21 34 0 62 -3 62 -7 0 -5 8 -8 18 -8 13 0 14
2 4 9 -22 13 6 26 86 41 46 8 69 17 63 23 -16 16 -94 17 -126 2z"/>
<path d="M14416 3174 c-9 -8 -16 -20 -16 -26 0 -6 1 -9 3 -7 1 2 11 14 21 27
22 25 16 30 -8 6z"/>
<path d="M5038 3173 c7 -3 16 -2 19 1 4 3 -2 6 -13 5 -11 0 -14 -3 -6 -6z"/>
<path d="M5758 3175 c-3 -3 -20 -7 -38 -10 -36 -4 -66 -25 -37 -25 9 0 17 5
17 11 0 8 4 8 14 0 11 -9 15 -9 18 1 4 10 8 10 21 -1 15 -12 17 -11 17 8 0 22
-3 25 -12 16z"/>
<path d="M6235 3170 c3 -5 8 -10 11 -10 2 0 4 5 4 10 0 6 -5 10 -11 10 -5 0
-7 -4 -4 -10z"/>
<path d="M6646 3170 c-19 -6 -19 -7 -1 -14 10 -3 22 -3 28 3 12 12 -4 20 -27
11z"/>
<path d="M7094 3168 c3 -15 26 -23 26 -8 0 6 -4 9 -9 6 -5 -4 -12 -1 -14 4 -3
6 -4 5 -3 -2z"/>
<path d="M7516 3164 c-4 -9 -4 -19 -1 -22 3 -3 5 0 5 7 0 7 5 9 10 6 6 -3 10
-2 10 4 0 18 -18 21 -24 5z"/>
<path d="M7550 3170 c0 -5 5 -10 11 -10 5 0 7 5 4 10 -3 6 -8 10 -11 10 -2 0
-4 -4 -4 -10z"/>
<path d="M7580 3170 c0 -5 7 -10 16 -10 8 0 12 5 9 10 -3 6 -10 10 -16 10 -5
0 -9 -4 -9 -10z"/>
<path d="M7788 3167 c-41 -10 -50 -22 -18 -24 11 -1 18 2 15 6 -2 5 6 11 20
13 13 3 26 0 29 -6 3 -7 8 -6 14 3 6 8 17 11 26 8 8 -3 18 -2 21 3 7 12 -55
10 -107 -3z"/>
<path d="M3855 3160 c4 -6 -7 -8 -27 -4 -27 4 -30 3 -16 -6 20 -12 91 -3 82
11 -3 5 -14 9 -25 9 -11 0 -17 -4 -14 -10z"/>
<path d="M4988 3163 c6 -2 18 -2 25 0 6 3 1 5 -13 5 -14 0 -19 -2 -12 -5z"/>
<path d="M6185 3160 c-3 -5 1 -10 10 -10 9 0 13 5 10 10 -3 6 -8 10 -10 10 -2
0 -7 -4 -10 -10z"/>
<path d="M7025 3160 c-4 -6 -16 -8 -28 -4 -18 5 -20 4 -9 -7 10 -11 16 -11 32
-1 10 6 27 9 36 5 12 -4 15 -3 10 5 -9 15 -33 16 -41 2z"/>
<path d="M7476 3155 c-3 -9 0 -15 9 -15 9 0 12 6 9 15 -4 8 -7 15 -9 15 -2 0
-5 -7 -9 -15z"/>
<path d="M3696 3153 c-3 -4 8 -13 25 -20 41 -17 46 -12 10 10 -15 9 -31 14
-35 10z"/>
<path d="M6100 3151 c0 -6 4 -13 10 -16 6 -3 7 1 4 9 -7 18 -14 21 -14 7z"/>
<path d="M6120 3156 c0 -2 7 -6 15 -10 8 -3 15 -1 15 4 0 6 -7 10 -15 10 -8 0
-15 -2 -15 -4z"/>
<path d="M6520 3150 c-13 -8 -12 -10 3 -10 9 0 17 -5 17 -12 0 -6 3 -9 6 -5 3
3 2 12 -3 21 -6 10 -13 12 -23 6z"/>
<path d="M6576 3145 c4 -8 10 -15 15 -15 4 0 6 7 3 15 -4 8 -10 15 -15 15 -4
0 -6 -7 -3 -15z"/>
<path d="M7430 3145 c0 -9 5 -15 11 -13 6 2 11 8 11 13 0 5 -5 11 -11 13 -6 2
-11 -4 -11 -13z"/>
<path d="M14345 3150 c-3 -5 -1 -10 4 -10 6 0 11 5 11 10 0 6 -2 10 -4 10 -3
0 -8 -4 -11 -10z"/>
<path d="M3581 3141 c-11 -7 -10 -11 7 -20 11 -6 31 -11 44 -10 22 0 22 1 3 9
-18 8 -17 9 8 9 16 1 26 5 22 11 -8 12 -65 13 -84 1z"/>
<path d="M3760 3140 c20 -13 43 -13 35 0 -3 6 -16 10 -28 10 -18 0 -19 -2 -7
-10z"/>
<path d="M4868 3143 c7 -3 16 -2 19 1 4 3 -2 6 -13 5 -11 0 -14 -3 -6 -6z"/>
<path d="M5595 3140 c-3 -5 -2 -10 4 -10 5 0 13 5 16 10 3 6 2 10 -4 10 -5 0
-13 -4 -16 -10z"/>
<path d="M6886 3134 c-9 -22 3 -32 14 -14 12 19 12 30 1 30 -5 0 -12 -7 -15
-16z"/>
<path d="M7401 3134 c0 -11 3 -14 6 -6 3 7 2 16 -1 19 -3 4 -6 -2 -5 -13z"/>
<path d="M7715 3140 c3 -5 11 -10 16 -10 6 0 7 5 4 10 -3 6 -11 10 -16 10 -6
0 -7 -4 -4 -10z"/>
<path d="M4828 3133 c7 -3 16 -2 19 1 4 3 -2 6 -13 5 -11 0 -14 -3 -6 -6z"/>
<path d="M5556 3125 c-3 -8 -1 -15 3 -15 5 0 11 7 15 15 3 8 1 15 -3 15 -5 0
-11 -7 -15 -15z"/>
<path d="M6466 3126 c3 -8 13 -12 25 -9 16 5 18 8 7 14 -20 13 -38 11 -32 -5z"/>
<path d="M6920 3130 c-8 -5 -12 -11 -9 -14 2 -3 11 -1 19 4 8 5 12 11 9 14 -2
3 -11 1 -19 -4z"/>
<path d="M7360 3130 c0 -5 7 -10 16 -10 8 0 12 5 9 10 -3 6 -10 10 -16 10 -5
0 -9 -4 -9 -10z"/>
<path d="M7620 3125 c15 -18 51 -16 58 3 2 6 -1 12 -8 12 -6 0 -8 -4 -5 -10 3
-5 -1 -10 -9 -10 -8 0 -18 5 -21 10 -3 6 -11 10 -17 10 -6 0 -6 -6 2 -15z"/>
<path d="M13060 3130 c0 -5 5 -10 10 -10 6 0 10 5 10 10 0 6 -4 10 -10 10 -5
0 -10 -4 -10 -10z"/>
<path d="M5510 3120 c0 -5 5 -10 11 -10 5 0 7 5 4 10 -3 6 -8 10 -11 10 -2 0
-4 -4 -4 -10z"/>
<path d="M5974 3115 c21 -16 32 -13 21 4 -3 6 -14 11 -23 11 -15 -1 -15 -2 2
-15z"/>
<path d="M6020 3126 c0 -2 9 -6 20 -9 11 -3 18 -1 14 4 -5 9 -34 13 -34 5z"/>
<path d="M6380 3121 c0 -7 -5 -9 -10 -6 -14 9 -101 -5 -95 -15 3 -5 14 -6 25
-3 11 3 20 0 20 -6 0 -6 5 -11 11 -11 8 0 7 6 -2 16 -13 15 -11 17 19 12 31
-4 51 6 38 19 -3 4 -6 1 -6 -6z"/>
<path d="M6411 3114 c8 -10 15 -12 17 -5 2 6 8 9 13 5 5 -3 9 0 9 5 0 6 -12
11 -26 11 -23 0 -25 -2 -13 -16z"/>
<path d="M6850 3120 c0 -5 5 -10 11 -10 5 0 7 5 4 10 -3 6 -8 10 -11 10 -2 0
-4 -4 -4 -10z"/>
<path d="M7315 3119 c-4 -6 -4 -13 -1 -16 3 -4 6 -1 6 5 0 6 7 9 17 5 11 -4
14 -3 9 5 -9 15 -23 15 -31 1z"/>
<path d="M4708 3113 c6 -2 18 -2 25 0 6 3 1 5 -13 5 -14 0 -19 -2 -12 -5z"/>
<path d="M5435 3110 c3 -5 13 -10 21 -10 8 0 12 5 9 10 -3 6 -13 10 -21 10 -8
0 -12 -4 -9 -10z"/>
<path d="M5915 3110 c3 -5 10 -10 16 -10 5 0 9 5 9 10 0 6 -7 10 -16 10 -8 0
-12 -4 -9 -10z"/>
<path d="M6773 3113 c9 -3 17 -9 17 -15 0 -5 -7 -8 -15 -4 -8 3 -15 1 -15 -4
0 -6 9 -10 20 -10 11 0 20 5 20 10 0 6 9 10 20 10 40 0 19 15 -23 16 -23 0
-34 -1 -24 -3z"/>
<path d="M7265 3110 c-3 -5 1 -10 10 -10 9 0 13 5 10 10 -3 6 -8 10 -10 10 -2
0 -7 -4 -10 -10z"/>
<path d="M7525 3110 c-3 -5 -1 -10 4 -10 6 0 11 5 11 10 0 6 -2 10 -4 10 -3 0
-8 -4 -11 -10z"/>
<path d="M7550 3111 c0 -4 13 -8 30 -7 39 1 39 16 0 16 -16 0 -30 -4 -30 -9z"/>
<path d="M13278 3113 c7 -3 16 -2 19 1 4 3 -2 6 -13 5 -11 0 -14 -3 -6 -6z"/>
<path d="M5820 3106 c0 -2 8 -10 18 -17 15 -13 16 -12 3 4 -13 16 -21 21 -21
13z"/>
<path d="M7171 3094 c0 -11 3 -14 6 -6 3 7 2 16 -1 19 -3 4 -6 -2 -5 -13z"/>
<path d="M7210 3100 c18 -12 30 -13 30 -2 0 4 -10 9 -22 9 -18 2 -20 0 -8 -7z"/>
<path d="M7483 3103 c-19 -7 -15 -23 5 -23 10 0 19 7 19 15 0 16 -4 17 -24 8z"/>
<path d="M5356 3086 c3 -9 11 -16 16 -16 13 0 5 23 -10 28 -7 2 -10 -2 -6 -12z"/>
<path d="M6220 3085 l-25 -14 31 2 c17 1 31 8 31 15 0 15 -6 15 -37 -3z"/>
<path d="M6710 3090 c0 -6 7 -10 15 -10 8 0 15 2 15 4 0 2 -7 6 -15 10 -8 3
-15 1 -15 -4z"/>
<path d="M7407 3093 c-4 -3 -7 -11 -7 -17 0 -6 5 -5 12 2 6 6 9 14 7 17 -3 3
-9 2 -12 -2z"/>
<path d="M7440 3090 c0 -5 5 -10 10 -10 6 0 10 5 10 10 0 6 -4 10 -10 10 -5 0
-10 -4 -10 -10z"/>
<path d="M7110 3080 c0 -5 6 -10 14 -10 8 0 18 5 21 10 3 6 -3 10 -14 10 -12
0 -21 -4 -21 -10z"/>
<path d="M7366 3075 c4 -8 8 -15 10 -15 2 0 4 7 4 15 0 8 -4 15 -10 15 -5 0
-7 -7 -4 -15z"/>
<path d="M5740 3070 c0 -5 5 -10 11 -10 5 0 7 5 4 10 -3 6 -8 10 -11 10 -2 0
-4 -4 -4 -10z"/>
<path d="M6174 3061 c20 -22 26 -25 26 -13 0 4 -10 13 -22 21 -23 14 -23 14
-4 -8z"/>
<path d="M6638 3073 c7 -3 16 -2 19 1 4 3 -2 6 -13 5 -11 0 -14 -3 -6 -6z"/>
<path d="M7030 3070 c0 -5 5 -10 10 -10 6 0 10 5 10 10 0 6 -4 10 -10 10 -5 0
-10 -4 -10 -10z"/>
<path d="M7070 3076 c0 -2 7 -6 15 -10 8 -3 15 -1 15 4 0 6 -7 10 -15 10 -8 0
-15 -2 -15 -4z"/>
<path d="M7302 3066 c16 -16 43 -17 43 -1 0 5 -13 11 -29 13 -26 3 -27 2 -14
-12z"/>
<path d="M5180 3060 c20 -13 33 -13 25 0 -3 6 -14 10 -23 10 -15 0 -15 -2 -2
-10z"/>
<path d="M5645 3060 c3 -5 11 -10 16 -10 6 0 7 5 4 10 -3 6 -11 10 -16 10 -6
0 -7 -4 -4 -10z"/>
<path d="M5690 3060 c0 -5 5 -10 10 -10 6 0 10 5 10 10 0 6 -4 10 -10 10 -5 0
-10 -4 -10 -10z"/>
<path d="M6110 3066 c0 -2 7 -9 15 -16 13 -11 14 -10 9 4 -5 14 -24 23 -24 12z"/>
<path d="M6580 3060 c0 -5 10 -10 23 -10 18 0 19 2 7 10 -19 13 -30 13 -30 0z"/>
<path d="M4378 3053 c7 -3 16 -2 19 1 4 3 -2 6 -13 5 -11 0 -14 -3 -6 -6z"/>
<path d="M5597 3039 c3 -10 9 -16 14 -13 13 8 11 21 -5 27 -10 4 -12 0 -9 -14z"/>
<path d="M6948 3053 c7 -3 16 -2 19 1 4 3 -2 6 -13 5 -11 0 -14 -3 -6 -6z"/>
<path d="M6986 3045 c4 -8 10 -12 15 -9 14 8 10 24 -6 24 -9 0 -12 -6 -9 -15z"/>
<path d="M7265 3050 c3 -5 11 -10 16 -10 6 0 7 5 4 10 -3 6 -11 10 -16 10 -6
0 -7 -4 -4 -10z"/>
<path d="M5531 3034 c0 -11 3 -14 6 -6 3 7 2 16 -1 19 -3 4 -6 -2 -5 -13z"/>
<path d="M6480 3035 c0 -9 6 -12 15 -9 8 4 15 10 15 15 0 5 -7 9 -15 9 -8 0
-15 -7 -15 -15z"/>
<path d="M6886 3042 c-9 -15 11 -25 30 -14 11 6 13 11 5 16 -6 4 -11 1 -11 -6
0 -10 -2 -10 -9 1 -5 8 -11 9 -15 3z"/>
<path d="M7205 3040 c11 -5 27 -9 35 -9 13 -1 13 0 0 9 -8 5 -24 9 -35 9 l-20
0 20 -9z"/>
<path d="M5020 3036 c0 -2 7 -7 16 -10 8 -3 12 -2 9 4 -6 10 -25 14 -25 6z"/>
<path d="M6380 3033 c8 -3 18 -11 22 -16 4 -7 17 -6 37 3 18 7 30 15 27 17 -2
3 -13 0 -25 -6 -13 -7 -22 -8 -26 -1 -3 5 -16 10 -28 9 -15 0 -17 -2 -7 -6z"/>
<path d="M6840 3036 c0 -2 7 -9 15 -16 13 -11 14 -10 9 4 -5 14 -24 23 -24 12z"/>
<path d="M7118 3029 c-7 -4 -9 -12 -4 -16 5 -4 11 -3 13 3 2 6 15 9 28 6 14
-2 25 -2 25 1 0 9 -49 14 -62 6z"/>
<path d="M4935 3021 c-3 -5 -1 -12 5 -16 5 -3 10 -1 10 5 0 7 7 9 16 6 8 -3
12 -2 9 4 -8 13 -32 13 -40 1z"/>
<path d="M5396 3021 c-3 -5 0 -14 8 -20 10 -8 16 -8 25 2 6 8 8 17 4 20 -9 10
-31 9 -37 -2z"/>
<path d="M6320 3020 c0 -5 5 -10 11 -10 5 0 7 5 4 10 -3 6 -8 10 -11 10 -2 0
-4 -4 -4 -10z"/>
<path d="M6776 3023 c5 -5 12 -12 16 -18 4 -6 8 -2 8 8 0 9 -7 17 -17 17 -9 0
-12 -3 -7 -7z"/>
<path d="M6810 3020 c0 -5 7 -10 16 -10 8 0 12 5 9 10 -3 6 -10 10 -16 10 -5
0 -9 -4 -9 -10z"/>
<path d="M7070 3014 c0 -8 5 -12 10 -9 6 3 10 10 10 16 0 5 -4 9 -10 9 -5 0
-10 -7 -10 -16z"/>
<path d="M4896 3005 c4 -8 8 -15 10 -15 2 0 4 7 4 15 0 8 -4 15 -10 15 -5 0
-7 -7 -4 -15z"/>
<path d="M5850 3005 c0 -8 2 -15 4 -15 2 0 6 7 10 15 3 8 1 15 -4 15 -6 0 -10
-7 -10 -15z"/>
<path d="M6247 3013 c-23 -4 -26 -7 -16 -19 15 -19 22 -18 37 6 7 11 11 19 10
19 -2 -1 -16 -4 -31 -6z"/>
<path d="M6290 3016 c0 -2 7 -9 15 -16 13 -11 14 -10 9 4 -5 14 -24 23 -24 12z"/>
<path d="M7036 3005 c4 -8 8 -15 10 -15 2 0 4 7 4 15 0 8 -4 15 -10 15 -5 0
-7 -7 -4 -15z"/>
<path d="M4822 3003 c-13 -5 -7 -23 9 -23 6 0 8 4 5 9 -4 5 0 12 6 14 7 3 9 5
3 5 -5 0 -16 -2 -23 -5z"/>
<path d="M4870 3000 c0 -5 5 -10 11 -10 5 0 7 5 4 10 -3 6 -8 10 -11 10 -2 0
-4 -4 -4 -10z"/>
<path d="M5340 2994 c0 -8 5 -12 10 -9 6 4 8 11 5 16 -9 14 -15 11 -15 -7z"/>
<path d="M7000 3000 c0 -5 7 -10 16 -10 8 0 12 5 9 10 -3 6 -10 10 -16 10 -5
0 -9 -4 -9 -10z"/>
<path d="M5220 2989 c0 -7 -10 -9 -25 -7 -14 3 -28 1 -31 -4 -3 -4 -10 -6 -15
-3 -5 3 -6 -1 -3 -9 7 -18 24 -22 24 -6 0 6 16 10 35 10 24 0 35 5 35 15 0 8
-4 15 -10 15 -5 0 -10 -5 -10 -11z"/>
<path d="M5280 2996 c0 -2 7 -7 16 -10 8 -3 12 -2 9 4 -6 10 -25 14 -25 6z"/>
<path d="M5685 2990 c-3 -5 -1 -10 4 -10 6 0 11 5 11 10 0 6 -2 10 -4 10 -3 0
-8 -4 -11 -10z"/>
<path d="M6668 2993 c12 -2 32 -2 45 0 12 2 2 4 -23 4 -25 0 -35 -2 -22 -4z"/>
<path d="M6945 2990 c3 -5 11 -10 16 -10 6 0 7 5 4 10 -3 6 -11 10 -16 10 -6
0 -7 -4 -4 -10z"/>
<path d="M4686 2975 c4 -8 11 -15 16 -15 6 0 5 6 -2 15 -7 8 -14 15 -16 15 -2
0 -1 -7 2 -15z"/>
<path d="M4760 2980 c0 -5 5 -10 11 -10 5 0 7 5 4 10 -3 6 -8 10 -11 10 -2 0
-4 -4 -4 -10z"/>
<path d="M5610 2976 c0 -9 5 -16 10 -16 6 0 10 4 10 9 0 6 -4 13 -10 16 -5 3
-10 -1 -10 -9z"/>
<path d="M6565 2981 c-20 -4 -26 -9 -18 -14 7 -4 22 -3 33 3 14 8 20 8 20 0 0
-6 5 -8 10 -5 11 7 4 26 -8 24 -4 -1 -20 -4 -37 -8z"/>
<path d="M6870 2979 c0 -5 5 -7 10 -4 6 3 10 8 10 11 0 2 -4 4 -10 4 -5 0 -10
-5 -10 -11z"/>
<path d="M6896 2975 c-3 -9 0 -15 9 -15 8 0 15 7 15 15 0 8 -4 15 -9 15 -5 0
-11 -7 -15 -15z"/>
<path d="M6074 2961 c0 -11 5 -17 13 -14 10 4 11 9 2 19 -15 18 -15 18 -15 -5z"/>
<path d="M6120 2971 c0 -17 18 -21 24 -6 3 9 0 15 -9 15 -8 0 -15 -4 -15 -9z"/>
<path d="M6825 2970 c3 -5 14 -10 23 -10 15 0 15 2 2 10 -20 13 -33 13 -25 0z"/>
<path d="M5040 2960 c0 -6 7 -10 15 -10 8 0 15 2 15 4 0 2 -7 6 -15 10 -8 3
-15 1 -15 -4z"/>
<path d="M5090 2960 c0 -5 5 -10 11 -10 5 0 7 5 4 10 -3 6 -8 10 -11 10 -2 0
-4 -4 -4 -10z"/>
<path d="M5500 2961 c0 -5 7 -12 16 -15 14 -5 15 -4 4 9 -14 17 -20 19 -20 6z"/>
<path d="M5550 2955 c0 -8 4 -15 10 -15 5 0 7 7 4 15 -4 8 -8 15 -10 15 -2 0
-4 -7 -4 -15z"/>
<path d="M5660 2960 c0 -5 5 -10 10 -10 6 0 10 5 10 10 0 6 -4 10 -10 10 -5 0
-10 -4 -10 -10z"/>
<path d="M6010 2956 c0 -10 8 -16 22 -16 12 0 19 1 17 3 -2 1 -12 9 -21 16
-15 12 -18 11 -18 -3z"/>
<path d="M6770 2960 c0 -6 7 -10 15 -10 8 0 15 2 15 4 0 2 -7 6 -15 10 -8 3
-15 1 -15 -4z"/>
<path d="M13688 2963 c7 -3 16 -2 19 1 4 3 -2 6 -13 5 -11 0 -14 -3 -6 -6z"/>
<path d="M5930 2955 c0 -2 10 -10 23 -16 20 -11 21 -11 8 4 -13 16 -31 23 -31
12z"/>
<path d="M6440 2950 c0 -5 5 -10 10 -10 6 0 10 5 10 10 0 6 -4 10 -10 10 -5 0
-10 -4 -10 -10z"/>
<path d="M6480 2956 c0 -2 7 -7 16 -10 8 -3 12 -2 9 4 -6 10 -25 14 -25 6z"/>
<path d="M6720 2950 c-9 -6 -10 -10 -3 -10 6 0 15 5 18 10 8 12 4 12 -15 0z"/>
<path d="M5446 2938 c3 -4 12 -8 20 -8 8 0 14 4 14 8 0 4 -9 8 -19 8 -11 0
-17 -4 -15 -8z"/>
<path d="M5900 2940 c0 -5 5 -10 11 -10 5 0 7 5 4 10 -3 6 -8 10 -11 10 -2 0
-4 -4 -4 -10z"/>
<path d="M4460 2931 c0 -7 -10 -9 -27 -6 -27 5 -27 5 -5 -6 17 -9 25 -10 34
-1 6 6 9 15 5 19 -4 3 -7 1 -7 -6z"/>
<path d="M4510 2930 c0 -5 5 -10 10 -10 6 0 10 5 10 10 0 6 -4 10 -10 10 -5 0
-10 -4 -10 -10z"/>
<path d="M4907 2933 c-20 -5 -13 -23 9 -23 8 0 13 4 9 9 -3 5 3 12 12 14 12 3
13 5 3 5 -8 0 -23 -2 -33 -5z"/>
<path d="M5405 2930 c-3 -5 -2 -10 4 -10 5 0 13 5 16 10 3 6 2 10 -4 10 -5 0
-13 -4 -16 -10z"/>
<path d="M6335 2930 c-3 -5 1 -10 10 -10 9 0 13 5 10 10 -3 6 -8 10 -10 10 -2
0 -7 -4 -10 -10z"/>
<path d="M6610 2930 c-19 -6 -12 -8 27 -7 29 1 53 5 53 10 0 9 -47 8 -80 -3z"/>
<path d="M6232 2910 c-11 -18 -10 -20 15 -20 20 0 24 3 14 9 -7 5 -10 14 -7
20 4 6 3 11 -1 11 -5 0 -14 -9 -21 -20z"/>
<path d="M6297 2919 c7 -7 15 -10 18 -7 3 3 -2 9 -12 12 -14 6 -15 5 -6 -5z"/>
<path d="M4317 2905 c3 -8 9 -12 14 -9 12 7 11 11 -5 17 -10 4 -13 1 -9 -8z"/>
<path d="M4360 2916 c0 -2 7 -7 16 -10 8 -3 12 -2 9 4 -6 10 -25 14 -25 6z"/>
<path d="M5310 2913 c5 -2 8 -9 4 -14 -3 -5 0 -9 6 -9 15 0 7 23 -8 26 -7 1
-8 0 -2 -3z"/>
<path d="M6515 2905 l-30 -13 32 1 c17 1 29 5 27 9 -2 4 6 9 18 11 19 4 20 4
3 5 -11 1 -33 -5 -50 -13z"/>
<path d="M4238 2898 c5 -5 16 -8 23 -6 8 3 3 7 -10 11 -17 4 -21 3 -13 -5z"/>
<path d="M4770 2906 c0 -2 9 -6 20 -9 11 -3 18 -1 14 4 -5 9 -34 13 -34 5z"/>
<path d="M5250 2896 c28 -17 50 -21 35 -7 -6 5 -21 12 -35 15 l-25 7 25 -15z"/>
<path d="M6160 2900 c-12 -8 -10 -10 8 -10 13 0 20 4 17 10 -7 12 -6 12 -25 0z"/>
<path d="M5690 2884 c15 -17 30 -18 30 -1 0 7 -9 13 -21 14 -17 2 -18 -1 -9
-13z"/>
<path d="M6424 2893 c10 -10 46 -11 46 -1 0 4 -12 8 -27 8 -14 0 -23 -3 -19
-7z"/>
<path d="M7265 2890 c-22 -9 -21 -10 15 -15 32 -3 46 5 29 16 -16 10 -18 10
-44 -1z"/>
<path d="M5178 2883 c7 -3 16 -2 19 1 4 3 -2 6 -13 5 -11 0 -14 -3 -6 -6z"/>
<path d="M5630 2879 c0 -5 5 -7 10 -4 6 3 10 8 10 11 0 2 -4 4 -10 4 -5 0 -10
-5 -10 -11z"/>
<path d="M6108 2883 c6 -2 18 -2 25 0 6 3 1 5 -13 5 -14 0 -19 -2 -12 -5z"/>
<path d="M6380 2880 c8 -5 22 -10 30 -10 13 0 13 1 0 10 -8 5 -22 10 -30 10
-13 0 -13 -1 0 -10z"/>
<path d="M9878 2883 c7 -3 16 -2 19 1 4 3 -2 6 -13 5 -11 0 -14 -3 -6 -6z"/>
<path d="M5081 2863 c0 -11 3 -13 6 -5 2 6 9 10 14 6 5 -3 9 0 9 5 0 6 -7 11
-15 11 -8 0 -15 -8 -14 -17z"/>
<path d="M5590 2871 c0 -5 7 -12 16 -15 14 -5 15 -4 4 9 -14 17 -20 19 -20 6z"/>
<path d="M6050 2870 c0 -5 7 -10 16 -10 8 0 12 5 9 10 -3 6 -10 10 -16 10 -5
0 -9 -4 -9 -10z"/>
<path d="M6305 2870 c-3 -5 1 -10 10 -10 9 0 13 5 10 10 -3 6 -8 10 -10 10 -2
0 -7 -4 -10 -10z"/>
<path d="M6340 2870 c0 -5 5 -10 10 -10 6 0 10 5 10 10 0 6 -4 10 -10 10 -5 0
-10 -4 -10 -10z"/>
<path d="M7210 2865 c0 -8 4 -15 9 -15 5 0 11 7 15 15 3 9 0 15 -9 15 -8 0
-15 -7 -15 -15z"/>
<path d="M9925 2870 c27 -12 43 -12 25 0 -8 5 -22 9 -30 9 -10 0 -8 -3 5 -9z"/>
<path d="M5535 2856 c21 -15 35 -12 35 7 0 7 -4 6 -10 -3 -6 -10 -10 -11 -10
-2 0 6 -8 12 -17 12 -15 0 -14 -2 2 -14z"/>
<path d="M7136 2861 c-8 -12 21 -34 34 -26 8 5 8 11 -1 21 -13 16 -25 18 -33
5z"/>
<path d="M7185 2860 c3 -5 8 -10 11 -10 2 0 4 5 4 10 0 6 -5 10 -11 10 -5 0
-7 -4 -4 -10z"/>
<path d="M5015 2850 c3 -5 13 -10 21 -10 8 0 12 5 9 10 -3 6 -13 10 -21 10 -8
0 -12 -4 -9 -10z"/>
<path d="M5925 2850 c-4 -6 3 -10 14 -10 25 0 27 6 6 13 -8 4 -17 2 -20 -3z"/>
<path d="M6008 2853 c7 -3 16 -2 19 1 4 3 -2 6 -13 5 -11 0 -14 -3 -6 -6z"/>
<path d="M6240 2850 c18 -12 50 -13 50 -2 0 4 -15 8 -33 9 -23 2 -28 0 -17 -7z"/>
<path d="M7080 2850 c0 -3 -19 -5 -42 -5 -23 0 -43 -6 -45 -12 -3 -7 -11 -9
-19 -6 -8 3 -14 0 -14 -7 0 -8 9 -10 28 -6 15 4 44 9 66 11 21 1 45 10 54 19
14 13 13 15 -6 13 -12 -1 -22 -4 -22 -7z"/>
<path d="M4905 2840 c3 -5 11 -10 16 -10 6 0 7 5 4 10 -3 6 -11 10 -16 10 -6
0 -7 -4 -4 -10z"/>
<path d="M4970 2840 c8 -5 20 -10 25 -10 6 0 3 5 -5 10 -8 5 -19 10 -25 10 -5
0 -3 -5 5 -10z"/>
<path d="M5470 2840 c19 -13 30 -13 30 0 0 6 -10 10 -22 10 -19 0 -20 -2 -8
-10z"/>
<path d="M5875 2840 c3 -5 11 -10 16 -10 6 0 7 5 4 10 -3 6 -11 10 -16 10 -6
0 -7 -4 -4 -10z"/>
<path d="M10015 2840 c11 -5 27 -9 35 -9 9 0 8 4 -5 9 -11 5 -27 9 -35 9 -9 0
-8 -4 5 -9z"/>
<path d="M5826 2826 c3 -9 13 -16 22 -16 8 0 13 1 11 3 -2 1 -12 9 -22 16 -15
12 -17 12 -11 -3z"/>
<path d="M6153 2833 c9 -2 23 -2 30 0 6 3 -1 5 -18 5 -16 0 -22 -2 -12 -5z"/>
<path d="M5750 2818 c0 -12 7 -18 23 -17 15 0 17 2 7 6 -8 3 -18 11 -22 17 -5
7 -8 4 -8 -6z"/>
<path d="M6075 2820 c-3 -5 -1 -10 4 -10 6 0 11 5 11 10 0 6 -2 10 -4 10 -3 0
-8 -4 -11 -10z"/>
<path d="M5990 2808 c0 -5 7 -8 15 -8 8 0 18 0 22 -1 4 0 9 4 11 9 2 6 -8 9
-23 8 -14 0 -25 -4 -25 -8z"/>
<path d="M6896 2810 c7 -7 19 -7 35 -1 23 9 22 10 -10 10 -24 1 -32 -2 -25 -9z"/>
<path d="M10115 2810 c27 -12 43 -12 25 0 -8 5 -22 9 -30 9 -10 0 -8 -3 5 -9z"/>
<path d="M5660 2795 c0 -8 5 -15 11 -15 5 0 8 4 4 9 -3 5 3 12 12 14 14 4 13
5 -4 6 -14 1 -23 -5 -23 -14z"/>
<path d="M6835 2794 c-16 -12 -15 -13 15 -9 39 5 47 11 22 17 -10 3 -27 -1
-37 -8z"/>
<path d="M5600 2785 c0 -8 4 -15 10 -15 5 0 7 7 4 15 -4 8 -8 15 -10 15 -2 0
-4 -7 -4 -15z"/>
<path d="M5705 2790 c-16 -7 -17 -9 -3 -9 9 -1 20 4 23 9 7 11 7 11 -20 0z"/>
<path d="M6780 2789 c0 -6 -9 -8 -21 -4 -15 5 -19 4 -15 -4 10 -16 43 -13 50
4 3 8 1 15 -4 15 -6 0 -10 -5 -10 -11z"/>
<path d="M10180 2790 c8 -5 22 -9 30 -9 10 0 8 3 -5 9 -27 12 -43 12 -25 0z"/>
<path d="M4560 2786 c0 -2 7 -7 16 -10 8 -3 12 -2 9 4 -6 10 -25 14 -25 6z"/>
<path d="M4708 2783 c7 -3 16 -2 19 1 4 3 -2 6 -13 5 -11 0 -14 -3 -6 -6z"/>
<path d="M5878 2783 c7 -3 16 -2 19 1 4 3 -2 6 -13 5 -11 0 -14 -3 -6 -6z"/>
<path d="M6690 2770 c13 -11 30 -20 38 -20 12 0 12 4 -3 20 -10 11 -27 20 -38
20 -19 0 -19 -1 3 -20z"/>
<path d="M5550 2770 c0 -5 4 -10 9 -10 5 0 18 -3 28 -6 16 -6 16 -5 -2 9 -23
19 -35 21 -35 7z"/>
<path d="M5905 2770 c-4 -6 3 -10 14 -10 25 0 27 6 6 13 -8 4 -17 2 -20 -3z"/>
<path d="M4480 2760 c20 -13 33 -13 25 0 -3 6 -14 10 -23 10 -15 0 -15 -2 -2
-10z"/>
<path d="M4550 2759 c0 -5 5 -7 10 -4 6 3 10 8 10 11 0 2 -4 4 -10 4 -5 0 -10
-5 -10 -11z"/>
<path d="M5470 2755 c0 -8 7 -11 20 -8 11 3 20 8 20 12 0 4 -9 7 -20 8 -11 1
-20 -4 -20 -12z"/>
<path d="M5815 2760 c3 -5 11 -10 16 -10 6 0 7 5 4 10 -3 6 -11 10 -16 10 -6
0 -7 -4 -4 -10z"/>
<path d="M10280 2760 c8 -5 20 -10 25 -10 6 0 3 5 -5 10 -8 5 -19 10 -25 10
-5 0 -3 -5 5 -10z"/>
<path d="M5392 2746 c7 -8 17 -12 22 -9 4 3 2 9 -5 14 -22 13 -31 11 -17 -5z"/>
<path d="M5745 2750 c3 -5 14 -10 23 -10 15 0 15 2 2 10 -20 13 -33 13 -25 0z"/>
<path d="M6600 2753 c0 -5 11 -9 25 -9 14 -1 22 2 19 7 -6 11 -44 12 -44 2z"/>
<path d="M6478 2742 c-28 -6 -21 -19 12 -24 17 -3 30 -1 30 3 0 13 -25 25 -42
21z"/>
<path d="M6552 2739 c2 -6 8 -10 13 -10 5 0 11 4 13 10 2 6 -4 11 -13 11 -9 0
-15 -5 -13 -11z"/>
<path d="M5330 2729 c0 -5 5 -7 10 -4 6 3 10 8 10 11 0 2 -4 4 -10 4 -5 0 -10
-5 -10 -11z"/>
<path d="M5688 2733 c7 -3 16 -2 19 1 4 3 -2 6 -13 5 -11 0 -14 -3 -6 -6z"/>
<path d="M6847 2709 c7 -7 15 -10 18 -7 3 3 -2 9 -12 12 -14 6 -15 5 -6 -5z"/>
<path d="M6890 2709 c0 -5 9 -9 20 -9 11 0 20 2 20 4 0 2 -9 6 -20 9 -11 3
-20 1 -20 -4z"/>
<path d="M5100 2701 c0 -5 12 -11 27 -14 26 -5 26 -4 8 9 -22 16 -35 18 -35 5z"/>
<path d="M5195 2700 c3 -5 8 -10 11 -10 2 0 4 5 4 10 0 6 -5 10 -11 10 -5 0
-7 -4 -4 -10z"/>
<path d="M6317 2698 c2 -5 10 -8 18 -8 7 0 16 -6 18 -12 4 -10 8 -9 16 2 17
24 13 29 -23 27 -19 -1 -32 -5 -29 -9z"/>
<path d="M6770 2704 c0 -2 9 -8 20 -14 11 -6 20 -7 20 -2 0 6 -9 12 -20 15
-11 3 -20 3 -20 1z"/>
<path d="M7690 2689 c-115 -24 -130 -29 -130 -39 0 -5 12 -6 28 -3 15 3 35 5
45 5 9 0 17 4 17 10 0 6 9 8 20 5 11 -3 23 -1 26 5 3 5 12 7 20 4 8 -3 14 -1
14 3 0 5 16 8 35 6 24 -3 35 1 35 10 0 16 -11 16 -110 -6z"/>
<path d="M10465 2700 c11 -5 27 -9 35 -9 9 0 8 4 -5 9 -11 5 -27 9 -35 9 -9 0
-8 -4 5 -9z"/>
<path d="M5025 2680 c-18 -8 -17 -9 8 -9 16 -1 26 3 22 9 -3 6 -7 10 -8 9 -1
0 -11 -4 -22 -9z"/>
<path d="M5070 2686 c0 -2 7 -7 16 -10 8 -3 12 -2 9 4 -6 10 -25 14 -25 6z"/>
<path d="M6237 2684 c-6 -6 -17 -9 -60 -13 -5 -1 -5 -6 -2 -12 4 -6 14 -7 24
-3 9 3 30 7 46 8 17 0 29 6 28 11 -2 12 -26 18 -36 9z"/>
<path d="M6672 2682 c-8 -5 -24 -8 -38 -6 -13 1 -24 -1 -24 -5 0 -4 -8 -7 -17
-8 -54 -6 -67 -9 -71 -20 -2 -7 1 -13 7 -13 6 0 11 4 11 9 0 5 9 7 20 4 11 -3
20 -1 20 4 0 12 30 10 49 -2 11 -6 13 -4 8 8 -5 13 2 15 45 11 37 -3 49 -1 46
8 -5 16 -38 21 -56 10z"/>
<path d="M6750 2680 c0 -5 5 -10 11 -10 5 0 7 5 4 10 -3 6 -8 10 -11 10 -2 0
-4 -4 -4 -10z"/>
<path d="M10550 2675 c19 -7 42 -13 50 -13 8 0 -1 6 -20 13 -19 7 -42 13 -50
13 -8 0 1 -6 20 -13z"/>
<path d="M4935 2650 c3 -5 11 -10 16 -10 6 0 7 5 4 10 -3 6 -11 10 -16 10 -6
0 -7 -4 -4 -10z"/>
<path d="M6080 2640 c0 -5 10 -10 23 -10 18 0 19 2 7 10 -19 13 -30 13 -30 0z"/>
<path d="M7430 2634 c-36 -7 -74 -18 -85 -23 -11 -6 -29 -11 -39 -13 -11 -2
-21 -9 -24 -16 -3 -9 2 -10 20 -3 12 5 69 20 126 32 56 13 102 27 102 31 0 11
-23 9 -100 -8z"/>
<path d="M4766 2631 c-3 -5 3 -11 15 -14 16 -4 18 -3 8 9 -13 16 -16 17 -23 5z"/>
<path d="M5985 2629 c4 -5 18 -9 32 -9 32 0 27 7 -10 14 -16 3 -25 1 -22 -5z"/>
<path d="M6455 2630 c-3 -5 1 -10 9 -10 9 0 16 5 16 10 0 6 -4 10 -9 10 -6 0
-13 -4 -16 -10z"/>
<path d="M4845 2620 c4 -6 11 -8 16 -5 14 9 11 15 -7 15 -8 0 -12 -5 -9 -10z"/>
<path d="M6390 2619 c0 -5 5 -7 10 -4 6 3 10 8 10 11 0 2 -4 4 -10 4 -5 0 -10
-5 -10 -11z"/>
<path d="M5893 2599 c14 -8 22 -8 30 0 8 8 3 11 -18 11 -26 -1 -28 -2 -12 -11z"/>
<path d="M4910 2586 c4 -4 16 -4 26 2 16 9 14 10 -8 9 -15 -1 -23 -6 -18 -11z"/>
<path d="M5836 2588 c3 -4 9 -8 15 -8 5 0 9 4 9 8 0 5 -7 9 -15 9 -8 0 -12 -4
-9 -9z"/>
<path d="M6260 2596 c0 -3 9 -10 20 -16 11 -6 20 -8 20 -6 0 3 -9 10 -20 16
-11 6 -20 8 -20 6z"/>
<path d="M8610 2590 c0 -12 17 -12 45 0 17 7 15 9 -12 9 -18 1 -33 -3 -33 -9z"/>
<path d="M5770 2575 c0 -8 5 -15 10 -15 6 0 10 7 10 15 0 8 -4 15 -10 15 -5 0
-10 -7 -10 -15z"/>
<path d="M8515 2575 c-27 -7 -97 -23 -155 -36 -58 -12 -109 -26 -114 -31 -6
-4 -26 -8 -45 -9 -20 -1 -47 -5 -61 -10 -39 -13 92 -2 178 16 40 9 81 20 90
24 9 5 57 17 105 27 57 11 84 20 75 25 -15 10 -11 11 -73 -6z"/>
<path d="M5635 2570 c-16 -7 -17 -9 -3 -9 9 -1 19 -7 21 -13 3 -7 6 -3 6 10 1
12 0 22 -1 21 -2 0 -12 -4 -23 -9z"/>
<path d="M6180 2570 c0 -5 5 -10 11 -10 5 0 7 5 4 10 -3 6 -8 10 -11 10 -2 0
-4 -4 -4 -10z"/>
<path d="M7160 2565 c-10 -12 -10 -15 3 -15 9 0 19 5 22 10 4 6 11 7 17 4 7
-4 8 -2 4 4 -10 16 -31 15 -46 -3z"/>
<path d="M7220 2570 c0 -5 5 -10 10 -10 6 0 10 5 10 10 0 6 -4 10 -10 10 -5 0
-10 -4 -10 -10z"/>
<path d="M6145 2559 c-4 -6 -5 -12 -2 -15 2 -3 7 2 10 11 7 17 1 20 -8 4z"/>
<path d="M6986 2531 c-3 -5 -15 -7 -26 -4 -12 3 -20 0 -20 -6 0 -7 -4 -9 -10
-6 -5 3 -10 2 -10 -4 0 -15 18 -23 22 -9 3 7 20 11 45 10 30 -2 40 1 40 13 0
16 -32 21 -41 6z"/>
<path d="M6845 2499 c-4 -6 -4 -13 -1 -16 8 -8 36 5 36 17 0 13 -27 13 -35 -1z"/>
<path d="M6750 2480 c-8 -5 -12 -12 -9 -15 4 -3 12 1 19 10 14 17 11 19 -10 5z"/>
<path d="M6678 2453 c7 -3 16 -2 19 1 4 3 -2 6 -13 5 -11 0 -14 -3 -6 -6z"/>
<path d="M7305 2453 c-31 -7 -40 -21 -11 -16 15 3 29 9 32 14 3 5 4 8 2 8 -2
-1 -12 -3 -23 -6z"/>
<path d="M8015 2450 c4 -6 11 -8 16 -5 14 9 11 15 -7 15 -8 0 -12 -5 -9 -10z"/>
<path d="M7928 2443 c7 -3 16 -2 19 1 4 3 -2 6 -13 5 -11 0 -14 -3 -6 -6z"/>
<path d="M9335 2379 c-12 -19 5 -23 22 -6 16 16 16 17 1 17 -9 0 -20 -5 -23
-11z"/>
<path d="M10885 2380 c-16 -4 -66 -16 -110 -25 -69 -15 -77 -19 -57 -28 16 -7
40 -7 80 2 31 7 71 15 89 18 17 3 39 14 49 24 16 18 16 19 -2 18 -10 0 -32 -4
-49 -9z"/>
<path d="M9295 2370 c-3 -5 1 -10 9 -10 9 0 16 5 16 10 0 6 -4 10 -9 10 -6 0
-13 -4 -16 -10z"/>
<path d="M9185 2350 c-66 -13 -129 -36 -133 -49 -3 -8 4 -10 20 -7 100 21 129
30 144 47 9 10 15 18 13 18 -2 -1 -22 -5 -44 -9z"/>
<path d="M9005 2300 l-30 -8 33 -1 c17 0 32 4 32 9 0 6 -1 9 -2 9 -2 -1 -16
-5 -33 -9z"/>
<path d="M10110 2290 c-8 -5 -30 -10 -48 -10 -37 0 -102 -27 -102 -41 0 -12
50 -11 91 2 70 22 89 32 89 45 0 16 -9 17 -30 4z"/>
<path d="M10160 2280 c0 -5 7 -10 15 -10 8 0 15 5 15 10 0 6 -7 10 -15 10 -8
0 -15 -4 -15 -10z"/>
<path d="M10498 2273 c-10 -2 -18 -9 -18 -14 0 -6 6 -6 18 0 9 5 21 9 25 9 5
0 11 3 15 6 6 7 -14 6 -40 -1z"/>
<path d="M10420 2250 c0 -5 7 -7 15 -4 8 4 15 8 15 10 0 2 -7 4 -15 4 -8 0
-15 -4 -15 -10z"/>
<path d="M10341 2239 c-13 -5 -21 -12 -18 -15 9 -9 57 5 57 16 0 12 -7 12 -39
-1z"/>
<path d="M9825 2210 c-7 -12 12 -12 40 0 18 8 17 9 -7 9 -15 1 -30 -3 -33 -9z"/>
<path d="M10218 2193 c7 -3 16 -2 19 1 4 3 -2 6 -13 5 -11 0 -14 -3 -6 -6z"/>
<path d="M9720 2180 c0 -5 7 -7 15 -4 8 4 15 8 15 10 0 2 -7 4 -15 4 -8 0 -15
-4 -15 -10z"/>
<path d="M9668 2163 c6 -2 18 -2 25 0 6 3 1 5 -13 5 -14 0 -19 -2 -12 -5z"/>
<path d="M9385 2100 c-8 -13 5 -13 25 0 13 8 13 10 -2 10 -9 0 -20 -4 -23 -10z"/>
<path d="M11961 1954 c-35 -8 -103 -27 -150 -43 -47 -15 -102 -31 -121 -35
-44 -8 -310 -91 -370 -116 -25 -10 -98 -32 -163 -49 -156 -42 -264 -77 -303
-100 -17 -10 -65 -24 -105 -31 -41 -7 -92 -19 -114 -27 -36 -13 -204 -59 -308
-84 -21 -5 -45 -13 -55 -18 -9 -5 -71 -24 -137 -42 -66 -17 -124 -35 -130 -39
-5 -4 -59 -22 -120 -40 -60 -18 -133 -41 -162 -51 -28 -10 -89 -28 -135 -39
-46 -12 -112 -35 -147 -51 -35 -17 -105 -40 -155 -51 -147 -35 -214 -87 -173
-138 14 -18 87 -42 87 -29 0 5 12 9 28 10 34 0 141 30 207 57 76 31 100 39
230 78 66 20 152 47 190 59 39 13 106 28 150 35 68 10 145 30 342 91 18 6 42
12 55 14 132 25 233 51 282 72 33 14 82 31 110 38 28 7 65 18 81 24 17 6 109
36 205 67 96 31 201 64 233 75 31 10 66 19 76 19 10 0 77 18 147 40 71 21 160
46 199 55 38 9 74 20 80 24 5 5 24 11 40 15 17 4 57 13 90 20 159 36 330 98
340 123 7 20 0 27 -50 41 -47 14 -190 43 -202 41 -4 -1 -37 -8 -72 -15z"/>
<path d="M10050 1849 c-74 -23 -166 -50 -205 -61 -38 -12 -74 -24 -80 -28 -14
-10 -160 -44 -341 -79 -97 -19 -195 -46 -270 -75 -66 -25 -139 -48 -164 -51
-25 -4 -99 -20 -165 -37 -66 -16 -138 -34 -160 -39 -89 -21 -291 -93 -302
-107 -22 -27 -14 -39 34 -53 62 -17 94 -15 173 9 36 11 128 35 205 52 179 41
239 57 295 81 25 10 63 21 85 25 54 9 212 49 294 75 36 11 95 26 131 34 97 20
201 50 235 67 17 9 53 19 80 23 28 4 68 13 90 20 22 7 74 23 115 35 130 39
210 68 226 84 8 9 21 16 27 16 7 0 5 6 -4 15 -13 14 -109 36 -149 34 -8 0 -76
-18 -150 -40z"/>
<path d="M8808 633 c6 -2 18 -2 25 0 6 3 1 5 -13 5 -14 0 -19 -2 -12 -5z"/>
<path d="M14430 3076 c0 -4 6 -14 14 -21 12 -12 16 -12 26 0 9 11 16 12 26 4
15 -12 57 -2 49 12 -4 5 -11 9 -16 9 -6 0 -7 -4 -4 -10 8 -12 -5 -13 -25 0 -9
5 -19 5 -27 -2 -9 -7 -17 -7 -28 2 -8 7 -15 9 -15 6z"/>
<path d="M14595 2910 c-3 -6 1 -7 9 -4 18 7 21 14 7 14 -6 0 -13 -4 -16 -10z"/>
<path d="M14520 2899 c0 -5 5 -7 10 -4 6 3 10 8 10 11 0 2 -4 4 -10 4 -5 0
-10 -5 -10 -11z"/>
<path d="M14300 2821 c0 -6 4 -13 10 -16 6 -3 7 1 4 9 -7 18 -14 21 -14 7z"/>
<path d="M9464 8448 c-54 -25 -62 -104 -20 -186 23 -46 30 -52 49 -46 12 4 24
10 27 15 6 9 115 63 202 100 63 27 85 55 60 78 -8 8 -27 16 -41 17 -14 2 -62
10 -106 19 -91 17 -141 18 -171 3z"/>
<path d="M10756 8381 c-45 -50 12 -102 71 -64 17 12 20 45 3 53 -8 4 -25 12
-36 18 -18 9 -25 7 -38 -7z"/>
<path d="M11748 8369 c-10 -5 -18 -16 -18 -22 0 -16 36 -47 54 -47 26 0 63 25
58 40 -10 36 -58 50 -94 29z"/>
<path d="M14584 8366 c-31 -22 -44 -81 -34 -151 17 -118 37 -217 39 -187 1 13
7 36 15 50 30 56 77 225 71 251 -13 52 -49 66 -91 37z"/>
<path d="M14510 7701 c0 -10 -8 -29 -18 -42 -11 -13 -22 -37 -26 -53 -4 -16
-18 -43 -32 -59 -35 -42 -35 -120 2 -143 14 -10 47 -19 73 -22 46 -4 48 -3 63
29 15 35 16 66 3 184 -5 45 -16 80 -28 98 -24 32 -37 35 -37 8z"/>
<path d="M10785 7100 c-84 -5 -108 -11 -153 -35 -76 -41 -105 -79 -97 -124 7
-38 11 -45 74 -131 23 -30 45 -65 51 -78 5 -12 21 -27 35 -34 14 -6 25 -15 25
-20 0 -16 36 -8 60 15 55 51 187 129 254 150 60 19 93 22 211 21 161 0 239
-18 363 -85 142 -76 171 -68 295 84 60 75 61 102 7 161 -51 55 -97 70 -186 62
-192 -17 -397 -18 -566 -2 -243 23 -261 23 -373 16z"/>
<path d="M11580 6178 c-81 -26 -139 -51 -140 -59 0 -16 264 -26 286 -11 6 4
14 19 18 34 5 21 1 30 -16 42 -30 21 -69 19 -148 -6z"/>
</g>
</svg>
