<?xml version="1.0" standalone="no"?>
<!DOCTYPE svg PUBLIC "-//W3C//DTD SVG 20010904//EN"
 "http://www.w3.org/TR/2001/REC-SVG-20010904/DTD/svg10.dtd">
<svg version="1.0" xmlns="http://www.w3.org/2000/svg"
 width="1600.000000pt" height="1171.000000pt" viewBox="0 0 1600.000000 1171.000000"
 preserveAspectRatio="xMidYMid meet">

<g transform="translate(0.000000,1171.000000) scale(0.100000,-0.100000)"
fill="#000000" stroke="none">
<path d="M9820 9397 l0 -743 25 -51 c17 -33 41 -61 68 -79 40 -27 49 -29 165
-32 l122 -4 0 -51 c0 -72 16 -122 52 -163 65 -74 -13 -69 1030 -72 l938 -2 -6
-43 c-8 -57 10 -143 52 -245 55 -134 44 -204 -53 -324 -21 -26 -74 -91 -119
-145 -102 -126 -127 -177 -132 -268 -5 -87 13 -117 113 -192 39 -29 71 -57 73
-62 2 -5 -14 -15 -35 -21 -49 -16 -215 -98 -228 -113 -6 -7 -16 -13 -23 -15
-14 -3 -120 -70 -140 -90 -8 -6 -35 -26 -60 -44 -126 -85 -226 -171 -214 -184
4 -4 2 -4 -5 0 -7 4 -48 -22 -98 -60 -79 -61 -86 -69 -80 -94 5 -23 2 -28 -17
-33 -12 -4 -25 -1 -29 5 -4 6 -24 70 -44 142 -136 487 -259 886 -290 946 -7
14 -57 84 -110 155 -53 72 -112 164 -131 205 -46 97 -77 130 -121 130 -43 0
-83 -38 -83 -78 0 -16 12 -61 26 -100 14 -40 24 -79 22 -88 -5 -28 -177 160
-236 258 -29 48 -65 96 -79 108 -30 24 -81 27 -89 5 -5 -12 -12 -10 -36 10
-52 44 -100 29 -120 -38 -7 -23 -22 -50 -35 -60 -12 -9 -23 -27 -25 -39 -6
-44 -32 -44 -100 0 -89 58 -203 108 -305 136 l-88 23 -11 44 c-40 154 -108
415 -124 474 -10 39 -37 142 -60 230 -23 88 -50 192 -60 230 -48 181 -93 352
-98 375 -2 14 -9 31 -15 37 -5 7 -22 40 -38 73 -35 74 -112 154 -176 181 -56
24 -192 43 -245 35 -21 -4 -59 -13 -84 -22 -27 -9 -88 -16 -152 -18 -94 -2
-114 -5 -165 -30 -143 -69 -205 -186 -266 -496 -15 -77 -75 -469 -86 -560 -3
-25 -10 -74 -15 -110 -5 -36 -14 -110 -20 -165 -7 -55 -18 -146 -26 -203 -8
-56 -14 -115 -14 -130 0 -26 -4 -28 -82 -46 -92 -20 -176 -54 -197 -79 -12
-15 -46 -17 -307 -17 -298 0 -315 -2 -286 -36 5 -5 22 -40 37 -79 16 -38 32
-74 36 -80 4 -5 21 -45 39 -87 17 -43 35 -80 40 -83 4 -3 26 19 48 48 22 28
52 65 66 81 14 16 23 33 20 38 -3 4 -1 7 4 6 14 -5 72 43 72 60 0 9 3 13 6 9
4 -3 14 2 23 11 9 10 12 12 7 5 -6 -10 -4 -12 8 -7 9 3 16 9 16 13 0 12 52 12
66 0 24 -20 15 -58 -38 -164 -7 -14 0 -10 23 11 45 41 75 57 99 49 16 -5 20
-15 20 -54 0 -26 -4 -51 -10 -57 -5 -5 -11 -22 -12 -36 -1 -15 -4 -25 -7 -23
-4 4 -39 -57 -35 -63 0 -1 9 0 18 4 9 3 14 9 12 13 -3 4 11 5 30 3 26 -3 36
-10 40 -29 6 -23 0 -86 -11 -115 -4 -10 3 -14 22 -13 25 0 28 -4 31 -35 2 -22
-7 -58 -23 -93 -14 -32 -23 -63 -20 -68 4 -5 2 -9 -3 -9 -9 0 -49 -94 -67
-160 -1 -3 -14 -31 -28 -62 -15 -32 -29 -69 -33 -83 -3 -14 -11 -25 -18 -25
-6 0 -35 -63 -65 -140 -30 -78 -57 -137 -61 -133 -4 4 -24 51 -45 103 -68 166
-160 335 -271 493 l-63 91 21 40 c11 23 54 92 94 153 40 62 69 115 64 118 -10
6 -78 -92 -150 -214 l-44 -74 -20 25 c-341 409 -645 644 -1011 783 -55 21
-110 47 -123 58 -37 34 -78 105 -137 237 -137 310 -213 417 -356 506 l-56 35
-1 132 c0 156 -25 297 -87 491 -14 43 -25 83 -25 87 0 5 18 18 40 29 57 29
118 86 143 134 30 59 28 161 -5 244 -88 215 -284 299 -534 226 -147 -42 -289
-139 -356 -244 l-29 -45 -86 -12 c-150 -22 -232 -88 -254 -206 -11 -60 -1
-165 21 -222 5 -14 10 -28 10 -29 0 -2 -17 -6 -37 -10 -211 -34 -170 -331 57
-417 27 -10 65 -19 83 -19 23 0 41 -8 60 -28 l27 -28 -24 -119 c-14 -66 -41
-205 -61 -310 -20 -104 -38 -200 -41 -213 -5 -23 -5 -23 -32 -4 -156 109 -351
148 -515 103 -155 -42 -281 -124 -414 -266 -73 -77 -82 -84 -128 -90 -219 -32
-357 -208 -343 -437 l6 -83 -68 -100 c-302 -447 -516 -1016 -575 -1532 -5 -43
-16 -67 -60 -129 -30 -42 -52 -80 -49 -85 3 -5 0 -9 -6 -9 -9 0 -28 -37 -80
-155 -19 -44 -59 -165 -54 -165 2 0 0 -9 -6 -20 -11 -20 -13 -31 -48 -210 -34
-177 -42 -277 -42 -543 0 -223 18 -500 35 -527 2 -4 8 -33 14 -66 5 -32 17
-99 26 -149 9 -49 18 -101 20 -114 2 -14 10 -50 16 -80 6 -31 13 -63 13 -71 5
-42 19 -122 31 -180 8 -36 18 -92 24 -125 6 -33 22 -123 36 -200 14 -77 30
-169 36 -205 6 -36 17 -94 25 -130 7 -36 18 -90 23 -120 5 -30 21 -118 36
-195 14 -77 30 -167 36 -200 12 -64 33 -177 50 -262 9 -47 14 -54 49 -70 l39
-18 1 -98 c0 -63 4 -96 10 -92 6 3 10 44 10 91 0 46 3 84 8 84 4 0 27 -7 52
-16 24 -8 63 -19 85 -24 22 -4 72 -15 112 -24 292 -64 988 -111 1300 -87 157
12 379 49 461 76 119 41 202 77 196 87 -4 7 -2 8 5 4 20 -13 197 106 186 125
-4 5 0 9 8 9 13 0 42 29 86 86 22 27 41 76 35 86 -4 7 -3 8 4 4 7 -4 17 7 26
28 13 31 18 54 33 143 5 32 23 37 23 7 0 -26 72 -164 94 -179 11 -9 19 -18 17
-22 -2 -3 25 -35 59 -70 42 -43 68 -62 79 -58 8 3 12 3 9 -1 -14 -14 95 -79
118 -70 8 3 12 2 9 -4 -6 -10 37 -24 131 -42 l62 -12 17 -101 c10 -55 20 -106
22 -112 4 -10 676 -13 3314 -13 2015 0 3309 4 3309 9 0 5 -22 56 -49 113 -46
98 -151 321 -275 582 -31 65 -56 120 -56 122 0 2 178 4 395 4 217 0 395 2 395
5 0 3 -38 97 -85 209 -47 112 -85 206 -85 209 0 3 36 10 80 16 45 7 114 21
153 31 81 21 1341 544 1425 591 28 16 52 26 52 22 0 -9 1 -13 60 -413 22 -151
49 -336 60 -410 11 -74 42 -288 69 -475 28 -187 57 -389 66 -450 21 -148 25
-165 37 -165 7 0 8 15 4 42 -7 43 -70 469 -106 718 -21 143 -101 693 -145 994
-26 177 -26 178 -7 192 153 107 292 295 348 469 36 114 41 143 64 426 11 140
24 295 29 344 5 50 7 92 5 94 -14 14 -23 -31 -33 -169 -42 -552 -59 -656 -128
-795 -86 -171 -241 -332 -398 -412 -27 -14 -133 -61 -235 -103 -858 -359
-1112 -463 -1178 -480 -309 -81 -811 -71 -959 20 -36 22 -41 41 -17 61 13 11
56 13 195 10 125 -2 179 1 179 8 0 7 -44 11 -132 12 -192 2 -236 4 -301 18
-114 25 -143 92 -54 130 l42 18 -46 5 c-26 3 -64 14 -85 24 -32 16 -40 25 -42
52 -3 30 0 34 40 52 24 11 53 20 66 20 32 0 27 16 -8 24 -40 8 -82 50 -78 78
4 32 56 57 150 75 96 17 532 21 611 5 26 -5 50 -6 52 -1 8 13 -9 19 -75 26
-58 6 -62 8 -76 41 -8 19 -13 37 -11 38 2 2 73 -8 159 -22 l156 -26 533 337
c294 186 540 343 546 349 13 12 39 394 27 405 -15 15 -24 -34 -24 -130 0 -58
-3 -140 -6 -182 l-7 -76 -538 -340 -538 -341 -161 28 -162 27 -84 200 c-47
110 -94 224 -106 253 l-21 52 -223 0 c-123 0 -224 4 -224 8 0 5 50 128 111
273 61 145 120 287 131 315 13 30 31 55 45 61 21 10 23 10 13 -3 -12 -14 -3
-18 37 -17 7 1 11 -3 8 -7 -4 -6 102 -60 119 -60 3 0 25 -9 49 -19 129 -58
341 -103 565 -121 191 -16 419 1 752 54 52 9 129 21 170 27 41 6 76 12 77 13
1 1 5 57 9 125 l7 123 71 -6 c70 -7 454 -21 834 -32 l192 -6 0 254 c0 255 -10
371 -46 543 -33 160 -51 231 -70 266 -8 16 -12 29 -9 29 5 0 -33 106 -62 172
-9 20 -20 35 -25 32 -4 -3 -5 3 -1 12 5 13 3 15 -7 9 -9 -5 -11 -4 -6 3 7 12
-17 67 -40 90 -8 7 -14 17 -14 21 0 15 -62 86 -72 83 -5 -1 -7 2 -4 6 7 12
-54 83 -65 76 -5 -3 -8 0 -7 8 2 7 -4 12 -12 10 -8 -2 -12 0 -8 4 4 4 3 13 -3
20 -12 15 -8 16 96 34 131 22 216 93 251 207 51 172 16 400 -99 628 -99 200
-210 340 -537 680 -111 116 -164 187 -281 380 -72 118 -191 239 -279 282 -161
78 -323 60 -431 -48 -42 -42 -89 -128 -89 -164 0 -35 -13 -42 -72 -42 l-58 0
0 408 0 408 -137 3 -138 3 -5 285 -5 285 -187 3 -188 2 0 140 0 140 -990 0
-990 0 0 -743z m1960 -27 c0 -803 -1 -789 49 -839 l21 -21 -922 0 c-575 0
-936 4 -958 10 -20 5 -50 24 -67 42 -66 68 -63 33 -63 833 l0 725 970 0 970 0
0 -750z m380 -289 c0 -507 3 -759 11 -778 6 -15 20 -38 31 -50 l21 -23 -940 0
-940 0 -34 23 c-60 40 -79 80 -79 163 l0 74 868 0 c967 0 911 -4 959 69 l23
34 0 488 0 489 -140 0 -140 0 0 130 0 130 180 0 180 0 0 -749z m-100 -3 c0
-457 -1 -474 -20 -506 -39 -64 -135 -79 -188 -30 -52 48 -52 53 -52 548 l0
460 130 0 130 0 0 -472z m-7076 330 c73 -229 89 -317 90 -493 1 -153 0 -163
-24 -209 -14 -27 -37 -58 -52 -69 l-26 -20 -128 98 c-201 155 -277 203 -328
210 -59 9 -86 2 -119 -31 -63 -62 -12 -166 162 -332 66 -63 66 -63 32 -58 -97
17 -196 105 -255 229 -27 56 -43 77 -56 77 -39 0 -128 42 -163 76 -53 53 -71
98 -71 174 0 110 53 180 136 180 42 0 94 -32 116 -71 15 -26 21 -29 47 -24 51
9 117 57 139 100 15 29 20 57 20 102 l-2 63 32 4 c17 3 63 10 101 16 39 6 120
29 180 50 61 21 115 38 121 39 7 1 28 -50 48 -111z m7456 -551 l0 -403 -37
-13 c-49 -18 -125 -91 -148 -141 -21 -47 -33 -47 -57 1 -16 31 -18 76 -18 497
l0 462 130 0 130 0 0 -403z m-4199 258 c15 -68 65 -159 106 -195 107 -95 311
-139 408 -90 45 23 67 25 98 8 45 -24 61 -69 47 -132 -19 -86 -125 -145 -235
-131 -51 6 -55 5 -107 -35 -29 -22 -87 -57 -127 -78 -136 -67 -273 -54 -350
33 -76 87 -92 241 -45 432 36 147 56 189 122 256 l57 58 8 -38 c4 -21 12 -60
18 -88z m-3666 -238 c37 -18 78 -48 310 -224 82 -62 139 -95 207 -119 33 -11
38 -11 38 1 0 8 -6 15 -12 15 -7 0 -37 12 -67 25 l-54 26 31 32 c17 18 38 49
47 70 l15 37 42 -22 c23 -13 78 -59 123 -103 87 -87 132 -162 220 -370 51
-120 118 -236 160 -275 53 -49 67 -94 67 -205 0 -110 -27 -233 -76 -354 -17
-41 -21 -61 -12 -61 14 0 69 144 93 240 19 82 22 275 4 308 -7 13 -11 26 -8
28 6 7 193 -72 276 -117 360 -193 718 -537 961 -924 134 -212 258 -509 292
-698 18 -103 -7 -232 -68 -342 -18 -33 -40 -50 -120 -94 -55 -30 -144 -84
-199 -120 l-100 -66 -125 1 c-185 1 -366 45 -592 145 -51 22 -99 43 -106 46
-11 5 -13 -81 -11 -497 l3 -504 -64 -63 c-59 -57 -90 -76 -90 -55 0 5 -8 17
-18 28 -10 10 -19 24 -20 29 -7 32 -15 45 -24 39 -6 -4 -9 -3 -5 2 8 13 -38
86 -48 76 -4 -4 -6 -2 -2 3 7 13 -60 121 -73 118 -5 -2 -7 3 -4 10 2 7 -7 26
-21 41 -14 15 -25 30 -25 35 0 4 -21 34 -47 67 -27 32 -59 76 -73 96 -13 20
-28 34 -32 32 -5 -3 -7 -1 -6 4 4 13 -118 163 -126 155 -3 -4 -6 0 -6 9 0 8
-8 22 -18 31 -15 13 -21 14 -32 4 -12 -10 -12 -9 -2 5 11 13 10 18 0 24 -7 5
-17 9 -23 9 -5 0 -10 5 -10 11 0 18 -64 86 -75 79 -5 -3 -7 0 -5 8 3 7 -5 19
-20 27 -14 7 -25 20 -25 28 0 9 -3 12 -6 9 -4 -3 -16 5 -27 20 -17 22 -18 27
-5 34 30 16 254 187 267 203 34 41 -5 21 -94 -49 -123 -96 -212 -157 -217
-147 -8 19 -80 72 -90 66 -6 -4 -8 -3 -5 3 3 5 -8 21 -26 34 -65 48 -157 109
-157 104 0 -3 -8 3 -19 14 -21 21 -211 117 -286 144 -170 62 -268 77 -512 77
-242 0 -220 -10 -204 95 5 33 15 113 22 178 l12 117 61 0 c147 1 270 52 330
138 66 96 95 270 77 460 -7 64 -14 129 -17 143 -4 20 0 28 15 32 22 6 27 -2
36 -67 8 -49 25 -73 25 -34 0 13 -4 41 -9 63 -5 22 -12 65 -15 95 -7 55 -20
89 -30 79 -4 -3 -2 -28 3 -55 7 -35 6 -51 -2 -56 -25 -16 -33 -6 -45 58 -12
63 -11 68 7 88 61 65 66 172 14 284 -15 31 -14 35 12 84 22 40 28 65 28 110 0
39 4 57 11 54 6 -3 47 -21 91 -40 44 -20 86 -36 93 -36 7 0 21 -19 31 -42 36
-83 136 -148 233 -154 45 -2 50 -5 105 -71 140 -168 260 -293 280 -293 9 0
-14 30 -50 68 -36 37 -112 122 -170 189 -57 67 -127 140 -155 162 -28 23 -63
61 -77 86 -24 41 -45 58 -45 37 0 -16 62 -102 91 -126 16 -14 29 -27 29 -29 0
-3 -19 -1 -42 5 -55 12 -119 49 -151 88 -26 30 -52 123 -41 142 4 6 6 59 5
119 -1 118 11 162 49 174 14 5 20 15 20 38 0 75 67 151 153 172 15 4 27 12 27
19 0 6 -32 43 -71 81 -91 90 -159 177 -176 228 -12 34 -12 42 2 63 17 27 68
44 105 36 14 -2 43 -14 65 -25z m-252 -169 c48 -92 115 -162 189 -198 l58 -27
-39 -26 c-42 -28 -81 -96 -81 -140 0 -16 -8 -30 -20 -37 -43 -23 -54 -66 -55
-207 -1 -73 -4 -135 -7 -138 -15 -15 -238 94 -238 116 0 5 -25 33 -55 64 l-56
55 46 238 c25 130 53 273 61 317 9 44 17 85 19 91 2 7 26 3 71 -12 l69 -23 38
-73z m4335 -154 c34 -7 33 -5 67 -244 9 -63 21 -137 26 -163 5 -26 9 -61 9
-77 0 -34 -1 -34 148 -56 61 -9 112 -21 112 -25 0 -11 -145 -84 -227 -115
-126 -47 -198 -59 -363 -58 -142 0 -162 3 -240 28 -89 30 -185 74 -177 82 4 5
87 28 186 54 l44 11 -4 201 -4 200 50 4 c28 3 66 9 85 16 56 17 162 75 205
113 45 38 41 37 83 29z m4274 -532 c3 -75 9 -99 39 -163 33 -67 142 -219 159
-219 4 0 26 19 50 41 24 23 58 48 76 55 47 20 113 17 150 -5 87 -53 60 -225
-45 -294 -46 -30 -136 -57 -193 -57 -32 0 -44 -7 -90 -56 -68 -72 -179 -146
-265 -175 -90 -31 -198 -32 -264 -2 -191 86 -254 374 -147 678 24 71 91 210
116 243 17 23 18 23 57 5 29 -12 67 -17 135 -17 83 -1 102 3 150 26 30 14 58
27 61 27 4 1 8 -39 11 -87z m-3649 -47 c195 -26 362 -86 489 -177 36 -26 45
-37 38 -48 -32 -51 7 -223 71 -320 37 -54 149 -171 262 -271 34 -31 40 -45 66
-149 64 -254 91 -468 92 -720 1 -210 -12 -313 -56 -442 -51 -152 -159 -285
-274 -340 -77 -37 -205 -49 -281 -27 -36 11 -297 14 -1244 19 l-1199 5 48 53
c26 29 101 94 166 143 127 97 162 135 162 177 0 64 -95 81 -221 38 -59 -20
-72 -22 -72 -10 0 8 11 71 25 140 23 113 26 148 10 132 -3 -3 -17 -61 -30
-129 -14 -68 -28 -134 -30 -146 -4 -16 -25 -33 -65 -53 l-60 -31 16 38 c72
167 79 274 27 461 -10 36 -11 57 -5 65 6 7 31 66 57 132 50 131 61 149 71 119
3 -10 20 -48 36 -84 17 -36 39 -87 50 -115 11 -27 27 -58 35 -67 9 -10 13 -18
10 -18 -4 0 5 -26 19 -57 13 -32 30 -70 37 -85 l12 -28 602 0 c332 0 603 2
603 5 0 3 -4 13 -10 23 -5 9 -19 40 -31 67 -12 28 -32 73 -44 100 -13 28 -40
88 -60 135 -21 47 -42 86 -46 88 -4 2 -5 10 -2 19 5 12 3 14 -7 8 -9 -5 -11
-4 -6 3 4 6 -2 29 -14 51 -11 22 -20 47 -20 54 0 8 -7 20 -15 27 -8 6 -14 15
-13 18 1 4 -4 18 -11 30 -7 13 -10 26 -7 29 3 3 34 8 69 10 62 5 65 4 84 -23
30 -42 228 -391 304 -534 l64 -121 75 4 c87 6 195 40 278 89 84 49 218 188
276 286 47 82 116 238 116 266 0 20 -192 201 -300 282 -136 102 -246 168 -405
245 -265 127 -506 193 -790 215 -84 7 -110 16 -112 39 -1 6 -19 52 -40 102
l-38 93 -287 0 c-159 0 -288 4 -288 9 0 25 180 75 383 106 l108 17 82 -40
c151 -74 209 -87 397 -87 149 0 175 3 265 28 64 17 149 52 235 96 154 78 162
80 343 56z m766 -43 c21 -21 52 -64 69 -95 64 -116 227 -327 253 -327 18 0 8
18 -36 66 -25 27 -66 75 -92 107 -55 71 -155 245 -147 258 10 18 46 9 73 -18
15 -16 47 -62 71 -103 51 -88 257 -307 273 -291 12 12 -7 110 -28 151 -39 77
-23 150 33 150 37 0 62 -28 106 -120 19 -41 64 -113 99 -160 136 -183 152
-212 199 -357 38 -114 203 -677 264 -897 16 -58 16 -58 49 -53 33 5 34 5 44
-41 5 -26 17 -92 25 -147 9 -55 21 -122 26 -150 6 -27 26 -147 45 -265 20
-118 38 -222 41 -232 6 -20 -10 -24 -155 -38 -286 -28 -457 13 -599 144 -111
103 -141 190 -177 506 -21 182 -39 326 -64 505 -11 77 -27 201 -37 275 -16
121 -21 141 -52 190 -19 30 -71 89 -116 130 -171 158 -311 306 -340 359 -50
93 -70 209 -45 263 5 13 24 31 41 41 30 17 31 17 54 -4 13 -12 45 -64 71 -116
53 -105 127 -194 201 -242 51 -32 62 -37 62 -23 0 5 -22 23 -50 41 -72 47
-146 134 -193 230 -44 90 -90 151 -114 151 -23 0 -10 22 26 42 33 19 33 19 67
-7 18 -14 60 -69 93 -123 64 -103 119 -173 189 -236 75 -68 58 -29 -24 56 -44
46 -103 122 -133 172 -65 107 -101 149 -141 166 -33 14 -39 40 -14 64 24 24
42 19 83 -22z m-1634 -418 c455 -75 918 -314 1238 -642 l58 -59 -30 -80 c-98
-253 -289 -452 -496 -515 -38 -12 -96 -22 -128 -22 l-58 -1 -35 65 c-147 271
-296 530 -331 578 -23 31 -27 32 -92 32 -40 0 -75 -5 -85 -13 -33 -24 -328 -2
-387 28 -15 8 -29 12 -31 10 -3 -3 -4 9 -3 25 1 22 -2 29 -11 26 -7 -3 -16 -1
-19 3 -2 5 -26 12 -52 16 -121 18 -173 88 -97 132 l36 20 -54 6 c-89 11 -131
63 -84 106 22 20 135 61 168 61 39 0 15 18 -32 23 -91 11 -139 49 -107 85 9
10 15 21 13 23 -2 2 8 5 22 6 15 0 79 8 142 17 63 8 139 15 168 16 28 0 52 2
52 4 0 20 -24 65 -33 59 -6 -4 -7 -1 -2 6 9 15 128 8 270 -15z m-4341 -121 c3
-16 8 -44 11 -63 l6 -35 -128 -23 c-70 -13 -140 -26 -155 -29 -26 -5 -27 -4
-19 24 14 50 40 92 68 110 20 14 103 31 200 42 6 0 14 -11 17 -26z m-1373
-201 c38 -39 40 -44 27 -60 -41 -46 -33 -101 23 -172 46 -58 102 -93 212 -131
49 -17 81 -34 80 -41 -9 -57 -124 -652 -127 -655 -2 -2 -45 -5 -97 -7 -105 -6
-181 -21 -319 -66 -119 -39 -150 -52 -144 -62 3 -4 -1 -5 -9 -2 -15 5 -174
-61 -192 -80 -6 -6 -16 -12 -23 -14 -29 -6 -63 -35 -57 -50 4 -12 3 -12 -9 -3
-11 9 -18 7 -34 -14 -11 -14 -23 -25 -27 -25 -4 0 -16 -10 -26 -22 l-19 -21 0
40 c0 22 9 92 20 154 81 462 277 947 542 1342 l61 90 38 -79 c21 -43 57 -98
80 -122z m10550 73 c10 -49 29 -148 43 -219 l24 -129 61 -54 61 -55 -30 -38
c-16 -20 -26 -40 -22 -44 4 -4 3 -7 -3 -5 -18 4 -45 -13 -38 -24 3 -5 2 -7 -4
-4 -6 4 -21 -5 -33 -18 -13 -14 -30 -25 -37 -25 -8 0 -16 -7 -19 -15 -4 -8
-10 -13 -14 -10 -4 2 -25 -4 -47 -15 -22 -10 -82 -27 -133 -36 -142 -26 -284
-2 -443 75 -92 44 -146 92 -176 157 -21 43 -28 128 -13 150 7 11 200 44 254
44 26 0 28 -4 44 -80 10 -44 21 -80 26 -80 12 0 10 24 -16 148 l-23 112 26 6
c120 25 256 102 351 199 52 53 57 56 99 53 l44 -3 18 -90z m-9583 28 c15 -9
43 -31 62 -49 l35 -32 163 31 c89 16 165 28 167 25 11 -11 24 -160 25 -273 0
-238 -53 -361 -182 -424 -50 -24 -172 -42 -225 -34 l-35 6 7 71 c3 39 9 82 12
95 4 17 2 22 -8 19 -10 -3 -22 -76 -46 -284 -18 -153 -32 -289 -32 -301 -1
-23 -3 -23 -133 -23 -73 0 -224 3 -335 7 -199 6 -203 7 -198 27 3 12 21 107
40 211 36 193 58 303 76 386 l10 45 147 3 c179 3 207 13 297 107 l63 65 31
-15 c39 -20 105 -21 121 -1 16 19 5 34 -12 17 -18 -18 -64 -14 -108 8 -22 11
-40 17 -40 14 0 -17 -45 36 -66 78 -38 76 -29 160 24 221 20 23 103 23 140 0z
m6593 -245 c73 -88 86 -117 98 -223 7 -55 18 -145 26 -200 8 -55 19 -138 25
-185 6 -47 18 -130 25 -185 14 -103 27 -211 46 -375 20 -183 63 -282 164 -380
147 -141 345 -184 668 -146 59 6 107 9 107 4 0 -4 45 -9 99 -10 l100 -3 -55
-130 c-30 -71 -56 -138 -56 -147 -1 -9 -6 -14 -10 -12 -4 3 -8 -2 -8 -11 0 -8
-4 -23 -9 -33 -19 -37 -59 -128 -65 -149 -6 -18 -1 -25 24 -38 l30 -16 -16
-37 c-8 -20 -46 -111 -84 -202 -38 -91 -94 -223 -124 -295 l-55 -130 -480 -3
c-265 -1 -481 -4 -481 -7 0 -2 11 -30 25 -61 39 -87 43 -84 -100 -84 -121 0
-126 1 -135 23 -5 12 -30 90 -55 172 -25 83 -52 168 -60 190 -7 22 -40 126
-73 230 -33 105 -88 278 -122 385 -34 107 -73 231 -87 275 -14 44 -34 107 -44
139 -10 33 -19 63 -19 68 0 12 32 10 97 -7 31 -8 92 -15 134 -15 278 0 469
223 524 608 36 249 0 643 -88 980 -8 28 -11 52 -8 52 4 0 23 -19 42 -42z
m-2680 -1138 c49 -27 3 -88 -157 -208 -91 -68 -155 -129 -191 -183 -18 -27
-36 -40 -69 -49 -24 -7 -44 -17 -44 -22 0 -11 16 -9 92 13 33 9 56 10 75 3 31
-10 38 -30 29 -78 -5 -27 -14 -35 -57 -54 -28 -11 -48 -25 -45 -31 4 -6 23 -2
49 9 62 29 103 26 138 -9 22 -23 29 -39 29 -68 0 -39 -1 -39 -50 -52 -45 -12
-68 -26 -58 -36 2 -2 23 3 47 11 66 23 113 0 130 -63 19 -67 -29 -123 -105
-123 -26 0 -26 1 -11 18 19 21 22 32 7 32 -19 0 -90 -72 -90 -92 0 -30 -143
-165 -260 -244 -151 -102 -181 -109 -262 -57 -21 12 -44 23 -52 23 -8 0 -16 3
-18 8 -8 19 -89 73 -99 66 -7 -4 -9 -3 -6 3 4 6 -11 29 -32 51 -22 22 -47 52
-56 66 -10 14 -21 23 -26 20 -5 -3 -8 -2 -7 3 4 12 -52 103 -63 103 -5 0 -8 3
-7 8 3 12 -32 72 -42 72 -6 0 -9 3 -9 8 3 18 -2 33 -9 28 -4 -2 -8 6 -7 19 0
25 250 304 346 386 163 140 496 328 708 399 90 31 149 37 182 20z m-1386 -288
c136 -47 267 -73 395 -79 l116 -6 -96 -96 c-53 -53 -141 -143 -196 -201 -56
-58 -130 -131 -165 -162 -103 -91 -129 -120 -122 -131 3 -5 2 -7 -3 -4 -6 3
-48 -30 -94 -74 l-85 -80 -6 243 c-3 134 -7 345 -8 470 l-1 227 88 -38 c48
-21 128 -52 177 -69z m-1190 -31 c3 -5 2 -12 -3 -15 -5 -3 -9 1 -9 9 0 17 3
19 12 6z m4551 -186 c12 -38 50 -158 84 -265 34 -107 76 -242 95 -300 18 -58
61 -193 95 -300 34 -107 86 -271 116 -364 30 -93 54 -173 54 -178 0 -4 -655
-8 -1455 -8 l-1455 0 5 38 c4 36 12 108 36 332 6 58 17 154 25 215 8 60 14
124 14 142 0 26 10 41 50 79 28 26 67 69 86 95 31 43 40 49 82 54 71 9 110 30
128 69 23 47 11 101 -29 141 -25 25 -32 42 -34 75 -2 52 -26 89 -77 114 -34
17 -37 21 -32 50 4 18 0 42 -9 59 l-14 27 1106 -2 1106 -3 23 -70z m-2411
-712 c-2 -21 -9 -85 -15 -143 -12 -118 -21 -198 -46 -412 l-17 -148 -198 0
c-185 0 -198 1 -192 18 3 9 10 22 15 29 6 7 6 18 2 24 -4 7 -3 9 3 6 9 -5 115
189 115 210 0 4 11 27 25 50 13 23 21 48 17 54 -4 8 -3 9 4 5 7 -4 12 -1 12 9
0 8 4 23 10 33 17 29 50 122 50 140 1 10 43 45 108 89 59 40 108 72 110 73 1
0 0 -17 -3 -37z m3203 -845 c77 -190 352 -863 477 -1168 l113 -275 317 -3 316
-2 71 -148 c38 -81 83 -174 98 -207 16 -33 58 -123 95 -200 89 -186 115 -243
115 -249 0 -3 -1479 -5 -3287 -4 l-3288 3 -17 90 c-23 120 -23 115 16 115 18
0 47 3 64 6 29 6 30 7 20 38 -6 17 -14 36 -18 41 -4 6 -17 37 -28 71 -11 33
-42 114 -67 180 -26 65 -51 133 -57 149 -5 17 -14 39 -18 50 -5 11 -29 88 -55
170 -25 83 -54 177 -65 210 -10 33 -21 75 -25 93 -4 18 -11 30 -16 27 -5 -4
-6 1 -3 10 4 9 2 33 -5 53 -6 20 -49 172 -96 337 -46 165 -91 323 -99 350 -37
119 -67 237 -63 242 3 3 17 -17 31 -44 37 -71 61 -104 71 -96 4 5 5 3 2 -3 -7
-12 95 -142 119 -151 7 -3 12 -8 10 -12 -2 -3 2 -12 10 -19 8 -7 14 -11 14 -9
0 2 21 -17 48 -42 26 -25 60 -55 76 -66 16 -11 42 -30 59 -42 16 -12 34 -20
38 -17 5 3 9 1 9 -4 0 -9 36 -29 54 -30 5 0 12 -4 15 -9 22 -32 211 -83 306
-83 67 0 182 23 200 41 5 5 17 9 27 9 10 0 21 7 24 15 4 8 10 13 14 10 13 -8
111 55 105 66 -4 5 0 6 8 4 19 -8 135 83 233 183 98 100 238 278 229 291 -3 5
0 13 6 17 8 4 9 3 5 -4 -4 -7 -5 -12 -3 -12 2 0 26 34 52 75 l49 75 1822 0
1822 0 50 -122z"/>
<path d="M10720 9370 c0 -7 165 -10 475 -10 310 0 475 3 475 10 0 7 -165 10
-475 10 -310 0 -475 -3 -475 -10z"/>
<path d="M10720 9190 c0 -7 165 -10 475 -10 310 0 475 3 475 10 0 7 -165 10
-475 10 -310 0 -475 -3 -475 -10z"/>
<path d="M10720 9010 c0 -7 165 -10 475 -10 310 0 475 3 475 10 0 7 -165 10
-475 10 -310 0 -475 -3 -475 -10z"/>
<path d="M10720 8830 c0 -7 165 -10 475 -10 310 0 475 3 475 10 0 7 -165 10
-475 10 -310 0 -475 -3 -475 -10z"/>
<path d="M10720 8650 c0 -7 165 -10 475 -10 310 0 475 3 475 10 0 7 -165 10
-475 10 -310 0 -475 -3 -475 -10z"/>
<path d="M4166 9071 c-3 -5 10 -18 30 -30 36 -22 64 -71 64 -116 0 -14 5 -25
11 -25 18 0 4 88 -18 119 -25 32 -79 65 -87 52z"/>
<path d="M8750 8691 c-46 -14 -91 -42 -84 -52 4 -6 14 -5 28 5 12 8 41 20 64
27 23 7 42 16 42 21 0 9 -15 9 -50 -1z"/>
<path d="M4854 6282 c-82 -53 -175 -112 -205 -131 -59 -37 -52 -56 9 -21 94
56 362 235 362 242 0 16 -17 7 -166 -90z"/>
<path d="M5720 6133 c0 -10 8 -31 18 -48 10 -16 38 -68 62 -115 57 -110 70
-131 81 -125 4 3 -2 25 -15 48 -12 23 -49 90 -80 150 -31 59 -59 107 -62 107
-2 0 -4 -8 -4 -17z"/>
<path d="M4951 6000 c-177 -128 -198 -146 -166 -138 23 6 354 239 355 251 0
19 -37 -3 -189 -113z"/>
<path d="M13216 7580 c-47 -24 -87 -60 -80 -71 3 -5 22 4 42 20 20 17 56 36
80 43 23 7 42 16 42 20 0 14 -44 7 -84 -12z"/>
<path d="M9756 6801 c-4 -5 6 -19 21 -31 50 -38 184 -174 246 -247 53 -64 77
-86 77 -67 0 12 -112 144 -183 215 -93 94 -154 143 -161 130z"/>
<path d="M9006 6132 c-7 -11 101 -197 156 -271 50 -67 163 -179 207 -204 51
-30 35 -4 -29 48 -96 77 -180 184 -270 343 -29 50 -54 92 -56 92 -1 0 -5 -4
-8 -8z"/>
<path d="M8053 7313 c-33 -6 -28 -23 5 -23 67 0 182 14 182 21 0 9 -145 10
-187 2z"/>
<path d="M8083 7143 c-103 -5 -110 -23 -10 -23 114 0 257 12 257 21 0 9 -67 9
-247 2z"/>
<path d="M8065 6960 c-4 -7 60 -10 184 -10 121 0 191 4 191 10 0 6 -68 10
-184 10 -113 0 -187 -4 -191 -10z"/>
<path d="M3620 7184 c0 -4 14 -22 30 -41 17 -18 30 -43 30 -53 0 -11 5 -20 10
-20 24 0 9 57 -23 88 -32 31 -47 39 -47 26z"/>
<path d="M8085 3609 c-255 -15 -654 -71 -850 -119 -66 -16 -277 -68 -470 -115
-421 -104 -744 -182 -767 -187 -15 -3 -18 -21 -23 -145 -2 -81 -1 -143 4 -143
5 0 71 7 148 16 87 10 223 16 368 15 193 0 245 -3 325 -20 158 -34 236 -86
249 -166 l6 -36 135 -2 c124 -2 143 -5 230 -35 118 -41 262 -122 392 -219 103
-78 292 -258 395 -377 l59 -69 735 197 c404 109 763 206 799 216 195 54 182
49 174 73 -8 26 -8 166 1 218 6 35 2 42 -83 141 -270 312 -539 512 -794 589
-97 29 -250 32 -325 6 l-53 -19 -52 47 c-135 118 -288 152 -603 134z m358 -34
c79 -16 164 -59 227 -114 l45 -39 -30 -7 c-16 -4 -379 -102 -805 -216 -426
-115 -775 -209 -776 -209 -2 0 -8 16 -14 35 -27 83 -101 132 -253 168 -82 19
-121 22 -363 22 -237 0 -264 2 -220 12 78 19 897 220 1011 248 137 34 546 93
745 108 131 10 370 6 433 -8z m597 -139 c216 -39 443 -179 691 -426 125 -125
245 -258 238 -264 -2 -1 -380 -104 -839 -228 l-835 -225 -40 46 c-282 329
-614 571 -868 632 -45 11 -95 23 -111 27 -26 6 -13 12 90 40 691 187 1466 396
1494 402 53 12 98 11 180 -4z m-2215 -265 c109 -22 184 -59 219 -104 24 -31
26 -42 26 -140 l0 -107 -44 34 c-49 37 -99 56 -216 83 -97 22 -515 22 -695 0
-66 -8 -121 -14 -122 -13 0 1 2 55 5 121 l7 120 75 8 c307 31 592 30 745 -2z
m569 -223 c96 -26 273 -114 376 -187 151 -108 322 -267 466 -434 l51 -59 144
40 c79 22 223 61 319 86 96 26 222 60 280 76 58 16 242 65 410 110 168 45 352
95 410 111 58 16 108 29 111 29 3 0 5 -54 5 -119 l-1 -119 -120 -32 c-66 -18
-174 -47 -240 -65 -158 -43 -423 -114 -610 -164 -82 -22 -274 -74 -425 -115
l-275 -75 -55 62 c-289 329 -568 533 -836 613 -70 21 -112 26 -196 27 l-107 1
-3 41 c-2 22 -2 75 0 117 3 74 4 77 30 82 51 8 187 -5 266 -26z"/>
<path d="M6610 10124 c-143 -24 -259 -68 -314 -119 -13 -12 -26 -21 -28 -19
-12 11 -132 -141 -123 -156 3 -6 2 -10 -4 -10 -5 0 -18 -24 -28 -52 -14 -41
-18 -83 -18 -178 0 -145 20 -218 85 -305 58 -77 161 -162 181 -149 5 3 9 1 9
-4 0 -5 27 -20 60 -33 56 -22 60 -26 60 -56 0 -18 4 -33 9 -33 4 0 6 11 3 25
l-4 25 490 0 491 0 4 -27 c3 -23 4 -21 6 10 1 32 -2 37 -21 38 -16 0 -2 11 42
32 81 40 132 76 125 88 -4 5 0 6 8 4 24 -10 145 153 131 177 -4 6 -3 8 3 5 6
-4 14 7 18 26 4 17 10 41 13 52 12 41 7 240 -7 282 -8 23 -17 40 -21 38 -5 -3
-11 2 -14 11 -3 8 -2 12 4 9 16 -10 11 8 -10 35 -11 14 -20 30 -20 36 0 20
-101 115 -113 108 -7 -4 -9 -3 -4 1 9 10 -91 76 -143 94 -119 42 -126 43 -490
46 -195 2 -366 1 -380 -1z m424 -99 c20 -9 42 -13 48 -9 6 4 8 3 5 -3 -6 -9
203 -99 219 -93 4 1 10 -2 13 -7 3 -5 43 -24 89 -43 45 -18 82 -37 82 -42 0
-4 -225 -8 -500 -8 -275 0 -500 3 -500 6 0 9 27 33 32 28 3 -2 72 23 154 57
82 34 161 67 176 72 15 6 25 14 23 17 -2 3 7 6 20 6 12 1 35 9 51 17 38 20 45
20 88 2z m439 -224 c13 -1 17 -10 17 -36 0 -35 0 -35 -44 -35 -39 0 -44 -2
-39 -20 3 -13 0 -20 -8 -20 -21 0 -15 -501 6 -513 8 -4 15 -13 15 -18 0 -6 7
-17 15 -25 8 -8 12 -21 9 -29 -5 -12 -28 -15 -110 -15 l-104 0 0 25 c0 15 6
25 14 25 7 0 16 9 19 20 3 11 11 20 19 20 11 0 12 46 10 249 l-3 250 23 4 c17
3 15 5 -9 6 -29 1 -38 9 -34 34 0 4 -48 7 -108 7 -104 0 -109 -1 -104 -20 3
-13 0 -20 -8 -20 -21 0 -15 -501 6 -513 8 -4 15 -15 15 -22 0 -8 7 -15 15 -15
24 0 19 -50 -5 -50 -175 -4 -194 -2 -195 20 -1 15 5 24 17 28 14 3 19 11 16
27 -4 18 -1 21 14 17 15 -4 17 -1 11 16 -5 11 -6 127 -3 256 4 195 3 236 -9
236 -8 0 -11 7 -8 20 5 19 0 20 -104 20 -109 0 -109 0 -109 -24 0 -14 -4 -28
-10 -31 -6 -4 -10 -98 -10 -250 0 -207 2 -244 15 -249 8 -3 15 -12 15 -21 0
-8 7 -15 15 -15 9 0 15 -9 15 -25 l0 -25 -105 0 -105 0 0 25 c0 16 6 25 16 25
10 0 14 6 11 14 -3 8 1 22 9 33 9 10 13 12 9 6 -3 -7 -2 -13 4 -13 7 0 10 85
10 245 0 135 3 250 6 255 3 6 -1 10 -9 10 -14 0 -20 12 -17 33 0 4 -21 7 -47
7 l-48 0 4 35 4 35 467 2 c256 2 473 2 481 1 8 -1 23 -2 33 -2z"/>
<path d="M6968 9683 c7 -3 16 -2 19 1 4 3 -2 6 -13 5 -11 0 -14 -3 -6 -6z"/>
<path d="M7348 9683 c7 -3 16 -2 19 1 4 3 -2 6 -13 5 -11 0 -14 -3 -6 -6z"/>
<path d="M6984 9430 c0 -129 2 -182 3 -117 2 64 2 170 0 235 -1 64 -3 11 -3
-118z"/>
<path d="M7324 9430 c0 -129 2 -182 3 -117 2 64 2 170 0 235 -1 64 -3 11 -3
-118z"/>
<path d="M6634 9425 c0 -121 2 -169 3 -107 2 62 2 161 0 220 -1 59 -3 8 -3
-113z"/>
<path d="M8863 10011 c-117 -30 -212 -141 -229 -268 -7 -58 -12 -55 84 -68
105 -14 218 -104 269 -215 15 -33 34 -60 41 -60 26 0 108 49 143 87 149 157
107 401 -86 500 -54 28 -161 40 -222 24z"/>
<path d="M14095 9410 c0 -234 1 -329 2 -212 2 116 2 308 0 425 -1 116 -2 21
-2 -213z"/>
<path d="M2520 9589 c-182 -31 -331 -184 -362 -372 -30 -180 66 -368 234 -457
80 -43 124 -83 160 -148 17 -29 39 -59 50 -65 26 -16 50 -76 43 -104 -4 -16
-1 -23 8 -23 18 0 43 -53 28 -58 -6 -2 -11 -10 -11 -18 0 -8 6 -11 15 -7 23 8
57 -26 49 -50 -5 -16 -3 -19 10 -14 9 4 42 0 73 -8 129 -34 247 48 257 179 2
24 7 49 10 55 4 5 -2 19 -14 31 -22 22 -26 45 -10 55 14 9 2 25 -14 19 -17 -7
-31 43 -17 60 14 16 4 26 -16 19 -13 -5 -15 -1 -9 21 4 16 0 59 -9 100 -15 67
-15 77 0 137 45 177 49 201 36 273 -14 85 -40 144 -92 213 -91 121 -264 188
-419 162z m255 -58 c128 -63 210 -175 235 -319 12 -70 12 -73 -36 -266 -16
-65 -16 -74 0 -149 15 -66 15 -82 4 -92 -20 -19 -349 -147 -363 -141 -7 2 -26
28 -42 58 -38 66 -91 115 -171 158 -331 176 -286 658 73 777 25 8 76 12 136
10 86 -2 103 -6 164 -36z m195 -875 c-16 -15 -287 -196 -294 -196 -11 0 -27
73 -19 81 12 12 292 126 313 128 13 1 13 -1 0 -13z m39 -42 c6 -15 9 -29 6
-33 -4 -3 -72 -49 -153 -103 -130 -85 -148 -94 -159 -80 -7 9 -13 22 -13 29 0
11 283 211 301 212 3 1 11 -11 18 -25z m41 -106 c0 -9 -258 -179 -280 -185 -9
-2 -24 5 -34 16 -18 20 -16 21 135 120 151 98 154 100 166 78 7 -12 12 -25 13
-29z m0 -68 c0 -50 -35 -106 -85 -136 -39 -23 -54 -26 -105 -22 -64 5 -84 14
-60 28 8 5 65 43 125 84 61 41 113 75 118 75 4 1 7 -13 7 -29z"/>
<path d="M2723 9201 l-40 -43 -41 13 c-52 15 -69 8 -88 -36 -14 -35 -15 -36
-67 -30 -37 3 -45 2 -27 -4 14 -5 39 -9 56 -10 27 -1 33 4 49 39 20 44 22 45
79 29 37 -10 40 -9 76 26 35 34 39 36 49 18 12 -21 13 -8 2 21 -7 18 -11 16
-48 -23z"/>
<path d="M2774 9165 c3 -11 12 -63 21 -115 9 -51 18 -96 20 -99 7 -6 7 0 -11
106 -8 53 -20 104 -25 112 -8 13 -9 12 -5 -4z"/>
<path d="M2410 9100 c0 -5 3 -10 8 -10 4 0 15 -17 25 -38 10 -20 27 -48 39
-62 14 -17 12 -11 -6 20 -15 25 -31 57 -37 73 -11 26 -29 37 -29 17z"/>
<path d="M2510 8940 c6 -11 13 -20 16 -20 2 0 0 9 -6 20 -6 11 -13 20 -16 20
-2 0 0 -9 6 -20z"/>
<path d="M2826 8885 c3 -27 9 -54 14 -59 5 -4 5 9 0 30 -15 71 -19 79 -14 29z"/>
<path d="M2544 8882 c9 -17 21 -34 27 -37 6 -4 4 7 -5 23 -9 17 -21 34 -27 37
-6 4 -4 -7 5 -23z"/>
<path d="M2586 8817 c3 -10 9 -15 12 -12 3 3 0 11 -7 18 -10 9 -11 8 -5 -6z"/>
<path d="M2840 8794 c0 -10 5 -26 10 -34 8 -11 9 -7 4 15 -8 37 -14 45 -14 19z"/>
<path d="M2600 8786 c0 -2 8 -10 18 -17 15 -13 16 -12 3 4 -13 16 -21 21 -21
13z"/>
<path d="M2645 8721 c8 -17 19 -33 25 -36 5 -3 1 10 -11 29 -25 43 -36 48 -14
7z"/>
<path d="M5645 9428 c-21 -12 -55 -47 -55 -56 0 -3 14 7 31 24 29 28 33 29
149 32 75 2 127 -1 142 -8 22 -11 22 -10 4 4 -24 20 -239 22 -271 4z"/>
<path d="M5945 9402 c30 -57 35 -65 35 -52 0 8 -10 26 -21 40 -11 14 -18 19
-14 12z"/>
<path d="M5582 9340 c0 -14 2 -19 5 -12 2 6 2 18 0 25 -3 6 -5 1 -5 -13z"/>
<path d="M5970 9299 c0 -20 -10 -40 -29 -60 l-29 -29 -130 0 -130 0 -31 31
c-17 17 -31 27 -31 22 0 -5 13 -21 28 -36 28 -27 30 -27 164 -27 l136 0 31 35
c20 23 31 46 31 65 0 17 -2 30 -5 30 -3 0 -5 -14 -5 -31z"/>
<path d="M5581 9294 c0 -11 3 -14 6 -6 3 7 2 16 -1 19 -3 4 -6 -2 -5 -13z"/>
<path d="M5303 9253 c15 -2 39 -2 55 0 15 2 2 4 -28 4 -30 0 -43 -2 -27 -4z"/>
<path d="M5240 9235 c-7 -9 -11 -17 -9 -20 3 -2 10 5 17 15 14 24 10 26 -8 5z"/>
<path d="M5418 9189 c2 -27 0 -55 -5 -62 -4 -7 0 -4 10 7 13 14 17 30 14 54
-8 55 -22 56 -19 1z"/>
<path d="M5230 9143 c0 -6 8 -17 18 -24 16 -13 16 -13 2 6 -8 11 -16 22 -17
24 -2 2 -3 0 -3 -6z"/>
<path d="M5298 9103 c18 -2 45 -2 60 0 15 2 0 4 -33 4 -33 0 -45 -2 -27 -4z"/>
<path d="M13814 8742 c-180 -62 -274 -253 -219 -440 19 -62 43 -77 141 -91 77
-11 184 -1 260 25 67 22 80 30 130 76 77 71 93 175 44 285 -60 136 -207 196
-356 145z"/>
<path d="M7188 7367 c-39 -76 -51 -119 -22 -82 20 26 74 131 74 145 0 26 -18
4 -52 -63z"/>
<path d="M7277 7205 c-38 -77 -43 -95 -28 -95 7 0 81 150 81 165 0 3 -4 5 -8
5 -4 0 -24 -34 -45 -75z"/>
<path d="M7360 7066 c-31 -65 -37 -92 -21 -82 8 5 71 131 71 142 0 2 -5 4 -10
4 -6 0 -24 -29 -40 -64z"/>
<path d="M11380 3330 c0 -6 65 -10 175 -10 110 0 175 4 175 10 0 6 -65 10
-175 10 -110 0 -175 -4 -175 -10z"/>
<path d="M11405 3160 c4 -6 75 -10 181 -10 109 0 174 4 174 10 0 6 -67 10
-181 10 -117 0 -178 -3 -174 -10z"/>
</g>
</svg>
